<?xml version="1.0" encoding="UTF-8" standalone="no"?>
<svg width="25px" height="19px" viewBox="0 0 25 19" version="1.1" xmlns="http://www.w3.org/2000/svg" xmlns:xlink="http://www.w3.org/1999/xlink" xmlns:sketch="http://www.bohemiancoding.com/sketch/ns">
    <!-- Generator: Sketch 3.1.1 (8761) - http://www.bohemiancoding.com/sketch -->
    <title>active</title>
    <desc>Created with Sketch.</desc>
    <defs></defs>
    <g id="menu+feed+search" stroke="none" stroke-width="1" fill="none" fill-rule="evenodd" sketch:type="MSPage">
        <g id="filter-white" sketch:type="MSArtboardGroup" transform="translate(-575.000000, -246.000000)" fill="#D34B4B">
            <g id="tab" sketch:type="MSLayerGroup" transform="translate(0.000000, 187.000000)">
                <path d="M599.707625,61.4155 L584.624625,76.1855 C584.548625,76.3115 584.456625,76.4405 584.332625,76.5635 L583.625625,77.2705 C583.235625,77.6605 582.775625,77.8345 582.598625,77.6575 L575.414625,70.1405 C575.238625,69.9645 575.411625,69.5045 575.802625,69.1135 L576.509625,68.4065 C576.900625,68.0155 577.359625,67.8425 577.536625,68.0185 L582.920625,73.6535 L597.585625,59.2925 C597.975625,58.9025 598.609625,58.9025 598.999625,59.2925 L599.706625,59.9995 C600.097625,60.3915 600.097625,61.0245 599.707625,61.4155 L599.707625,61.4155 Z" id="active" sketch:type="MSShapeGroup"></path>
            </g>
        </g>
    </g>
</svg>