<?xml version="1.0" encoding="UTF-8" standalone="no"?>
<svg width="24px" height="24px" viewBox="0 0 24 24" version="1.1" xmlns="http://www.w3.org/2000/svg" xmlns:xlink="http://www.w3.org/1999/xlink" xmlns:sketch="http://www.bohemiancoding.com/sketch/ns">
    <!-- Generator: Sketch 3.1.1 (8761) - http://www.bohemiancoding.com/sketch -->
    <title>close 2</title>
    <desc>Created with Sketch.</desc>
    <defs></defs>
    <g id="view-event" stroke="none" stroke-width="1" fill="none" fill-rule="evenodd" sketch:type="MSPage">
        <g id="invite-whith-mail" sketch:type="MSArtboardGroup" transform="translate(-235.000000, -576.000000)" fill="#D34B4B">
            <g id="add-more" sketch:type="MSLayerGroup" transform="translate(231.000000, 568.000000)">
                <path d="M16,21.3320159 L22.7519998,28.0840157 C23.0900371,28.422053 23.6379969,28.4203326 23.9770293,28.0813002 C24.3184254,27.7399041 24.3172775,27.1938034 23.9797449,26.8562707 L17.1319813,20.0085071 L23.9967591,13.1437293 C24.3342918,12.8061966 24.3354397,12.2600959 23.9940436,11.9186998 C23.6550112,11.5796674 23.1070514,11.577947 22.7690141,11.9159843 L16,18.6849983 L16,18.6849983 L9.23098592,11.9159843 C8.89294863,11.577947 8.34498884,11.5796674 8.00595641,11.9186998 C7.6645603,12.2600959 7.66570818,12.8061966 8.00324087,13.1437293 L14.8680187,20.0085071 L8.02025514,26.8562707 C7.68272245,27.1938034 7.68157457,27.7399041 8.02297068,28.0813002 C8.36200311,28.4203326 8.9099629,28.422053 9.24800019,28.0840157 L16,21.3320159 Z" id="close-2" sketch:type="MSShapeGroup" transform="translate(16.000000, 20.000000) rotate(-45.000000) translate(-16.000000, -20.000000) "></path>
            </g>
        </g>
    </g>
</svg>