<?xml version="1.0" encoding="UTF-8" standalone="no"?>
<svg width="34px" height="38px" viewBox="0 0 34 38" version="1.1" xmlns="http://www.w3.org/2000/svg" xmlns:xlink="http://www.w3.org/1999/xlink" xmlns:sketch="http://www.bohemiancoding.com/sketch/ns">
    <!-- Generator: Sketch 3.1.1 (8761) - http://www.bohemiancoding.com/sketch -->
    <title>bell</title>
    <desc>Created with Sketch.</desc>
    <defs></defs>
    <g id="menu+feed+search" stroke="none" stroke-width="1" fill="none" fill-rule="evenodd" sketch:type="MSPage">
        <g id="menu(logged)" sketch:type="MSArtboardGroup" transform="translate(-42.000000, -1070.000000)" fill="#989898">
            <g id="bar" sketch:type="MSLayerGroup" transform="translate(0.000000, 1038.000000)">
                <g id="bell" transform="translate(64.199524, 51.987004) rotate(41.000000) translate(-64.199524, -51.987004) translate(49.699524, 33.487004)" sketch:type="MSShapeGroup">
                    <path d="M26.8369433,29.7608144 C26.3590437,29.9271455 25.8132822,30.113318 25.2090331,30.3148077 C23.482153,30.890644 21.6335792,31.4735542 19.7384648,32.0273266 L19.4565178,32.1097145 L19.3912172,32.3961019 L19.0456685,33.9115688 L19.0191419,34.0279057 L19.0480087,34.1436842 C19.1527448,34.5637576 18.891023,34.9933803 18.459892,35.1008733 L13.405357,36.3611104 C12.9741033,36.468634 12.5414643,36.2122227 12.4367077,35.7920667 L12.4078441,35.6763011 L12.3298188,35.5860412 L11.3159721,34.4132199 L11.1239474,34.1910851 L10.8364093,34.2505764 C8.9346263,34.6440528 7.03499897,34.9951014 5.22784014,35.2990331 C4.59544475,35.4053907 4.01989191,35.4982444 3.51244755,35.5770168 C3.20848379,35.6242021 2.9951192,35.6561588 2.88361278,35.6723115 C2.40299611,35.7895431 1.97021404,35.5330795 1.8654268,35.1128009 L0.620415404,30.1193329 C0.515658586,29.6991762 0.777433684,29.2694105 1.2086867,29.161887 C1.19598079,29.1663785 1.19598079,29.1663785 1.36524726,29.1415701 L1.66481217,29.0972904 L1.76435105,28.8112977 C2.71619729,26.0764761 3.13250748,22.2963757 2.24745342,17.8056647 C1.03700774,11.663624 1.00439249,11.4667477 1.09241092,9.80236619 C1.20407372,7.69088218 2.06812376,6.30865403 4.09225054,5.24885075 C4.41228914,5.08130328 4.78286669,4.93450108 5.23268847,4.78998034 L5.6780646,4.64688791 L5.56489392,4.19298512 L5.29777643,3.12163536 C5.19290117,2.70153796 5.45458076,2.27198454 5.88589313,2.16444629 L9.045029,1.37678525 C9.47634604,1.26924583 9.9091433,1.52568522 10.0138841,1.94577765 L10.2810016,3.01712742 L10.3941723,3.4710302 L10.8545939,3.38828189 C11.3196113,3.3047076 11.7157313,3.26035062 12.076992,3.25803708 C15.4979139,3.23643313 16.9218895,4.88395552 18.5062488,9.86521061 C18.6605187,10.3502379 18.8171798,10.8627841 19.0351869,11.590716 C19.0964018,11.7951141 19.1714104,12.0464073 19.3113801,12.5153655 C19.4251559,12.8961821 19.51303,13.188855 19.6008907,13.4789565 C20.9274745,17.8585624 23.0691816,21.0005937 25.1934079,22.9688469 L25.4142619,23.1734845 L25.6984397,23.0740057 C25.7939789,23.0405614 25.8609326,23.0168076 25.8974915,23.0036838 C26.2808307,22.9106994 26.7136128,23.1671631 26.8184,23.5874417 L28.0634114,28.5809097 C28.1680642,29.0011834 27.906276,29.4308613 27.4749343,29.5384069 L27.7168562,30.5087026 C28.6813739,30.2682213 29.2725074,29.2979827 29.0337432,28.3391326 L27.7886957,23.3455198 C27.549634,22.3866954 26.5721578,21.8074498 25.6075718,22.0479481 C25.5265063,22.0743829 25.4610003,22.097623 25.36804,22.1301645 L25.5332399,22.6020851 L25.8730719,22.2353233 C23.8707484,20.3800221 21.8286223,17.3840829 20.5579548,13.1890798 C20.470523,12.9003947 20.3829789,12.6088209 20.2695307,12.2291009 C20.1296897,11.7605736 20.0545178,11.5087334 19.993148,11.3038178 C19.773654,10.5709214 19.615548,10.0536479 19.459207,9.56210867 C17.7572748,4.21120213 16.0474387,2.23294281 12.0706325,2.2580573 C11.6444668,2.2607865 11.1944704,2.31117647 10.677705,2.40405105 L10.7661495,2.89616647 L11.2512973,2.77520552 L10.9841798,1.70385575 C10.7451582,0.74519248 9.76764875,0.166002282 8.80310711,0.406489524 L5.64397124,1.19415056 C4.67936127,1.43465484 4.08819759,2.40506444 4.32751684,3.3637021 L4.5945982,4.43490702 L5.07974606,4.31394607 L4.92680365,3.83791181 C4.42692495,3.99851506 4.0059451,4.16528385 3.62842115,4.36292621 C1.28731262,5.58869651 0.223883118,7.28987367 0.0938063259,9.74955642 C-0.000942414526,11.5412046 0.0275901646,11.7134365 1.26632576,17.9990259 C2.11407434,22.300451 1.71712409,25.904763 0.819918985,28.482591 L1.29213502,28.6469444 L1.21902277,28.1523186 C1.05273467,28.1766901 1.05273467,28.1766901 1.01738911,28.1817111 C0.00223846844,28.4320747 -0.588905455,29.4025773 -0.349880322,30.3612548 L0.895131076,35.3547228 C1.13419286,36.3135472 2.11166904,36.8927928 3.07625503,36.6522945 C3.14174731,36.645356 3.3584477,36.6128997 3.66584378,36.5651815 C4.17733253,36.4857814 4.75702419,36.3922599 5.393693,36.2851836 C7.21243188,35.9793043 9.12408019,35.6260343 11.0390169,35.2298364 L10.5594541,35.0671928 L11.5733008,36.2400141 L11.466412,36.0339886 C11.7054371,36.9926659 12.6827524,37.5718896 13.6472789,37.3314061 L18.7018139,36.071169 C19.6661936,35.8307221 20.2573151,34.8603818 20.0183045,33.9017623 L20.0206447,34.1338777 L20.3661935,32.6184109 L20.0189459,32.9871862 C21.926928,32.4296537 23.7872497,31.843039 25.5253645,31.2634564 C26.1338637,31.0605495 26.6837379,30.8729741 27.1656492,30.7052467 C27.4553133,30.6044302 27.6583029,30.532506 27.7652739,30.4939916 L27.4265166,29.5531178 C27.322813,29.5904559 27.1231657,29.6611958 26.8369433,29.7608144 Z M13.8076763,36.628811 L18.230343,35.5261163 C18.8458688,35.3726485 19.2238529,34.7522561 19.070759,34.1382302 L18.5856111,34.2591911 L19.0630654,34.4076412 L19.5339255,32.8932315 L19.8084617,32.0102512 L18.9192767,32.2639721 C17.6332103,32.6309395 16.3880451,32.9659372 15.1848767,33.2659207 C14.0688197,33.544185 12.8945304,33.8139067 11.6712614,34.0752564 L10.7666552,34.2685242 L11.4238752,34.9194671 L12.5473549,36.0322165 L13.2510606,35.3217249 L12.1275809,34.2089756 L11.8801947,35.0531863 C13.1140244,34.7895803 14.2992113,34.5173555 15.4267986,34.2362164 C16.6414245,33.9333762 17.8973016,33.5954967 19.1936659,33.2255908 L18.579017,32.5963314 L18.1081569,34.1107411 L18.066609,34.2443699 L18.1004633,34.3801521 C18.1192764,34.4556075 18.0707221,34.5353007 17.9884211,34.5558206 L13.5657544,35.6585153 C13.4833428,35.6790628 13.4031924,35.6315602 13.3843556,35.5560098 L12.4140599,35.7979317 C12.5671651,36.4120031 13.1919916,36.7823184 13.8076763,36.628811 Z M8.64255512,1.10934147 L6.11549341,1.73940872 C5.49996759,1.89287654 5.12198352,2.5132689 5.27507739,3.12729486 L5.53379303,4.16494663 L5.65584037,4.65445178 L6.14423473,4.52803264 C6.23015355,4.50579286 6.73977357,4.37662552 6.87125802,4.34185061 C7.13083685,4.27319737 7.31091601,4.21896203 7.45617691,4.16226465 L7.86593902,4.0023287 L7.75952514,3.57552597 L7.74231159,3.50648617 L7.25716372,3.62744712 L7.45130446,4.08821753 C7.49894505,4.06814467 7.66395702,4.02192607 7.97738557,3.96632876 C8.34691989,3.8516443 8.51431514,3.81498448 8.56580291,3.81034186 L8.5209004,3.31236217 L8.03575254,3.43332312 L8.05296609,3.50236292 L8.15938999,3.92920586 L8.5963102,3.87800362 C8.75120912,3.85985118 8.93545276,3.82320295 9.19722032,3.7618421 C9.32692487,3.7314381 9.83153667,3.60774718 9.9261669,3.5850892 L10.4169824,3.4675698 L10.2948871,2.97787255 L10.0361715,1.94022078 L9.06587578,2.18214267 L9.32459142,3.21979444 L9.69331167,2.61257779 C9.59408706,2.63633583 9.09271801,2.75923189 8.96899699,2.78823329 C8.74167932,2.84151875 8.58742616,2.87220152 8.47991771,2.88480033 L8.53811396,3.38140197 L9.02326182,3.26044103 L9.00604826,3.19140123 L8.90245934,2.77592873 L8.47599789,2.81438249 C8.34510725,2.82618482 8.10589142,2.87857346 7.73603581,2.99832773 C7.41994344,3.0495995 7.18413342,3.1156481 7.06302299,3.1666767 L6.66842693,3.33293557 L6.77201586,3.74840806 L6.78922942,3.81744786 L7.27437728,3.69648692 L7.09257765,3.23070919 C6.99171861,3.2700759 6.84096973,3.31547769 6.61557016,3.37509122 C6.49010985,3.40827287 5.98412338,3.53651925 5.89364706,3.55993873 L6.50408876,3.92302474 L6.24537311,2.88537297 C6.22655997,2.80991759 6.27511435,2.73022438 6.3574153,2.70970444 L8.88447702,2.07963719 C8.9668886,2.05908968 9.04703895,2.10659231 9.06587578,2.18214267 L10.0361715,1.94022078 C9.8830663,1.32614936 9.25823977,0.955834042 8.64255512,1.10934147 Z M19.1810783,11.276103 C17.3839938,5.45071415 15.7306593,3.24131722 11.9602728,3.26444141 C11.798378,3.26544883 11.6318176,3.27364869 11.4600622,3.28858008 C10.9707298,3.33111972 10.4773893,3.421545 9.86219221,3.56659547 C9.70586276,3.60345465 9.22014173,3.72280348 9.14406234,3.74088301 C8.91701005,3.79483976 8.76872961,3.82487129 8.66563166,3.8369729 L8.72392137,4.33356359 L9.20906923,4.21260264 L9.08963649,3.73358409 L8.66331661,3.77187034 C8.53942419,3.78299667 8.31581461,3.8319224 7.97170822,3.94328998 C7.682091,3.98974393 7.46142539,4.05166209 7.34657343,4.10027003 L6.95288097,4.26688958 L7.05630246,4.68169053 L7.55733188,4.62442702 L7.37566343,4.15859811 C7.2169669,4.21571495 5.74840459,4.58898803 5.21491821,4.77152785 C4.84022216,4.89973534 4.50308083,5.0399734 4.19792037,5.19980235 C2.06482371,6.31711839 1.10053052,8.04836364 1.0104566,10.5393398 C0.945510207,12.3354192 1.05224162,12.984752 2.13045302,18.408201 C2.15748386,18.5443379 2.15748386,18.5443379 2.18448449,18.6810963 C2.96524996,22.6422731 2.60236958,25.9611925 1.77832159,28.3363796 L1.50505455,29.1240284 L2.32858385,28.9941634 C5.86015052,28.4372594 9.73008878,27.7005212 13.3085411,26.8083128 C17.1892177,25.8407515 21.2136982,24.6063253 24.7756567,23.3928526 L25.5678202,23.1229817 L24.9547844,22.5532972 C23.1116899,20.8405386 21.2357578,18.0817657 20.0670736,14.2224771 L19.1099944,14.5123034 C20.3343962,18.5555859 22.3095003,21.4602026 24.2740529,23.2858303 L24.4531806,22.4462749 C20.9154745,23.6514855 16.9157025,24.8783329 13.0666192,25.8380171 C9.52144509,26.7219283 5.6779015,27.4536416 2.17281552,28.0063698 L2.72307778,28.6641536 C3.60152647,26.1321651 3.98359622,22.6377388 3.16560619,18.487705 C3.1384353,18.3500842 3.1384353,18.3500842 3.11125835,18.2132115 C2.05609477,12.905694 1.94908398,12.2546615 2.00980347,10.5754763 C2.08757097,8.42483174 2.86673716,7.02595452 4.66190469,6.08564576 C4.91791792,5.95155786 5.20910313,5.83043581 5.53865562,5.71767482 C6.01912854,5.55327429 7.49549603,5.17801733 7.66816413,5.11660675 C7.70389786,5.10371854 7.70389786,5.10371854 7.73900032,5.09025593 L8.14892383,4.93039001 L8.04247974,4.50346607 L7.54145032,4.56072958 L7.73632721,5.02118914 C7.77710321,5.00393181 7.92636003,4.96205076 8.21282117,4.91134203 C8.55665576,4.80504424 8.70837347,4.77184844 8.75276302,4.76786197 L8.70803981,4.26986616 L8.22289195,4.3908271 L8.3452176,4.88144848 L8.78221108,4.83015428 C8.93453317,4.81227474 9.11253923,4.77622283 9.37526391,4.71378888 C9.4566103,4.6944577 9.94118399,4.57539079 10.0916786,4.53990735 C10.6639046,4.40498856 11.1145545,4.32238811 11.5466696,4.28482261 C11.69253,4.27214237 11.8324002,4.26525648 11.9664506,4.26442232 C15.1361197,4.24498241 16.5472774,6.13075182 18.2255142,11.5708866 C18.4048993,12.1523772 19.0344548,14.2628736 19.1099978,14.5123145 L20.0670703,14.222466 C19.9927374,13.9770206 19.3621144,11.8629458 19.1810783,11.276103 Z M25.5249419,23.0633284 C25.3640781,23.1184988 25.1480827,23.1949497 24.839379,23.3022165 C24.3240048,23.4812961 23.7373819,23.680921 23.0902612,23.8959494 C21.2410018,24.5104302 19.2784776,25.124938 17.2889031,25.698314 C15.9201452,26.0927766 14.5853122,26.4539245 13.2998723,26.7744207 C13.0667894,26.8325348 12.8309307,26.8902499 12.5924068,26.947561 C10.1819542,27.5267302 7.59699666,28.0433286 5.01171767,28.4903159 C4.10663347,28.6468024 3.26629037,28.7833846 2.51236572,28.8992226 C2.06063139,28.96863 1.73856392,29.0156346 1.5678188,29.0394038 C0.900271594,29.2029483 0.522287525,29.8233407 0.675381391,30.4373666 L1.76475356,34.8065997 C1.91785876,35.4206712 2.54268528,35.7909865 3.15836994,35.637479 C3.28480674,35.6220138 3.61403699,35.5728092 4.0741746,35.5007236 C4.84010457,35.3807323 5.69333067,35.2399694 6.61209713,35.0794795 C9.23778347,34.6208254 11.8637722,34.0958744 14.3167416,33.5126919 C14.645136,33.4346176 14.9686395,33.3558882 15.286988,33.276515 C16.5377428,32.9646668 17.8291268,32.6151971 19.147835,32.2347489 C21.1175516,31.6664843 23.0516816,31.0578022 24.8687942,30.4490854 C25.504926,30.2359868 26.0811175,30.0380608 26.5871642,29.8603578 C26.8913505,29.75354 27.1049399,29.6770597 27.2177201,29.6359684 C27.7830402,29.4978592 28.1610243,28.8774668 28.0079304,28.2634409 L26.9185583,23.8942078 L25.9482625,24.1361296 L27.0376347,28.5053628 C27.0564478,28.5808181 27.0078935,28.6605114 26.9255925,28.6810313 C26.7661811,28.7361787 26.5562516,28.8113486 26.2558396,28.916841 C25.7542226,29.0929884 25.1825771,29.2893529 24.5511519,29.5008748 C22.7466733,30.1053593 20.825771,30.7098786 18.8706396,31.2739353 C17.5631479,31.6511476 16.2834185,31.9974634 15.0450661,32.3062193 C14.7303055,32.3846979 14.4103405,32.4625661 14.085443,32.539809 C11.654301,33.1178022 9.04731315,33.6389548 6.44002293,34.0943955 C5.52724759,34.2538389 4.67975631,34.3936557 3.91940145,34.5127736 C3.46376816,34.5841535 3.13887634,34.6327097 2.96655781,34.6573765 C2.83403646,34.6877308 2.75388611,34.6402282 2.73504928,34.5646778 L1.64567712,30.1954447 C1.62686398,30.1199893 1.67541835,30.0402961 1.75771931,30.0197762 C1.8809672,30.0054539 2.20767673,29.9577718 2.66423022,29.8876239 C3.42411857,29.7708696 4.27059569,29.6332905 5.1820871,29.4756962 C7.78702415,29.02531 10.3922826,28.5046545 12.8260317,27.9198878 C13.0672958,27.8619183 13.3059191,27.8035267 13.5417942,27.7447164 C14.8395772,27.4211428 16.1859611,27.0568697 17.565823,26.6592069 C19.5692686,26.0818335 21.544344,25.4633957 23.4055933,24.8449308 C24.0571507,24.6284282 24.6480568,24.4273457 25.1676037,24.2468162 C25.4798527,24.1383175 25.6992845,24.0606502 25.815184,24.0189483 C25.8492754,24.0130767 25.9294257,24.0605793 25.9482625,24.1361296 L26.9185583,23.8942078 C26.7654531,23.2801363 26.1406265,22.909821 25.5249419,23.0633284 Z"></path>
                </g>
            </g>
        </g>
    </g>
</svg>