<?xml version="1.0" encoding="UTF-8" standalone="no"?>
<svg width="35px" height="35px" viewBox="0 0 35 35" version="1.1" xmlns="http://www.w3.org/2000/svg" xmlns:xlink="http://www.w3.org/1999/xlink" xmlns:sketch="http://www.bohemiancoding.com/sketch/ns">
    <!-- Generator: Sketch 3.1.1 (8761) - http://www.bohemiancoding.com/sketch -->
    <title>chips</title>
    <desc>Created with Sketch.</desc>
    <defs></defs>
    <g id="menu+feed+search" stroke="none" stroke-width="1" fill="none" fill-rule="evenodd" sketch:type="MSPage">
        <g id="menu(logged)" sketch:type="MSArtboardGroup" transform="translate(-156.000000, -1072.000000)">
            <g id="bar" sketch:type="MSLayerGroup" transform="translate(0.000000, 1038.000000)">
                <g id="chips" transform="translate(158.000000, 35.000000)" sketch:type="MSShapeGroup">
                    <g>
                        <path d="M-0.296865397,16.3856692 C-0.296865397,7.54911319 6.86657878,0.385669205 15.7031349,0.385669205 C24.5396909,0.385669205 31.7031346,7.54911319 31.7031346,16.3856692 C31.7031346,25.2222252 24.5396909,32.3856692 15.7031349,32.3856692 C6.86657878,32.3856692 -0.296865397,25.2222252 -0.296865397,16.3856692 Z" stroke="#989898" stroke-width="2"></path>
                        <path d="M14.5572589,20.2043907 L11.7692913,17.2753079 C10.0442795,18.609234 7.59993317,18.5204069 5.64221697,16.5583615 C3.50702383,14.4184471 3.17720233,11.2795113 4.90554004,9.54735196 C6.63387775,7.81519261 9.76588767,8.14574338 11.9010808,10.2856577 C13.858797,12.2477032 13.9474284,14.6974545 12.6164451,16.4262809 L15.5626739,19.2429839 L18.5189548,16.416103 C17.1802444,14.6800066 17.1582516,12.1238141 19.2038342,10.3122561 C19.8185463,9.74246924 21.6087345,8.12832262 22.263845,8.03063365 C23.0602835,7.91186994 23.9560572,7.97608414 23.9560572,7.97608414 L20.1544217,11.7539356 C20.1221378,12.1198626 20.0983016,12.5074746 20.1085266,12.8883596 L24.6257933,8.36110405 L25.8974438,9.17303505 L20.5279089,14.5544433 C20.6023312,14.6689527 20.6888192,14.7750598 20.7890183,14.870939 C20.9060226,14.9828986 21.0355533,15.0777404 21.1748798,15.1578778 L26.5219804,9.79895306 L27.3735668,11.0318774 L22.8541,15.5613376 C23.1776279,15.575091 23.5024359,15.5668888 23.8110815,15.5521403 L27.6468977,11.6750858 C27.6468977,11.6750858 27.7109701,12.5728402 27.5924683,13.3710401 C27.4953144,14.0254464 25.8506689,15.8843696 25.2612643,16.5328923 C25.2557918,16.5391523 25.2502653,16.5454485 25.2446849,16.5517812 C25.184303,16.6202992 25.1232351,16.6865325 25.0615304,16.7505051 C25.0560349,16.756412 25.0531926,16.7594535 25.0531926,16.7594535 L25.0530202,16.7593097 C23.2922608,18.5771329 21.0156533,18.5586688 19.3630095,17.2646451 L16.5662178,20.2024089 L21.3986512,24.8223926 L20.1468783,26.0769333 L15.5606944,21.2586158 L10.9682617,26.0825298 L9.71918748,24.8306937 L14.5572589,20.2043907 L14.5572589,20.2043907 Z" id="Path-3-path" fill="#989898"></path>
                    </g>
                </g>
            </g>
        </g>
    </g>
</svg>