<?xml version="1.0" encoding="UTF-8" standalone="no"?>
<svg width="32px" height="32px" viewBox="0 0 32 32" version="1.1" xmlns="http://www.w3.org/2000/svg" xmlns:xlink="http://www.w3.org/1999/xlink" xmlns:sketch="http://www.bohemiancoding.com/sketch/ns">
    <!-- Generator: Sketch 3.1.1 (8761) - http://www.bohemiancoding.com/sketch -->
    <title>exit</title>
    <desc>Created with Sketch.</desc>
    <defs></defs>
    <g id="menu+feed+search" stroke="none" stroke-width="1" fill="none" fill-rule="evenodd" sketch:type="MSPage">
        <g id="menu(logged)" sketch:type="MSArtboardGroup" transform="translate(-527.000000, -1071.000000)" fill="#989898">
            <g id="bar" sketch:type="MSLayerGroup" transform="translate(0.000000, 1038.000000)">
                <path d="M556.265936,48.1578947 L550.808243,42.7002009 C550.506617,42.3985758 550.505265,41.910897 550.809934,41.6062285 C551.112493,41.3036693 551.604278,41.3049088 551.903906,41.6045373 L558.647797,48.3484281 C558.690821,48.376779 558.73163,48.4098731 558.769478,48.4477213 C559.074147,48.7523898 559.072794,49.2400686 558.771169,49.5416937 L551.917744,56.3951196 C551.618115,56.694748 551.12633,56.6959875 550.823771,56.3934284 C550.519102,56.0887598 550.520455,55.601081 550.82208,55.2994559 L556.27943,49.8421053 L535.415129,49.8421053 C534.954618,49.8421053 534.578947,49.4650819 534.578947,49 C534.578947,48.5316756 534.953319,48.1578947 535.415129,48.1578947 L556.265936,48.1578947 Z M559,57.4210526 L559,60.9957423 C559,63.2109725 557.207233,65 554.995742,65 L531.004258,65 C528.789028,65 527,63.2072328 527,60.9957423 L527,37.0042577 C527,34.7890275 528.792767,33 531.004258,33 L554.995742,33 C557.210972,33 559,34.7927672 559,37.0042577 L559,41.4210526 L557.315789,41.4210526 L557.315789,36.6747957 C557.315789,35.5754259 556.427507,34.6842105 555.325204,34.6842105 L530.674796,34.6842105 C529.575426,34.6842105 528.684211,35.5724931 528.684211,36.6747957 L528.684211,61.3252043 C528.684211,62.4245741 529.572493,63.3157895 530.674796,63.3157895 L555.325204,63.3157895 C556.424574,63.3157895 557.315789,62.4275069 557.315789,61.3252043 L557.315789,57.4210526 L559,57.4210526 Z" id="exit" sketch:type="MSShapeGroup"></path>
            </g>
        </g>
    </g>
</svg>