<?xml version="1.0" encoding="UTF-8" standalone="no"?>
<svg width="34px" height="29px" viewBox="0 0 34 29" version="1.1" xmlns="http://www.w3.org/2000/svg" xmlns:xlink="http://www.w3.org/1999/xlink" xmlns:sketch="http://www.bohemiancoding.com/sketch/ns">
    <!-- Generator: Sketch 3.1.1 (8761) - http://www.bohemiancoding.com/sketch -->
    <title>feed</title>
    <desc>Created with Sketch.</desc>
    <defs></defs>
    <g id="menu+feed+search" stroke="none" stroke-width="1" fill="none" fill-rule="evenodd" sketch:type="MSPage">
        <g id="menu(logged)" sketch:type="MSArtboardGroup" transform="translate(-42.000000, -267.000000)" stroke="#979797">
            <g id="menu" sketch:type="MSLayerGroup" transform="translate(0.000000, 212.000000)">
                <path d="M43.5907525,75 L43.5907525,58.7226063 C43.5907525,57.6276 44.4851338,56.7285156 45.5884091,56.7285156 L72.4010259,56.7285156 C73.509886,56.7285156 74.3986825,57.6213004 74.3986825,58.7226063 L74.3986825,75 L43.5907525,75 L43.5907525,75 Z M43.5907525,77 L43.5907525,80.4194835 C43.5907525,81.5207894 44.479549,82.4135742 45.5884091,82.4135742 L72.4010259,82.4135742 C73.5043012,82.4135742 74.3986825,81.5144898 74.3986825,80.4194835 L74.3986825,77 L43.5907525,77 L43.5907525,77 Z M45.0023584,55 C43.3442017,55 42,56.3405687 42,57.9942819 L42,81.0057181 C42,82.6594143 43.3433124,84 45.0023584,84 L72.9976416,84 C74.6557983,84 76,82.6594313 76,81.0057181 L76,57.9942819 C76,56.3405857 74.6566876,55 72.9976416,55 L45.0023584,55 Z M45.6965332,72.3088379 L54.3635254,64.7058105 L59.8044434,67.7226562 L67.5649414,60.7543945 L72.5908203,65.0205078 L72.588623,73.125 L45.5334473,72.8469238 L45.6965332,72.3088379 Z M48.5,64 C49.8807119,64 51,62.8807119 51,61.5 C51,60.1192881 49.8807119,59 48.5,59 C47.1192881,59 46,60.1192881 46,61.5 C46,62.8807119 47.1192881,64 48.5,64 Z" id="feed" sketch:type="MSShapeGroup"></path>
            </g>
        </g>
    </g>
</svg>