<?xml version="1.0" encoding="UTF-8" standalone="no"?>
<svg width="38px" height="11px" viewBox="0 0 38 11" version="1.1" xmlns="http://www.w3.org/2000/svg" xmlns:xlink="http://www.w3.org/1999/xlink" xmlns:sketch="http://www.bohemiancoding.com/sketch/ns">
    <!-- Generator: Sketch 3.1.1 (8761) - http://www.bohemiancoding.com/sketch -->
    <title>filter</title>
    <desc>Created with Sketch.</desc>
    <defs></defs>
    <g id="menu+feed+search" stroke="none" stroke-width="1" fill="none" fill-rule="evenodd" sketch:type="MSPage">
        <g id="map" sketch:type="MSArtboardGroup" transform="translate(-20.000000, -165.000000)" stroke="#D34B4B" stroke-width="2">
            <g id="result-3" sketch:type="MSLayerGroup" transform="translate(0.000000, 130.000000)">
                <path d="M25.5,45 C27.9852814,45 30,42.9852814 30,40.5 C30,38.0147186 27.9852814,36 25.5,36 C23.0147186,36 21,38.0147186 21,40.5 C21,42.9852814 23.0147186,45 25.5,45 Z M39,45 C41.4852814,45 43.5,42.9852814 43.5,40.5 C43.5,38.0147186 41.4852814,36 39,36 C36.5147186,36 34.5,38.0147186 34.5,40.5 C34.5,42.9852814 36.5147186,45 39,45 Z M52.5,45 C54.9852814,45 57,42.9852814 57,40.5 C57,38.0147186 54.9852814,36 52.5,36 C50.0147186,36 48,38.0147186 48,40.5 C48,42.9852814 50.0147186,45 52.5,45 Z" id="filter" sketch:type="MSShapeGroup"></path>
            </g>
        </g>
    </g>
</svg>