<?xml version="1.0" encoding="UTF-8" standalone="no"?>
<svg width="15px" height="23px" viewBox="0 0 15 23" version="1.1" xmlns="http://www.w3.org/2000/svg" xmlns:xlink="http://www.w3.org/1999/xlink" xmlns:sketch="http://www.bohemiancoding.com/sketch/ns">
    <!-- Generator: Sketch 3.1.1 (8761) - http://www.bohemiancoding.com/sketch -->
    <title>location</title>
    <desc>Created with Sketch.</desc>
    <defs></defs>
    <g id="view-event" stroke="none" stroke-width="1" fill="none" fill-rule="evenodd" sketch:type="MSPage">
        <g sketch:type="MSArtboardGroup" transform="translate(-222.000000, -743.000000)" id="text" fill="#A3A3A3">
            <g sketch:type="MSLayerGroup" transform="translate(0.000000, 129.000000)">
                <g id="location" transform="translate(222.500000, 609.000000)" sketch:type="MSShapeGroup">
                    <path d="M6.88588447,27.4390159 C6.88588447,27.4390159 -0.114286265,21.7666302 -0.114286265,12.3138588 C-0.114286265,8.51752305 3.01992105,5.43901591 6.88588447,5.43901591 C10.7515064,5.43901591 13.8857137,8.51752305 13.8857137,12.3138588 C13.8857137,21.8529016 6.88588447,27.4390159 6.88588447,27.4390159 L6.88588447,27.4390159 Z M6.88588447,9.56393734 C5.33939666,9.56393734 4.08562837,10.7953088 4.08562837,12.3138588 C4.08562837,13.8324088 5.33939666,15.0643302 6.88588447,15.0643302 C8.43211617,15.0643302 9.685543,13.8323302 9.685543,12.3138588 C9.685543,10.7953088 8.43203081,9.56393734 6.88588447,9.56393734 L6.88588447,9.56393734 Z"></path>
                </g>
            </g>
        </g>
    </g>
</svg>