<?xml version="1.0" encoding="UTF-8" standalone="no"?>
<svg width="36px" height="33px" viewBox="0 0 36 33" version="1.1" xmlns="http://www.w3.org/2000/svg" xmlns:xlink="http://www.w3.org/1999/xlink" xmlns:sketch="http://www.bohemiancoding.com/sketch/ns">
    <!-- Generator: Sketch 3.1.1 (8761) - http://www.bohemiancoding.com/sketch -->
    <title>menu</title>
    <desc>Created with Sketch.</desc>
    <defs></defs>
    <g id="menu+feed+search" stroke="none" stroke-width="1" fill="none" fill-rule="evenodd" sketch:type="MSPage">
        <g id="feed" sketch:type="MSArtboardGroup" transform="translate(-20.000000, -64.000000)" fill="#D34B4B">
            <g id="topBar" sketch:type="MSLayerGroup">
                <path d="M21.546875,64.5 C20.6925595,64.5 20,65.1872746 20,66.0483871 L20,66.0483871 C20,66.9035377 20.6870017,67.5967742 21.546875,67.5967742 L54.453125,67.5967742 C55.3074405,67.5967742 56,66.9094996 56,66.0483871 L56,66.0483871 C56,65.1932365 55.3129983,64.5 54.453125,64.5 L21.546875,64.5 Z M21.546875,71.7258065 C20.6925595,71.7258065 20,72.413081 20,73.2741935 L20,73.2741935 C20,74.1293441 20.6870017,74.8225806 21.546875,74.8225806 L54.453125,74.8225806 C55.3074405,74.8225806 56,74.1353061 56,73.2741935 L56,73.2741935 C56,72.419043 55.3129983,71.7258065 54.453125,71.7258065 L21.546875,71.7258065 Z M21.546875,78.9516129 C20.6925595,78.9516129 20,79.6388875 20,80.5 L20,80.5 C20,81.3551506 20.6870017,82.0483871 21.546875,82.0483871 L54.453125,82.0483871 C55.3074405,82.0483871 56,81.3611125 56,80.5 L56,80.5 C56,79.6448494 55.3129983,78.9516129 54.453125,78.9516129 L21.546875,78.9516129 Z M21.546875,86.1774194 C20.6925595,86.1774194 20,86.8646939 20,87.7258065 L20,87.7258065 C20,88.580957 20.6870017,89.2741935 21.546875,89.2741935 L54.453125,89.2741935 C55.3074405,89.2741935 56,88.586919 56,87.7258065 L56,87.7258065 C56,86.8706559 55.3129983,86.1774194 54.453125,86.1774194 L21.546875,86.1774194 Z M21.5462006,93.4032258 C20.6922576,93.4032258 20,94.0905004 20,94.9516129 L20,94.9516129 C20,95.8067635 20.6844482,96.5 21.5462006,96.5 L39.025228,96.5 C39.879171,96.5 40.5714286,95.8127254 40.5714286,94.9516129 L40.5714286,94.9516129 C40.5714286,94.0964623 39.8869803,93.4032258 39.025228,93.4032258 L21.5462006,93.4032258 Z" id="menu" sketch:type="MSShapeGroup"></path>
            </g>
        </g>
    </g>
</svg>