<?xml version="1.0" encoding="UTF-8" standalone="no"?>
<svg width="32px" height="32px" viewBox="0 0 32 32" version="1.1" xmlns="http://www.w3.org/2000/svg" xmlns:xlink="http://www.w3.org/1999/xlink" xmlns:sketch="http://www.bohemiancoding.com/sketch/ns">
    <!-- Generator: Sketch 3.1.1 (8761) - http://www.bohemiancoding.com/sketch -->
    <title>preview-normal</title>
    <desc>Created with Sketch.</desc>
    <defs></defs>
    <g id="menu+feed+search" stroke="none" stroke-width="1" fill="none" fill-rule="evenodd" sketch:type="MSPage">
        <g id="map" sketch:type="MSArtboardGroup" transform="translate(-499.000000, -155.000000)" stroke="#D34B4B" stroke-width="2">
            <g id="result-3" sketch:type="MSLayerGroup" transform="translate(0.000000, 130.000000)">
                <path d="M503.994783,25 C501.23624,25 499,27.2456516 499,29.9947828 L499,35.0052172 C499,37.7637596 501.245652,40 503.994783,40 L509.005217,40 C511.76376,40 514,37.7543484 514,35.0052172 L514,29.9947828 C514,27.2362404 511.754348,25 509.005217,25 L503.994783,25 Z M520.994783,25 C518.23624,25 516,27.2456516 516,29.9947828 L516,35.0052172 C516,37.7637596 518.245652,40 520.994783,40 L526.005217,40 C528.76376,40 531,37.7543484 531,35.0052172 L531,29.9947828 C531,27.2362404 528.754348,25 526.005217,25 L520.994783,25 Z M503.994783,42 C501.23624,42 499,44.2456516 499,46.9947828 L499,52.0052172 C499,54.7637596 501.245652,57 503.994783,57 L509.005217,57 C511.76376,57 514,54.7543484 514,52.0052172 L514,46.9947828 C514,44.2362404 511.754348,42 509.005217,42 L503.994783,42 Z M520.994783,42 C518.23624,42 516,44.2456516 516,46.9947828 L516,52.0052172 C516,54.7637596 518.245652,57 520.994783,57 L526.005217,57 C528.76376,57 531,54.7543484 531,52.0052172 L531,46.9947828 C531,44.2362404 528.754348,42 526.005217,42 L520.994783,42 Z" id="preview-normal" sketch:type="MSShapeGroup"></path>
            </g>
        </g>
    </g>
</svg>