<?xml version="1.0" encoding="UTF-8" standalone="no"?>
<svg width="36px" height="26px" viewBox="0 0 36 26" version="1.1" xmlns="http://www.w3.org/2000/svg" xmlns:xlink="http://www.w3.org/1999/xlink" xmlns:sketch="http://www.bohemiancoding.com/sketch/ns">
    <!-- Generator: Sketch 3.1.1 (8761) - http://www.bohemiancoding.com/sketch -->
    <title>requests</title>
    <desc>Created with Sketch.</desc>
    <defs></defs>
    <g id="menu+feed+search" stroke="none" stroke-width="1" fill="none" fill-rule="evenodd" sketch:type="MSPage">
        <g id="menu(logged)" sketch:type="MSArtboardGroup" transform="translate(-42.000000, -357.000000)" stroke="#979797" stroke-width="2">
            <g id="menu" sketch:type="MSLayerGroup" transform="translate(0.000000, 212.000000)">
                <path d="M78,152.341411 L78,148.00805 C78,146.346816 76.6544607,145.00012 74.9925801,145.00012 L45.0074199,145.00012 C43.3464677,145.00012 42,146.343244 42,148.00805 L42,152.341411 L42,152.341411 C44.3303847,153.165084 46,155.387562 46,158 C46,160.612438 44.3303847,162.834916 42,163.658589 L42,167.99219 C42,169.653424 43.3455393,171.00012 45.0074199,171.00012 L74.9925801,171.00012 C76.6535323,171.00012 78,169.656997 78,167.99219 L78,163.658589 C75.6696153,162.834916 74,160.612438 74,158 C74,155.387562 75.6696153,153.165084 78,152.341411 Z M63,164 L63,169 L65,169 L65,164 L63,164 Z M63,155 L63,161 L65,161 L65,155 L63,155 Z M63,147 L63,152 L65,152 L65,147 L63,147 Z" id="requests" sketch:type="MSShapeGroup"></path>
            </g>
        </g>
    </g>
</svg>