<?xml version="1.0" encoding="UTF-8" standalone="no"?>
<svg width="27px" height="33px" viewBox="0 0 27 33" version="1.1" xmlns="http://www.w3.org/2000/svg" xmlns:xlink="http://www.w3.org/1999/xlink" xmlns:sketch="http://www.bohemiancoding.com/sketch/ns">
    <!-- Generator: Sketch 3.1.1 (8761) - http://www.bohemiancoding.com/sketch -->
    <title>search</title>
    <desc>Created with Sketch.</desc>
    <defs></defs>
    <g id="menu+feed+search" stroke="none" stroke-width="1" fill="none" fill-rule="evenodd" sketch:type="MSPage">
        <g id="feed" sketch:type="MSArtboardGroup" transform="translate(-586.000000, -64.000000)" fill="#D34B4B">
            <g id="topBar" sketch:type="MSLayerGroup">
                <path d="M605.251657,89.3312359 L609.214188,95.959494 C609.523367,96.4766676 610.206382,96.6548365 610.748122,96.3527742 C611.286111,96.0528033 611.465969,95.3809601 611.16242,94.8732032 L607.199889,88.2449452 C612.914199,84.4213788 614.727299,76.9378973 611.189391,71.0199213 C607.462091,64.7851429 599.206999,62.64895 592.751127,66.248601 C586.295254,69.848252 584.083309,77.8206323 587.810609,84.0554107 C591.348517,89.9733866 598.965773,92.1987108 605.251657,89.3312359 L605.251657,89.3312359 L605.251657,89.3312359 Z M605.124061,86.9452201 C610.503955,83.9455109 612.347242,77.3018607 609.241159,72.1062121 C606.135076,66.9105634 599.255833,65.1304027 593.875939,68.1301119 C588.496045,71.129821 586.652758,77.7734712 589.758841,82.9691199 C592.864924,88.1647686 599.744167,89.9449293 605.124061,86.9452201 L605.124061,86.9452201 Z" id="search" sketch:type="MSShapeGroup"></path>
            </g>
        </g>
    </g>
</svg>