<?xml version="1.0" encoding="UTF-8" standalone="no"?>
<svg width="33px" height="32px" viewBox="0 0 33 32" version="1.1" xmlns="http://www.w3.org/2000/svg" xmlns:xlink="http://www.w3.org/1999/xlink" xmlns:sketch="http://www.bohemiancoding.com/sketch/ns">
    <!-- Generator: Sketch 3.1.1 (8761) - http://www.bohemiancoding.com/sketch -->
    <title>send</title>
    <desc>Created with Sketch.</desc>
    <defs></defs>
    <g id="view-event" stroke="none" stroke-width="1" fill="none" fill-rule="evenodd" sketch:type="MSPage">
        <g id="contact" sketch:type="MSArtboardGroup" transform="translate(-552.000000, -57.000000)" fill="#D34B4B">
            <g id="top" sketch:type="MSLayerGroup" transform="translate(61.000000, 57.000000)">
                <path d="M503.21037,24.375802 C503.074203,23.8390972 502.648939,23.4017647 502.007952,23.2311766 L497.17893,21.9460122 L497.17893,21.9460122 L519.065003,5.46014892 L519.065003,5.46014892 L515.168128,25.3296763 L515.168128,25.3296763 L508.688259,24.1425916 C507.590624,23.9415094 506.622232,24.6767039 506.525158,25.7862696 L506.583233,25.122467 C506.48622,26.2313275 507.292059,27.3160965 508.380628,27.5448418 L515.470729,29.0347126 C516.560416,29.2636927 517.760602,28.5998688 518.149088,27.5582698 L518.180755,27.4733656 C518.254106,27.2766994 518.273588,27.079672 518.245711,26.8909323 C518.252189,26.8637906 518.258125,26.8364943 518.263507,26.8090546 L523.120538,2.04384525 C523.184094,1.71978803 523.164417,1.41119172 523.076128,1.13648693 C522.998779,0.839525729 522.837489,0.553410136 522.590213,0.306134347 L523.061385,0.777306677 C522.934432,0.650353264 522.792583,0.541417772 522.640205,0.450808971 C522.350755,0.183095505 521.955235,0.0161284059 521.493378,0 L522.15931,0.0232548713 C521.916028,0.0147592618 521.674463,0.0492201927 521.44328,0.119580255 C520.938358,0.112709669 520.431601,0.259591713 520.023093,0.567303461 L492.845844,21.0387878 C492.635134,21.1975063 492.469522,21.3847789 492.349881,21.5886401 C492.088088,21.8471491 491.899907,22.1909768 491.825329,22.5949292 L491.894855,22.2183361 C491.69332,23.3099677 492.404432,24.4058328 493.493301,24.6684636 L500.246528,26.2973134 L501.161035,30.3557189 C501.386415,31.3559077 502.379987,32.0382922 503.400364,31.8766804 L503.405633,31.875846 C503.449877,32.1551925 503.405633,31.875846 503.405633,31.875846 C504.226662,31.7458078 504.711539,30.83849 504.484152,29.8293889 L503.342286,24.7620115 C503.311869,24.6270284 503.267268,24.4978642 503.21037,24.375802 L503.21037,24.375802 Z" id="send" sketch:type="MSShapeGroup"></path>
            </g>
        </g>
    </g>
</svg>