<?xml version="1.0" encoding="UTF-8" standalone="no"?>
<svg width="37px" height="36px" viewBox="0 0 37 36" version="1.1" xmlns="http://www.w3.org/2000/svg" xmlns:xlink="http://www.w3.org/1999/xlink" xmlns:sketch="http://www.bohemiancoding.com/sketch/ns">
    <!-- Generator: Sketch 3.1.1 (8761) - http://www.bohemiancoding.com/sketch -->
    <title>settings</title>
    <desc>Created with Sketch.</desc>
    <defs></defs>
    <g id="menu+feed+search" stroke="none" stroke-width="1" fill="none" fill-rule="evenodd" sketch:type="MSPage">
        <g id="menu(logged)" sketch:type="MSArtboardGroup" transform="translate(-45.000000, -709.000000)" fill="#979797">
            <g id="menu" sketch:type="MSLayerGroup" transform="translate(0.000000, 212.000000)">
                <path d="M62.7294931,500.608992 L62.7294931,498.000419 C62.7294931,497.455173 63.1772083,497 63.7294931,497 C64.2856283,497 64.7294931,497.447903 64.7294931,498.000419 L64.7294931,500.675537 C66.5943739,500.866238 68.3539846,501.411992 69.9394639,502.244015 L71.363258,499.777931 C71.6358812,499.305734 72.2512005,499.1354 72.7294931,499.411543 C73.2111203,499.68961 73.371567,500.299438 73.0953088,500.777931 L71.6423454,503.294538 C73.0977069,504.338193 74.3504464,505.645937 75.3302891,507.147577 L77.9515617,505.634184 C78.423759,505.361561 79.041808,505.521707 79.3179504,506 C79.5960179,506.481627 79.4300549,507.089977 78.9515617,507.366235 L76.3042442,508.894665 C77.0402509,510.462794 77.5015223,512.185185 77.6261491,514 L80.7290736,514 C81.2743201,514 81.7294931,514.447715 81.7294931,515 C81.7294931,515.556135 81.28159,516 80.7290736,516 L77.6261491,516 C77.5015223,517.814815 77.0402509,519.537206 76.3042442,521.105335 L78.9515617,522.633765 C79.423759,522.906388 79.5940927,523.521707 79.3179504,524 C79.0398828,524.481627 78.4300549,524.642074 77.9515617,524.365816 L75.3302891,522.852423 C74.3504464,524.354063 73.0977069,525.661807 71.6423454,526.705462 L73.0953088,529.222069 C73.367932,529.694266 73.2077857,530.312315 72.7294931,530.588457 C72.2478659,530.866525 71.6395162,530.700562 71.363258,530.222069 L69.9394639,527.755985 C68.3539846,528.588008 66.5943739,529.133762 64.7294931,529.324463 L64.7294931,531.999581 C64.7294931,532.544827 64.2817778,533 63.7294931,533 C63.1733579,533 62.7294931,532.552097 62.7294931,531.999581 L62.7294931,529.391008 C60.8013351,529.323481 58.969486,528.877741 57.3060208,528.12578 L56.0957282,530.222069 C55.823105,530.694266 55.2077857,530.8646 54.7294931,530.588457 C54.2478659,530.31039 54.0874192,529.700562 54.3636774,529.222069 L55.5445712,527.1767 C53.9269049,526.154078 52.5270603,524.818712 51.4302204,523.255689 L49.5074245,524.365816 C49.0352272,524.638439 48.4171782,524.478293 48.1410358,524 C47.8629682,523.518373 48.0289312,522.910023 48.5074245,522.633765 L50.3976154,521.542463 C49.5367986,519.859498 48.9977248,517.985037 48.8614085,516 L46.7299125,516 C46.1846661,516 45.7294931,515.552285 45.7294931,515 C45.7294931,514.443865 46.1773961,514 46.7299125,514 L48.8614085,514 C48.9977248,512.014963 49.5367986,510.140502 50.3976154,508.457537 L48.5074245,507.366235 C48.0352272,507.093612 47.8648934,506.478293 48.1410358,506 C48.4191034,505.518373 49.0289312,505.357926 49.5074245,505.634184 L51.4302204,506.744311 C52.5270603,505.181288 53.9269049,503.845922 55.5445712,502.8233 L54.3636774,500.777931 C54.0910542,500.305734 54.2512005,499.687685 54.7294931,499.411543 C55.2111203,499.133475 55.81947,499.299438 56.0957282,499.777931 L57.3060208,501.87422 C58.969486,501.122259 60.8013351,500.676519 62.7294931,500.608992 L62.7294931,500.608992 Z M63.2437788,527.342857 C70.0605506,527.342857 75.5866359,521.816772 75.5866359,515 C75.5866359,508.183228 70.0605506,502.657143 63.2437788,502.657143 C56.427007,502.657143 50.9009217,508.183228 50.9009217,515 C50.9009217,521.816772 56.427007,527.342857 63.2437788,527.342857 Z M63,521 C66.3137085,521 69,518.313708 69,515 C69,511.686292 66.3137085,509 63,509 C59.6862915,509 57,511.686292 57,515 C57,518.313708 59.6862915,521 63,521 Z M63,519 C65.209139,519 67,517.209139 67,515 C67,512.790861 65.209139,511 63,511 C60.790861,511 59,512.790861 59,515 C59,517.209139 60.790861,519 63,519 Z" id="settings" sketch:type="MSShapeGroup"></path>
            </g>
        </g>
    </g>
</svg>