<?xml version="1.0" encoding="utf-8"?>
<!-- Generator: Adobe Illustrator 17.0.0, SVG Export Plug-In . SVG Version: 6.00 Build 0)  -->
<!DOCTYPE svg PUBLIC "-//W3C//DTD SVG 1.1//EN" "http://www.w3.org/Graphics/SVG/1.1/DTD/svg11.dtd">
<svg version="1.1" id="Layer_1" xmlns="http://www.w3.org/2000/svg" xmlns:xlink="http://www.w3.org/1999/xlink" x="0px" y="0px"
	 width="278px" height="278px" viewBox="0 0 278 278" enable-background="new 0 0 278 278" xml:space="preserve">
<path fill="#A6A6A6" d="M140.798,167.356c-49.233,0-89.145-16.832-89.145-37.595c0-3.352,1.046-6.601,2.998-9.693
	c-1.134-1.364-2.16-2.867-3.063-4.526C41.57,97.15,49.974,69.246,73.343,46.775L66.02,34.323c-1.98-3.367-0.805-7.673,2.625-9.617
	l41.921-23.762c3.43-1.944,7.815-0.79,9.795,2.577l7.521,12.788c36.09-9.994,71.36-3.484,82.036,16.119
	c10.687,19.62-7.667,42.135-37.909,62.122c2.514,0.396,4.986,0.828,7.386,1.314h1.579v0.34
	c29.043,6.197,48.967,18.892,48.967,33.558C229.942,150.525,190.031,167.356,140.798,167.356z M106.27,156.482
	c4.187,0.896,8.601,1.625,13.183,2.189v-36.933c-4.52,1.727-8.924,3.222-13.183,4.461C106.27,126.199,106.27,156.482,106.27,156.482
	z M86.809,150.552c3.983,1.672,8.412,3.154,13.183,4.427v-27.114c-4.609,1.096-9.017,1.852-13.183,2.235V150.552z M64.209,127.604
	c0,7.532,6.107,14.457,16.322,19.955v-17.17c-6.14-0.022-11.626-1.018-16.306-3.115C64.223,127.384,64.209,127.494,64.209,127.604z
	 M118.615,8.471c-1.707-2.903-5.475-3.905-8.414-2.239L74.268,26.599c-2.939,1.667-3.938,5.371-2.231,8.273l5.003,8.508
	c6.944-6.104,15.035-11.729,24.208-16.543c7.402-3.886,15.031-6.994,22.663-9.363L118.615,8.471z M138.286,113.553
	c-4.252,2.053-8.445,3.95-12.556,5.672v40.094c4.078,0.346,8.272,0.553,12.556,0.615V113.553z M157.119,103.661
	c-3.066,1.745-6.208,3.462-9.417,5.146c-1.049,0.551-2.095,1.09-3.138,1.624v49.489c4.29-0.087,8.479-0.333,12.555-0.707V103.661z
	 M174.698,98.584c-2.261-0.473-4.591-0.893-6.97-1.271c-1.422,0.896-2.864,1.788-4.33,2.672v58.537
	c3.909-0.509,7.685-1.147,11.3-1.902V98.584z M192.903,103.903c-3.662-1.437-7.653-2.727-11.928-3.842v55.082
	c4.275-1.115,8.266-2.404,11.928-3.841V103.903z M199.18,106.671v41.864c11.353-5.64,18.206-12.945,18.206-20.931
	C217.386,119.619,210.534,112.312,199.18,106.671z M140.798,177.834c48.261,0,87.539-16.177,89.071-36.373
	c0.462,1.564,0.701,3.599,0.701,6.174c0,17.438-11.449,33.113-29.66,43.941l6.432,68.225l-10.229-0.27l-12.743-60.159
	c-12.904,4.73-27.759,7.429-43.571,7.429c-10.383,0-20.351-1.166-29.627-3.303L95.6,277.677L83.435,278l7.58-81.126
	c-2.028-0.893-3.992-1.842-5.898-2.837l-8.399,39.682l-7.485,0.197l4.429-47.017c-14.077-10.446-22.635-24.194-22.635-39.265
	c0-2.478,0.244-4.452,0.711-5.992C53.491,161.754,92.681,177.834,140.798,177.834z"/>
</svg>
