<?xml version="1.0" encoding="utf-8"?>
<!-- Generator: Adobe Illustrator 17.0.0, SVG Export Plug-In . SVG Version: 6.00 Build 0)  -->
<!DOCTYPE svg PUBLIC "-//W3C//DTD SVG 1.1//EN" "http://www.w3.org/Graphics/SVG/1.1/DTD/svg11.dtd">
<svg version="1.1" id="Layer_1" xmlns="http://www.w3.org/2000/svg" xmlns:xlink="http://www.w3.org/1999/xlink" x="0px" y="0px"
	 width="275px" height="275px" viewBox="0 0 275 275" enable-background="new 0 0 275 275" xml:space="preserve">
<path fill="#A6A6A6" d="M269.642,137.501l-1.736-6.97l-6.944,8.712l5.208,5.227c0,0-0.231,4.799-5.208,1.743
	c-4.977-3.056-12.152,1.743-12.152,1.743s5.964,6.734-1.736,15.682c-5.774,6.709-7.137,0.014-11.592-4.188l-7.503,9.415
	l-28.121,39.513c11.644-5.624,18.629-19.673,21.176-23.832c3.106-5.071,14.862-16.484,13.889-19.167
	c2.828,7.797,23.879,13.037,20.833-15.682c-0.543-5.118,6.944,13.267,6.944,16.553c0,7.867-4.238,15.302-11.751,21.912
	c1.998,2.492,3.071,5.846,3.071,10.323c0,29.832-47.801,54.015-106.767,54.015c-58.965,0-106.766-24.184-106.766-54.015
	c0-4.98,1.379-8.569,3.917-11.125c-6.956-6.408-10.861-13.56-10.861-21.11c0-2.354-0.732-2.089,0-4.356
	c-0.273,0.846,29.021-1.753,50.345-1.742c8.535,0.004-10.268,11.19,0,12.197c13.301,1.304,38.692-6.686,53.817-3.485
	c15.085,3.193,36.431,37.973,50.93,41.54c-6.786-9.84-20.987-27.777-42.25-41.54c-4.048-2.621-9.294-4.692-15.316-6.334
	c-22.54,3.918-47.685,8.925-43.708,2.849c2.245-3.431,3.935-6.032,5.148-8.011c-13.343-0.61-27.002-0.419-39.023,0.08
	c-0.553,0.59-0.846,0.961-0.846,0.961l-3.125-0.784c-19.227,0.926-33.331,2.526-33.331,2.526l21.295-33.247
	c-0.518-0.491-1.219-1.012-2.198-1.601c-6.124-3.683,0.525,7.361-10.417,12.197c-10.941,4.836-10.416-5.228-10.416-5.228
	s11.03-3.512-6.944-8.712c-17.975-5.2,2.671-7.612,1.736-13.939c-0.936-6.327,8.707-21.427,31.249-17.425
	c2.333,0.415,4.256,0.7,5.865,0.889c5.877-39.691,51.519-70.584,106.973-70.584c59.445,0,107.634,35.495,107.634,79.28
	c0,3.026-0.25,5.87-0.715,8.56l2.452-2.461c0,0,14.828,0.619,8.68,5.228c-6.147,4.607,4.022,11.632,3.473,15.682
	C274.3,132.839,269.642,137.501,269.642,137.501z M40.567,137.523l-12.235,13.917c0,0,5.333-0.441,13.836-0.901
	c1.682-1.449,3.997-2.678,6.997-2.583C22.522,147.121,57.16,141.602,40.567,137.523z M225.268,156.902
	c-0.887,0.363-1.092,0.942-1.166,1.451L225.268,156.902z M148.119,215.91c-40.854,0-76.69-9.274-96.977-23.223
	c-0.151,0.971-0.241,2.002-0.241,3.125c0,26.497,41.972,47.977,93.746,47.977c51.101,0,92.622-20.928,93.696-46.948
	c-10.729,5.935-24.513,10.777-40.312,14.102l-4.775,6.709c0,0-1.091-1.96-3.235-5.193
	C177.039,214.674,162.919,215.91,148.119,215.91z M152.362,160.381c26.537,17.041,40.277,41.589,40.277,41.589l29.834-41.589
	l0.851-1.06c-0.433-0.071-1.128-0.339-2.292-0.912c-6.421-3.161-1.973-2.709-8.68,1.742c-6.707,4.452,0.044,11.309-13.888,13.94
	c-13.932,2.63-28.16-5.864-34.721-13.94c-1.162-1.431-6.083-1.405-12.891-0.643C151.367,159.796,151.892,160.079,152.362,160.381z
	 M67.085,149.629c0.144-1.127,1.652-1.676-2.242,0.044C65.583,149.658,66.333,149.643,67.085,149.629z M153.327,25.986
	c-53.692,0-97.218,32.182-97.218,71.88c0,13.957,5.203,23.848,14.262,30.823c13.851,6.206,35.443,12.188,60.059,15.318
	c6.841,0.326,13.97,0.463,21.33,0.463c53.692,0,98.786-6.905,98.786-46.604S207.019,25.986,153.327,25.986z M208.013,55.607
	c-1.438,0-2.604-1.561-2.604-3.485c0-1.925,1.166-3.485,2.604-3.485s2.604,1.561,2.604,3.485
	C210.617,54.047,209.451,55.607,208.013,55.607z M199.332,95.683c-3.356,0-6.076-0.781-6.076-1.743s2.72-1.743,6.076-1.743
	s6.076,0.781,6.076,1.743S202.688,95.683,199.332,95.683z M198.634,76.368c-3.072-1.356-5.25-3.168-4.864-4.05
	c0.387-0.881,3.189-0.496,6.262,0.859c3.071,1.355,5.249,3.168,4.864,4.05C204.509,78.109,201.706,77.725,198.634,76.368z
	 M185.444,48.637c-1.438,0-2.604-0.78-2.604-1.742c0-0.962,1.166-1.742,2.604-1.742s2.604,0.78,2.604,1.742
	C188.048,47.857,186.882,48.637,185.444,48.637z M186.312,57.35c0,1.925-1.943,3.485-4.34,3.485s-4.34-1.56-4.34-3.485
	c0-1.924,1.943-3.485,4.34-3.485S186.312,55.425,186.312,57.35z M163.317,82.78c-1.724,0.844-4.484-1.275-6.166-4.735
	c-1.683-3.459-1.649-6.948,0.074-7.792c1.724-0.844,4.484,1.276,6.167,4.735S165.041,81.935,163.317,82.78z M162.007,56.479
	c0,1.443-1.166,2.613-2.604,2.613s-2.604-1.17-2.604-2.613s1.166-2.614,2.604-2.614S162.007,55.035,162.007,56.479z M158.535,43.41
	c-2.876,0-5.208-0.78-5.208-1.742s2.332-1.743,5.208-1.743s5.208,0.78,5.208,1.743S161.412,43.41,158.535,43.41z M185.143,80.395
	c0.904,0.319,0.607,3.522-0.665,7.154s-3.036,6.316-3.94,5.998c-0.904-0.319-0.606-3.521,0.665-7.153S184.238,80.076,185.143,80.395
	z M144.647,107.88c-0.958,0-1.736-2.34-1.736-5.227s0.777-5.228,1.736-5.228s1.736,2.34,1.736,5.228
	C146.383,105.54,145.606,107.88,144.647,107.88z M141.175,73.031c-0.959,0-1.736-0.39-1.736-0.871c0-0.481,0.777-0.871,1.736-0.871
	c0.958,0,1.736,0.39,1.736,0.871C142.911,72.642,142.134,73.031,141.175,73.031z M137.703,48.637c-1.918,0-3.472-1.95-3.472-4.356
	s1.554-4.356,3.472-4.356c1.917,0,3.472,1.95,3.472,4.356C141.175,46.688,139.621,48.637,137.703,48.637z M120.94,67.788
	c-1.434-1.278-0.533-4.647,2.013-7.526c2.547-2.878,5.773-4.176,7.208-2.898c1.434,1.278,0.532,4.647-2.014,7.526
	C125.601,67.769,122.374,69.067,120.94,67.788z M102.982,106.137c-2.876,0-5.208-1.17-5.208-2.613c0-1.444,2.332-2.614,5.208-2.614
	s5.208,1.17,5.208,2.614C108.19,104.967,105.858,106.137,102.982,106.137z M102.114,88.713c-1.438,0-2.604-0.78-2.604-1.743
	s1.167-1.743,2.604-1.743c1.438,0,2.604,0.78,2.604,1.743C104.718,87.933,103.552,88.713,102.114,88.713z M89.962,66.062
	c-2.397,0-4.34-1.17-4.34-2.613c0-1.444,1.943-2.614,4.34-2.614c2.397,0,4.34,1.17,4.34,2.614
	C94.302,64.892,92.359,66.062,89.962,66.062z M124.683,83.486c1.438,0,2.604,1.561,2.604,3.485c0,1.925-1.166,3.485-2.604,3.485
	s-2.604-1.56-2.604-3.485C122.079,85.046,123.244,83.486,124.683,83.486z"/>
</svg>
