<?xml version="1.0" encoding="utf-8"?>
<!-- Generator: Adobe Illustrator 17.0.0, SVG Export Plug-In . SVG Version: 6.00 Build 0)  -->
<!DOCTYPE svg PUBLIC "-//W3C//DTD SVG 1.1//EN" "http://www.w3.org/Graphics/SVG/1.1/DTD/svg11.dtd">
<svg version="1.1" id="Layer_1" xmlns="http://www.w3.org/2000/svg" xmlns:xlink="http://www.w3.org/1999/xlink" x="0px" y="0px"
	 width="280px" height="280px" viewBox="0 0 280 280" enable-background="new 0 0 280 280" xml:space="preserve">
<path fill="#A6A6A6" d="M231.367,172l-31.905-32l29.366-29.454c3.501,3.756,7.056,8.066,9.713,12.483
	c7.603,12.637,5.64,13.2,5.64,13.2L260,143.28L231.367,172z M195.474,136l-31.904-32l31.904-32l21.024,21.087
	c0.025,6.024-0.517,5.429-0.517,5.429s3.997,3.182,8.903,7.986L195.474,136z M213.516,53.904c1.019,8.393,2.002,17.759,2.465,25.756
	c0.112,1.936,0.197,3.618,0.269,5.178L199.462,68L213.516,53.904z M195.474,64L163.57,32l31.904-32l15.894,15.941
	c0.358,1.996,0.854,3.379,0.854,3.379l-1.88,11.313c0,0,1.058,6.835,2.279,16.168L195.474,64z M159.582,100l-31.905-32l31.905-32
	l31.904,32L159.582,100z M123.689,136l-31.904-32l31.904-32l31.905,32L123.689,136z M87.796,172l-31.904-32l31.904-32l31.905,32
	L87.796,172z M51.904,208L20,176l31.904-32l31.904,32L51.904,208z M119.701,212l-31.905,32l-31.904-32l31.904-32L119.701,212z
	 M155.594,248l-31.905,32l-31.904-32l31.904-32L155.594,248z M159.582,180l31.904,32l-31.904,32l-31.905-32L159.582,180z
	 M91.785,176l31.904-32l31.905,32l-31.905,32L91.785,176z M191.486,140l-31.904,32l-31.905-32l31.905-32L191.486,140z M195.474,144
	l31.904,32l-31.904,32l-31.904-32L195.474,144z"/>
</svg>
