<?xml version="1.0" encoding="utf-8"?>
<!-- Generator: Adobe Illustrator 17.0.0, SVG Export Plug-In . SVG Version: 6.00 Build 0)  -->
<!DOCTYPE svg PUBLIC "-//W3C//DTD SVG 1.1//EN" "http://www.w3.org/Graphics/SVG/1.1/DTD/svg11.dtd">
<svg version="1.1" id="Layer_1" xmlns="http://www.w3.org/2000/svg" xmlns:xlink="http://www.w3.org/1999/xlink" x="0px" y="0px"
	 width="276px" height="276px" viewBox="0 0 276 276" enable-background="new 0 0 276 276" xml:space="preserve">
<path fill="#A6A6A6" d="M223.202,164.987c-0.418,2.237-8.918,46.218-33.022,56.343l-19.098-28.042
	c-34.735,11.001-63.825,7.749-63.825,7.749s-0.633,26.314-2.592,39.317c-1.958,13.002-10.366,33.609-10.366,33.609l-31.744-60.244
	L0.363,181.378c0,0,40.496-19.074,72.559-10.78c0.046,0.012,0.064,0.017,0.106,0.027c0.154,0.04,0.439,0.114,0.622,0.161
	c0.209,0.054,0.166,0.043,0,0c-0.115-0.03-0.307-0.08-0.622-0.161c-0.062-0.016-0.106-0.027-0.106-0.027S70.6,131.765,88.189,92.313
	c-5.434,5.965-9.715,11.36-13.971,21.212L48.303,81.818c0,0,31.71-26.976,54.418-37.414c18.027-8.287,30.505-10.034,33.032-9.763
	c0.008-0.005,0.016-0.011,0.024-0.017c0.215,4.201,3.039,44.156,33.672,68.12c32.361,25.316,57.01,25.366,57.01,25.366
	s-62.468-21.235-75.797-70.39c-4.031-14.865-4.371-23.473-4.535-28.536c54.79-45.221,126.329-20.293,126.329-20.293
	S294.363,105.322,223.202,164.987z M239.357,60.56c0.547-1.999-4.99-5.24-12.88-7.75c1.67-7.866,1.55-14.082-0.483-14.614
	c-2.037-0.534-5.324,4.81-7.897,12.462c-7.77-1.533-13.858-1.388-14.389,0.551c-0.53,1.938,4.667,5.044,12.179,7.52
	c-1.68,7.887-1.563,14.124,0.474,14.658c2.033,0.534,5.312-4.791,7.883-12.42C232.359,62.656,238.809,62.559,239.357,60.56z"/>
</svg>
