<?xml version="1.0" encoding="utf-8"?>
<!-- Generator: Adobe Illustrator 17.0.0, SVG Export Plug-In . SVG Version: 6.00 Build 0)  -->
<!DOCTYPE svg PUBLIC "-//W3C//DTD SVG 1.1//EN" "http://www.w3.org/Graphics/SVG/1.1/DTD/svg11.dtd">
<svg version="1.1" id="Layer_1" xmlns="http://www.w3.org/2000/svg" xmlns:xlink="http://www.w3.org/1999/xlink" x="0px" y="0px"
	 width="278px" height="278px" viewBox="0 0 278 278" enable-background="new 0 0 278 278" xml:space="preserve">
<path fill="#A6A6A6" d="M264.578,124.282c0,0,3.694,4.11,1.475,10.558c-2.22,6.447-11.062,16.538-19.66,16.591
	c-8.598,0.053-6.689,11.811-13.762,16.591c-3.23,2.183-10.074,4.105-16.931,3.803c-1.179,4.193-6.937,24.303-11.084,32.395
	c-4.643,9.055,1.87,30.283,1.475,33.181c-0.396,2.899-0.411,20.008-16.711,18.1c-16.3-1.909-27.517-0.307-31.948-12.569
	c-0.173-0.479-0.303-0.942-0.414-1.396c3.543-2.989,6.838-6.2,9.822-9.622c-3.453,11.559-4.422,21.575,26.963,16.549
	c21.021-3.366-2.394-35.228,7.373-49.27c9.766-14.042,10.321-27.651,10.321-27.651l0.68-0.077c-2.404-0.402-4.725-1.138-6.813-2.28
	c-2.551,5.214-5.899,11.688-7.137,12.412c-2.106,1.231-5.582,3.633-8.356-9.552c-2.178-10.354,3.61-18.705,6.196-21.815
	c-0.064-0.86-0.096-1.653-0.096-2.376l-2.646-2.214l-6.403,5.793c0,0-2.69,6.39-6.363,9.651
	c-10.803-35.03-42.817-60.429-80.632-60.429c-2.996,0-6.023,0.13-9.068,0.383c0.034-5.371,1.17-11.329,5.135-15.465
	c8.997-9.386,11.431-6.245,17.203-4.022c5.771,2.223,2.513-2.371,12.779-3.017c10.265-0.646,17.932,2.889,23.1,8.043
	c5.169,5.155-7.896-10.887-20.643-12.568c-12.746-1.681-14.745-12.569-14.745-12.569s-1.992-11.664,7.373-16.088
	c9.366-4.425-2.371-21.786,29.49-18.099c31.861,3.686,30.964-8.547,30.964-8.547s19.09-12.154,36.371,0.503
	c17.282,12.657,3.441,27.651,3.441,27.651s16.364-4.77,27.524,11.563c11.16,16.333-2.458,21.116-2.458,21.116
	s-16.175-4.34-23.592,5.53c-7.417,9.871-8.847,15.082-8.847,15.082s8.818-15.728,17.203-16.087
	c8.384-0.36,15.524-3.969,27.523,3.017c12,6.985,21.471,19.639,18.677,24.634C274.563,116.709,264.578,124.282,264.578,124.282z
	 M179.548,187.017c0,46.032-50.785,77.533-95.868,77.533c-45.084,0-83.53-38.77-83.53-84.802s52.684-76.079,97.767-76.079
	C143.001,103.669,179.548,140.985,179.548,187.017z M7.031,174.557c0,42.004,39.007,85.468,80.138,85.468
	s87.464-28.745,87.464-70.749s-33.343-76.055-74.474-76.055S7.031,132.553,7.031,174.557z M131.381,226.341
	c1.557-3.845-23.592-24.132-23.592-24.132l-0.983-4.525c0,0,11.544,11.981,33.914,19.607c10.761,3.668,8.355,7.038,8.355,7.038
	s-10.242,18.854-29.981,21.116c-19.739,2.263-26.049,2.514-26.049,2.514l1.474-43.237l2.949-1.005c0,0,0.332,30.591,2.458,31.673
	C102.05,236.472,129.824,230.186,131.381,226.341z M53.233,142.884c-9.206,0.912-21.682,23.001-21.134,26.143
	c0.547,3.143,50.624,18.602,50.624,18.602l-1.966,3.519c0,0-62.183-18.52-61.438-21.115c0.744-2.597,1.441-16.339,9.83-26.646
	c8.388-10.307,33.422-13.072,33.422-13.072l28.507,51.281h-4.916C86.163,181.595,62.439,141.972,53.233,142.884z M78.79,200.7
	l-31.456,0.503c0,0-1.895,9.155,1.966,14.58c3.861,5.424,21.134,15.083,21.134,15.083l14.745-24.132l3.44-1.005l-11.796,35.695
	c0,0-33.787-8.684-36.862-17.596s-11.796-29.16-11.796-29.16l50.133,2.514L78.79,200.7z M105.823,184.109l31.456-16.088
	c0,0-0.727-11.115-10.812-15.082c-10.085-3.968-14.746-4.023-14.746-4.023l-6.881,25.138l-3.439-0.503l2.457-40.22
	c0,0,21.164-0.512,30.965,7.541c9.801,8.054,18.677,29.16,18.677,29.16l-44.235,18.602L105.823,184.109z"/>
</svg>
