<?xml version="1.0" encoding="utf-8"?>
<!-- Generator: Adobe Illustrator 17.0.0, SVG Export Plug-In . SVG Version: 6.00 Build 0)  -->
<!DOCTYPE svg PUBLIC "-//W3C//DTD SVG 1.1//EN" "http://www.w3.org/Graphics/SVG/1.1/DTD/svg11.dtd">
<svg version="1.1" id="Layer_1" xmlns="http://www.w3.org/2000/svg" xmlns:xlink="http://www.w3.org/1999/xlink" x="0px" y="0px"
	 width="280px" height="280px" viewBox="0 0 280 280" enable-background="new 0 0 280 280" xml:space="preserve">
<path fill="#A6A6A6" d="M181.001,209.999L140,280l-41.001-70.001H17L58,140L17,70.001h82L140,0l41.001,70.001H263L222.001,140
	L263,209.999H181.001z M140,249.067l22.927-39.069h-45.854L140,249.067z M171.684,195.077L204.005,140l-32.321-55.077h-63.367
	L75.996,140l32.321,55.077H171.684z M43.675,195.077h46.584l-23.27-39.729L43.675,195.077z M43.675,84.923l23.314,39.729
	l23.27-39.729C90.259,84.923,43.675,84.923,43.675,84.923z M140,30.933l-22.927,39.069h45.854L140,30.933z M236.325,84.923h-46.583
	l23.27,39.729L236.325,84.923z M189.742,195.077h46.583l-23.314-39.729L189.742,195.077z"/>
</svg>
