<?xml version="1.0" encoding="utf-8"?>
<!-- Generator: Adobe Illustrator 17.0.0, SVG Export Plug-In . SVG Version: 6.00 Build 0)  -->
<!DOCTYPE svg PUBLIC "-//W3C//DTD SVG 1.1//EN" "http://www.w3.org/Graphics/SVG/1.1/DTD/svg11.dtd">
<svg version="1.1" id="Layer_1" xmlns="http://www.w3.org/2000/svg" xmlns:xlink="http://www.w3.org/1999/xlink" x="0px" y="0px"
	 width="276px" height="276px" viewBox="0 0 276 276" enable-background="new 0 0 276 276" xml:space="preserve">
<path fill="#A6A6A6" d="M259.703,144.504c-2.004-0.611-4.402-1.197-7.228-1.639c-9.921-1.548-19.65,5.564-19.65,5.564
	s-6.25-1.211-14.737,0.696c-8.488,1.908-10.527,12.52-10.527,12.52s-10.36-0.25-17.545,4.173
	c-7.186,4.423-8.421,18.083-8.421,18.083l-0.17,0.175c-21.755,0.768-39.981,2.737-51.763,2.607
	c-12.813-0.141-22.18,4.54-38.598,4.869c-16.418,0.329-15.251-4.798-11.931-9.738c3.32-4.939,2.105-13.214,2.105-13.214
	s-7.892-6.972-4.21-14.606s9.926-12.069,14.036-13.911c4.109-1.842,28.033-17.421,34.387-25.039
	c6.355-7.619,27.592-46.587,54.039-52.165s44.506-10.903,63.161,1.391s35.866,47.076,32.985,59.815
	C273.905,131.736,268.112,138.022,259.703,144.504z M194.928,69.14c-11.341-0.924-19.749,7.292-29.475,12.52
	c-9.726,5.228-21.755,27.821-21.755,27.821s14.463-11.65,17.544-18.084c3.082-6.433,24.007-13.729,38.599-15.997
	C214.434,73.131,206.27,70.064,194.928,69.14z M77.027,174.165c-0.206,5.281-4.321,6.988-5.614,10.433c-1.294,3.445,0,6.956,0,6.956
	s-9.321,3.641-18.247,6.955c-8.926,3.315-20.289,14.09-28.773,18.78c-8.485,4.689-14.738-0.696-14.738-0.696
	c0.702-3.119-0.896-20.458-7.018-25.039s0.189-8.566,2.807-20.17c2.618-11.604,13.383-9.096,18.949-8.346
	c5.565,0.75,9.938,3.736,21.755,2.782c11.818-0.955,28.774-11.825,28.774-11.825s0.206,0.579-1.404,4.869
	C71.908,163.154,77.234,168.883,77.027,174.165z"/>
</svg>
