<?xml version="1.0" encoding="utf-8"?>
<!-- Generator: Adobe Illustrator 17.0.0, SVG Export Plug-In . SVG Version: 6.00 Build 0)  -->
<!DOCTYPE svg PUBLIC "-//W3C//DTD SVG 1.1//EN" "http://www.w3.org/Graphics/SVG/1.1/DTD/svg11.dtd">
<svg version="1.1" id="Layer_1" xmlns="http://www.w3.org/2000/svg" xmlns:xlink="http://www.w3.org/1999/xlink" x="0px" y="0px"
	 width="278px" height="278px" viewBox="0 0 278 278" enable-background="new 0 0 278 278" xml:space="preserve">
<path fill="#A6A6A6" d="M139,227.789c-76.768,0-139-50.833-139-113.539c0-0.269,0.109-0.53,0.28-0.787
	C0.112,112.944,0,112.422,0,111.896c0-12.518,48.215-22.947,112.11-25.268c-3.395-9.082-7.669-17.762-7.669-17.762
	s23.174-0.156,41.699,5.505c8.207,2.508,11.588,7.384,12.819,12.039c4.714,0.126,9.352,0.294,13.901,0.505
	c2.734-2.201,5.824-4.148,9.42-5.662c31.226-13.147,48.981-23.225,52.82-30.278c3.366-6.186,7.893,26.7,6.509,43.55
	C264.208,99.105,278,105.201,278,111.896c0,0.572-0.137,1.136-0.334,1.699c0.199,0.215,0.334,0.432,0.334,0.655
	C278,176.955,215.767,227.789,139,227.789z M115.56,97.768c-0.404-1.872-0.989-3.923-1.668-6.031
	C54.833,93.84,10.296,103.218,10.296,114.471c0,9.202,29.778,17.152,72.927,20.895c-7.54-5.685-14.354-13.746-17.702-18.329
	c-5.433-7.438-16.68-11.011-16.68-11.011s6.269-5.782,33.36-11.01c25.616-4.943,33.853,9.297,34.675,10.864
	C116.453,102.823,116.048,100.026,115.56,97.768z M118.34,128.047c0,0-2.188-10.051-12.51-12.387s-27.8-1.376-27.8-1.376
	s9.47,1.372,17.504,3.05c1.674,0.35,3.285,0.712,4.736,1.079c1.568,0.396,3.131,1.171,4.637,2.169
	c6.571,4.356,12.043,12.97,12.043,12.97h5.56L118.34,128.047z M146.14,125.294c-3.668-2.788-5.476-9.862-5.56-13.763
	c-0.062-2.832-2.958-10.239-4.543-14.095c-0.525-1.478-1.017-2.42-1.017-2.42s0.418,0.966,1.017,2.42
	c0.965,2.721,2.041,7.288,0.373,11.343c-1.739,4.229,2.681,13.427,5.73,18.947c1.463,2.648,2.61,4.45,2.61,4.45
	S149.808,128.082,146.14,125.294z M159.572,91.591c-0.042,3.548-0.922,6.177-0.922,6.177l1.683,5.83
	c1.838-4.121,4.268-8.119,7.381-11.72C165.029,91.769,162.318,91.67,159.572,91.591z M199.631,94.024
	c-8.641,4.917-21.154,9.946-25.691,16.131c-5.07,6.913-11.403,24.417-12.37,27.132c1.89-0.061,3.766-0.127,5.627-0.202
	c1.158-3.313,7.515-20.755,15.083-26.93c4.666-3.807,13.455-11.196,18.979-15.971C200.718,94.13,200.177,94.076,199.631,94.024z
	 M240.718,100.278c-0.021,0.078-0.038,0.168-0.059,0.243c-2.917,10.333-16.812,26.614-34.856,33.766
	c37.113-4.067,61.9-11.42,61.9-19.815C267.704,109.122,257.617,104.201,240.718,100.278z"/>
</svg>
