<?xml version="1.0" encoding="utf-8"?>
<!-- Generator: Adobe Illustrator 17.0.0, SVG Export Plug-In . SVG Version: 6.00 Build 0)  -->
<!DOCTYPE svg PUBLIC "-//W3C//DTD SVG 1.1//EN" "http://www.w3.org/Graphics/SVG/1.1/DTD/svg11.dtd">
<svg version="1.1" id="Layer_1" xmlns="http://www.w3.org/2000/svg" xmlns:xlink="http://www.w3.org/1999/xlink" x="0px" y="0px"
	 width="277px" height="277px" viewBox="0 0 277 277" enable-background="new 0 0 277 277" xml:space="preserve">
<path fill="#A6A6A6" d="M199.59,170.812c-60.34,30.667-92.481,79.917-92.481,79.917l-0.055-0.233
	c4.057-17.16,22.088-84.582,58.213-100.368c41.485-18.128,63.879-57.353,63.879-57.353s-2.622,3.001-21.929,22.565
	s-51.641,25.786-73.413,51.711c-17.923,21.342-25.073,66.794-27.041,82.201l-2.515-10.745c0,0,0.134-92.963,27.648-122.227
	c27.516-29.264,126.417-57.848,141.106-89.319C287.693-4.51,259.931,140.146,199.59,170.812z M106.156,254.49
	c0,0,0.185-1.93,0.607-5.238l0.291,1.244C106.453,253.042,106.156,254.49,106.156,254.49z M2.032,62.492
	c5.34,31.219,44.279,58.354,70.273,91.626s29.915,96.331,29.915,96.331s-45.755-70.52-73.155-97.425S-3.307,31.273,2.032,62.492z"/>
</svg>
