<?xml version="1.0" encoding="utf-8"?>
<!-- Generator: Adobe Illustrator 17.0.0, SVG Export Plug-In . SVG Version: 6.00 Build 0)  -->
<!DOCTYPE svg PUBLIC "-//W3C//DTD SVG 1.1//EN" "http://www.w3.org/Graphics/SVG/1.1/DTD/svg11.dtd">
<svg version="1.1" id="Layer_1" xmlns="http://www.w3.org/2000/svg" xmlns:xlink="http://www.w3.org/1999/xlink" x="0px" y="0px"
	 width="280px" height="280px" viewBox="0 0 280 280" enable-background="new 0 0 280 280" xml:space="preserve">
<path fill="#A6A6A6" d="M217.778,172.134C171.969,180.199,140,154.181,140,154.181s-31.969,26.018-77.778,17.953
	C16.414,164.069,0,122.763,0,122.763s12.729-17.323,11.667-8.977c-1.063,8.345,4.952,14.096,27.223,22.441
	c22.27,8.346,35.167-8.854,62.222-22.441S140,109.298,140,109.298s11.834-9.099,38.889,4.488
	c27.055,13.588,39.952,30.787,62.222,22.441c22.27-8.345,28.285-14.096,27.222-22.441c-1.062-8.346,11.667,8.977,11.667,8.977
	S263.586,164.069,217.778,172.134z"/>
</svg>
