<?xml version="1.0" encoding="utf-8"?>
<!-- Generator: Adobe Illustrator 17.0.0, SVG Export Plug-In . SVG Version: 6.00 Build 0)  -->
<!DOCTYPE svg PUBLIC "-//W3C//DTD SVG 1.1//EN" "http://www.w3.org/Graphics/SVG/1.1/DTD/svg11.dtd">
<svg version="1.1" id="Layer_1" xmlns="http://www.w3.org/2000/svg" xmlns:xlink="http://www.w3.org/1999/xlink" x="0px" y="0px"
	 width="280px" height="280px" viewBox="0 0 280 280" enable-background="new 0 0 280 280" xml:space="preserve">
<path fill="#A6A6A6" d="M243.16,170.494c0,0-20.971,86.856-28.618,93.305c-7.647,6.448-30.505,13.949-41.821,9.578
	c-11.315-4.371-24.79,3.393-29.689,4.49c-6.326,1.416-9.436,1.116-18.565-1.296c-9.129-2.414-21.982-6.402-30.226-4.85
	c-8.243,1.553-30.896-7.921-30.896-7.921L40.49,167.301c0,0-13.779-21.601-3.217-19.156c10.562,2.444,93.193,32.474,197.241,0.649
	c7.665-2.345,12.197,6.146,12.197,6.146l-3.909,15.554L243.16,170.494L243.16,170.494z M230.291,160.916
	c0,0-47.79,14.255-90.075,12.771c-29.901-1.049-67.354-3.806-86.743-5.331c1.025,9.272,2.975,60.168,16.305,79.479
	c14.294,20.708,18.363,17.738,18.363,17.738l23.457-11.353v-19.156l0.939-30.954h6.098l2.614,53.302c0,0,11.403,9.584,19.302,9.579
	c7.898-0.006,19.302-12.771,19.302-12.771l6.098-54.993l1.475-1.264h6.099l-0.805,53.063c0,0,7.069,11.343,16.085,12.771
	c9.017,1.428,23.26-13.482,22.519-22.349c-0.742-8.867,22.183-70.956,22.183-70.956L230.291,160.916z M114.48,151.338
	c0,0-2.042-24.475,19.302-31.926c21.344-7.452,53.243-18.826,67.556-35.12c14.313-16.293,38.604,51.083,38.604,51.083
	s-50.209,13.749-80.425,15.963C129.303,153.552,114.48,151.338,114.48,151.338z M201.339,111.429c0-2.645-2.161-4.789-4.826-4.789
	s-4.825,2.144-4.825,4.789s2.16,4.789,4.825,4.789S201.339,114.074,201.339,111.429z M190.079,141.76
	c2.666,0,4.826-1.43,4.826-3.193s-2.161-3.192-4.826-3.192c-2.665,0-4.825,1.429-4.825,3.192S187.414,141.76,190.079,141.76z
	 M117.698,116.219c-13.126,6.018-12.868,31.926-12.868,31.926c-13.175,0-57.905-9.578-57.905-9.578s22.831-76.146,67.556-73.431
	c13.723,0.833,23.574-0.801,30.941-3.605c-1.222,1.4-1.988,3.204-1.988,5.201c0,4.408,3.6,7.982,8.042,7.982
	s8.042-3.574,8.042-7.982s-3.6-7.981-8.042-7.981c-0.035,0-0.067,0.01-0.102,0.01c16.924-9.573,20.769-20.811,34.35-14.455
	c19.643,9.195,18.668,29.832,18.833,30.408c-0.765,1.129-15.048,9.059-22.519,12.77C166.396,95.255,130.823,110.201,117.698,116.219
	z M93.57,93.87c-4.442,0-8.042,2.144-8.042,4.789c0,2.645,3.6,4.789,8.042,4.789s8.042-2.144,8.042-4.789
	C101.612,96.014,98.012,93.87,93.57,93.87z M120.914,77.907c-1.777,0-3.217,2.859-3.217,6.385s1.44,6.385,3.217,6.385
	s3.217-2.859,3.217-6.385S122.691,77.907,120.914,77.907z M138.608,81.099c-2.665,0-4.825,2.859-4.825,6.385
	c0,3.527,2.16,6.386,4.825,6.386s4.826-2.859,4.826-6.386C143.434,83.958,141.273,81.099,138.608,81.099z M177.212,55.558
	c-2.665,0-4.826,2.859-4.826,6.385c0,3.526,2.161,6.385,4.826,6.385s4.825-2.859,4.825-6.385
	C182.037,58.417,179.877,55.558,177.212,55.558z M201.339,74.714c0,0,1.133-4.867,0-3.193
	C201.34,71.527,201.339,74.714,201.339,74.714z M151.374,58.761c-1.782,1.008-3.764,1.937-5.953,2.77
	C146.874,59.865,148.987,58.791,151.374,58.761z M132.174,55.558c-15.102,0-27.344-12.15-27.344-27.138s12.242-27.138,27.344-27.138
	s27.344,12.15,27.344,27.138C159.518,43.407,147.276,55.558,132.174,55.558z M95.179,58.75
	c-26.205,4.741-51.472,60.661-51.472,60.661C41.32,91.719,84.026,28.254,88.745,36.402C92.752,43.322,112.37,55.64,95.179,58.75z"/>
</svg>
