<?xml version="1.0" encoding="utf-8"?>
<!-- Generator: Adobe Illustrator 17.0.0, SVG Export Plug-In . SVG Version: 6.00 Build 0)  -->
<!DOCTYPE svg PUBLIC "-//W3C//DTD SVG 1.1//EN" "http://www.w3.org/Graphics/SVG/1.1/DTD/svg11.dtd">
<svg version="1.1" id="Layer_1" xmlns="http://www.w3.org/2000/svg" xmlns:xlink="http://www.w3.org/1999/xlink" x="0px" y="0px"
	 width="277px" height="277px" viewBox="0 0 277 277" enable-background="new 0 0 277 277" xml:space="preserve">
<path fill="#A6A6A6" d="M141.333,248.245c-66.924,5.071-118.909-32.68-135.209-76.569c-16.301-43.889,4.508-86.185,37.768-105.095
	c18.814-10.698,39.062-9.532,53.104-6.502c2.856,3.623,5.116,7.145,5.059,8.754c-0.112,3.193,8.309,8.257,8.309,8.257
	s-26.3,4.234-29.459,29.276c-3.158,25.042-0.755,14.263-0.755,14.263s19.106-32.461,33.235-32.279s11.639,3.614,25.682,8.257
	c11.106,3.672,19.021,11.478,20.189,20.088c1.656-10.103-5.669-18.79-18.678-23.091c-14.043-4.643-10.797-8.826-24.926-9.008
	c-13.583-0.175-32.455,28.417-33.894,30.628c0.287-2.219,0.733-5.722,1.413-11.11c3.158-25.042,31.725-25.523,31.725-25.523
	s-11.442-8.067-11.331-11.26c0.112-3.194-10.402-12.418-15.106-16.515c-4.705-4.096-3.235-24.501-2.267-16.515
	c0.969,7.986,16.311,15.058,21.15,24.021c4.839,8.964,19.639,4.504,19.639,4.504s1.496,2.034,1.511-10.51
	c0.014-12.541,15.107-24.02,15.107-24.02s13.068,6.94,9.064,8.257c-4.004,1.318-12.086,18.017-12.086,18.017
	s1.415,6.286,4.533,2.252c3.117-4.034,13.7-0.239,23.416-4.504c9.717-4.265,7.479-14.203,8.309-11.26
	c0.831,2.942,1.507,9.524-6.798,15.765c-8.306,6.24-14.352,8.257-14.352,8.257s-2.514,8.933,7.553,14.263
	c10.068,5.33,30.822-5.389,30.215-3.754c-0.608,1.635-9.072,6.931-18.884,9.759c-9.813,2.828-20.395-3.753-20.395-3.753
	s-21.547,3.443-2.266,13.512c13.767,7.19,9.63,22.026,7.36,25.876c-0.115,0.882-0.295,1.767-0.562,2.65
	c-3.355,11.129,16.259-18.457-3.021-28.526c-19.281-10.069-1.511-9.759-1.511-9.759s12.093,5.08,21.905,2.252
	c9.812-2.828,21.297-14.88,21.906-16.515c0.607-1.634-21.658,12.086-31.725,6.756c-10.068-5.329-8.31-11.26-8.31-11.26
	s0.05-0.046,0.128-0.117c3.067-0.78,6.296-1.73,9.692-2.886c35.307-12.013,109.053-10.593,108.771,71.314
	C276.26,216.8,208.257,243.175,141.333,248.245z M58.244,91.354c0,0-4.741-6.243-15.107-2.252
	c-10.366,3.991-45.364,33.962-21.15,75.068c24.214,41.105-0.552-14.53,12.841-36.033C48.22,106.634,60.204,102.584,58.244,91.354z
	 M248.593,146.153c-8.392,48.237-58.163,76.569-58.163,76.569c-7.366,4.805,17.107,1.791,44.566-21.019
	c14.58-12.11,22.866-45.1,22.661-58.553C257.453,129.696,257.676,93.945,248.593,146.153z M81.66,115.375c0,0,0.04-0.061,0.098-0.15
	C80.784,122.744,81.66,115.375,81.66,115.375z"/>
</svg>
