<?xml version="1.0" encoding="iso-8859-1"?>
<!-- Generator: Adobe Illustrator 18.0.0, SVG Export Plug-In . SVG Version: 6.00 Build 0)  -->
<!DOCTYPE svg PUBLIC "-//W3C//DTD SVG 1.1//EN" "http://www.w3.org/Graphics/SVG/1.1/DTD/svg11.dtd">
<svg version="1.1" id="&#x421;&#x43B;&#x43E;&#x439;_1"
	 xmlns="http://www.w3.org/2000/svg" xmlns:xlink="http://www.w3.org/1999/xlink" x="0px" y="0px" viewBox="0 0 210.948 280.969"
	 style="enable-background:new 0 0 210.948 280.969;" xml:space="preserve">
<path style="fill-rule:evenodd;clip-rule:evenodd;fill:#666766;" d="M154.264,100.894c1.856,32.672-14.3,51.421-24.781,60.052
	c-3.462,6.822,6.844,21.025,13.118,31.985c12.189,21.294,23.222,47.329,30.631,45.126c0.178-0.053,0.591,0.056,1.139,0.262
	c14.47-6.088,28.158-7.466,36.577-3.822l-79.799,46.472c1.067-9.064,8.909-20.169,21.11-29.688c0.404-0.867,0.693-1.416,0.805-1.48
	c7.363-4.211-8.764-28.736-21.267-50.579c-6.382-11.149-13.021-27.102-20.056-27.918c-12.616,4.857-36.863,9.686-64.075-8.331
	C10.777,138.549,0.113,58.293,0.647,45.592L0,44.462L76.347,0l0.647,1.13C88.165,7.015,151.739,56.458,154.264,100.894z
	 M75.729,7.534l-0.585-1.022L6.193,46.667l0.585,1.022c-0.475,11.482,9.201,84.045,42.542,106.146
	c35.968,23.843,66.187,3.505,66.187,3.505s32.571-16.228,30.084-59.571C143.286,57.595,85.825,12.861,75.729,7.534z M141.861,98.873
	c2.343,40.44-28.016,55.563-28.016,55.563s-28.163,18.958-61.712-3.308c-8.31-5.516-15.047-14.392-20.449-24.644
	C22.444,108.951,47.531,95.016,62.3,89.549c21.372-7.91,66.584-24.967,58.064-35.482C131.63,67.971,140.984,83.735,141.861,98.873z"
	/>
</svg>
