<?xml version="1.0" encoding="utf-8"?>
<!-- Generator: Adobe Illustrator 17.0.0, SVG Export Plug-In . SVG Version: 6.00 Build 0)  -->
<!DOCTYPE svg PUBLIC "-//W3C//DTD SVG 1.1//EN" "http://www.w3.org/Graphics/SVG/1.1/DTD/svg11.dtd">
<svg version="1.1" id="Layer_1" xmlns="http://www.w3.org/2000/svg" xmlns:xlink="http://www.w3.org/1999/xlink" x="0px" y="0px"
	 width="279px" height="279px" viewBox="0 0 279 279" enable-background="new 0 0 279 279" xml:space="preserve">
<path fill="#A6A6A6" d="M273.863,128.146l-4.546,49.831c0,0-188.046,61.097-199.996,58.891
	c-11.949-2.206-42.519-40.529-54.544-49.831c-26.674-20.633-9.091-90.602-9.091-90.602c9.69-9.92,35.934-13.701,67.014-14.53
	c-2.257,0.49-4.587,1.07-6.989,1.711c-15.761,4.209-28.188,8.926-24.126,24.03c4.061,15.105,20.13,23.937,35.891,19.728
	c15.761-4.209,25.246-19.866,21.186-34.969c-1.579-5.872-4.541-9.12-8.482-10.677c58.326,0.274,125.427,8.248,133.684,5.647
	c13.695-4.312,17.578,14.051,40.908,18.121C288.102,109.566,273.863,128.146,273.863,128.146z M242.045,128.146
	c-5.749-2.555-35.093,4.387-53.435,7.938c-18.341,3.552-37.142,2.09-50.179-1.604c-13.037-3.694-17.628,10.335-32.747,11.787
	c-15.118,1.452-22.727,0-22.727,0l-13.636,9.061l-0.883,28.5l0.883-1.32c0,0,59.505-8.045,77.272-9.06s118.179-31.71,118.179-31.71
	v9.06c0,0-96.281,23.429-118.179,31.71c-21.898,8.282-37.689,16.658-50,13.59c-12.311-3.067-21.123,0.543-27.272,4.53
	c-0.499,0.323-0.969,0.539-1.425,0.709l-0.909,29.342l194.974-58.189l7.356-53.403C269.317,119.085,247.793,130.701,242.045,128.146
	z M77.06,87.465c6.911-0.602,12.176,1.194,14.281,8.866c3.139,11.44-4.193,23.298-16.375,26.485
	c-12.183,3.188-24.604-3.501-27.742-14.941c-3.139-11.439,6.465-15.012,18.648-18.2c1.105-0.29,2.186-0.558,3.253-0.812
	c1.224-2.226,2.664-4.564,4.244-6.965c-0.219,0.005-0.452,0.001-0.67,0.007c0.259-0.056,0.498-0.085,0.756-0.139
	c12.004-18.188,32.229-39.692,32.229-39.692s25.029,5.721,4.545,9.06c-9.627,1.569-20.303,16.145-28.889,29.522
	c3.284-0.186,6.284,0.062,8.839,1.071c-3.259-0.016-6.393,0.061-9.583,0.098C79.369,83.755,78.187,85.646,77.06,87.465z"/>
</svg>
