<?xml version="1.0" encoding="utf-8"?>
<!-- Generator: Adobe Illustrator 17.0.0, SVG Export Plug-In . SVG Version: 6.00 Build 0)  -->
<!DOCTYPE svg PUBLIC "-//W3C//DTD SVG 1.1//EN" "http://www.w3.org/Graphics/SVG/1.1/DTD/svg11.dtd">
<svg version="1.1" id="Layer_1" xmlns="http://www.w3.org/2000/svg" xmlns:xlink="http://www.w3.org/1999/xlink" x="0px" y="0px"
	 width="279px" height="279px" viewBox="0 0 279 279" enable-background="new 0 0 279 279" xml:space="preserve">
<path fill="#A6A6A6" d="M136.384,226.686c-55.397-27.743-104.443-72.185-108.085-83.975c0,0-2.376-38.348,4.913-49.397
	C40.5,82.266,76.377,70.518,87.254,73.555c10.878,3.037,111.298,120.533,142.477,143.251s48.17,29.623,49.13,39.517
	C279.82,266.219,191.782,254.429,136.384,226.686z M92.167,172.349c-30.391-24.768-43.48-41.188-49.13-54.336
	s-22.2,32.265,73.695,79.035c67.051,32.702,112.999,49.396,112.999,49.396S122.559,197.117,92.167,172.349z M33.212,83.435
	l-4.913,4.94C-25.18,60.724,13.56,19.219,13.56,19.219l9.826,4.939c0,0-6.233,4.048-14.739,24.699S33.212,83.435,33.212,83.435z"/>
</svg>
