<?xml version="1.0" encoding="utf-8"?>
<!-- Generator: Adobe Illustrator 17.0.0, SVG Export Plug-In . SVG Version: 6.00 Build 0)  -->
<!DOCTYPE svg PUBLIC "-//W3C//DTD SVG 1.1//EN" "http://www.w3.org/Graphics/SVG/1.1/DTD/svg11.dtd">
<svg version="1.1" id="Layer_1" xmlns="http://www.w3.org/2000/svg" xmlns:xlink="http://www.w3.org/1999/xlink" x="0px" y="0px"
	 width="278px" height="278px" viewBox="0 0 278 278" enable-background="new 0 0 278 278" xml:space="preserve">
<path fill="#A6A6A6" d="M75.234,229.13C4.923,188.557-20.196,99.844,17.424,28.703l260.379,150.252
	C234.972,247.089,145.545,269.703,75.234,229.13z M84.502,216.892c70.311,40.573,153.041,8.593,184.923-38.375L21.993,35.736
	C-5.062,88.587,14.191,176.319,84.502,216.892z M242.975,184.532l-13.452,13.92c-4.052,4.194-10.869,4.185-15.225-0.021
	l-41.759-67.215l1.223-1.266l68.663,39.374C246.781,173.53,247.027,180.338,242.975,184.532z M201.238,213.386l-18.082,6.924
	c-5.447,2.085-11.619-0.805-13.786-6.458l-10.264-92.262l1.644-0.629l46.427,78.414C209.345,205.027,206.686,211.3,201.238,213.386z
	 M146.893,226.393l-19.113-3.103c-5.758-0.935-9.638-6.536-8.667-12.51l29.141-91.521l1.738,0.282l9.084,97.728
	C158.105,223.243,152.65,227.328,146.893,226.393z M96.867,209.142l-17.404-8.303c-4.669-3.495-5.512-10.255-1.881-15.1l64.434-70.1
	l1.409,1.055l-31.531,90.004C108.263,211.542,101.536,212.637,96.867,209.142z M54.021,180.728l-12.245-14.992
	c-3.688-4.516-2.876-11.28,1.815-15.108l89.221-41.001l1.113,1.363l-64.731,70.984C64.502,185.802,57.709,185.244,54.021,180.728z
	 M28.915,131.304l-3.042-19.113c-0.916-5.758,3.189-11.196,9.17-12.146l89.252,4.276l0.276,1.738l-83.17,33.949
	C35.422,140.959,29.831,137.062,28.915,131.304z M24.67,80.243l5.336-18.604c1.607-5.604,7.629-8.795,13.451-7.127l68.448,39.745
	l-0.485,1.691L32.3,93.41C26.479,91.742,23.063,85.847,24.67,80.243z"/>
</svg>
