<?xml version="1.0" encoding="utf-8"?>
<!-- Generator: Adobe Illustrator 17.0.0, SVG Export Plug-In . SVG Version: 6.00 Build 0)  -->
<!DOCTYPE svg PUBLIC "-//W3C//DTD SVG 1.1//EN" "http://www.w3.org/Graphics/SVG/1.1/DTD/svg11.dtd">
<svg version="1.1" id="Layer_1" xmlns="http://www.w3.org/2000/svg" xmlns:xlink="http://www.w3.org/1999/xlink" x="0px" y="0px"
	 width="280px" height="280px" viewBox="0 0 280 280" enable-background="new 0 0 280 280" xml:space="preserve">
<path fill="#A6A6A6" d="M278.856,160.21c-0.109,1.005-6.111,3.016-15.657,5.589c-2.742,8.485-13.211,40.442-16.972,45.418
	c-4.344,5.748-23.18,10.814-31.747,10.553c-8.567-0.261-25.574-13.191-25.574-13.191s0.446-2.95-0.141-5.087
	c-1.078-0.624-2.124-1.302-3.143-2.029c-0.574,0.158-1.234,0.46-2.007,0.959c-7.683,4.969-8.819,23.745-8.819,23.745
	s-20.058,12.199-37.919,11.433s-33.51-19.348-33.51-19.348l-2.646-14.071c0,0-2.591,3.188-18.52,1.759
	c-15.928-1.429-26.455-13.191-26.455-13.191l-0.883-11.433c0,0-0.179,2.316-10.582,1.759c-10.403-0.557-23.81-14.951-23.81-14.951
	L6.713,117.53l-6.525-4.809c0,0-0.795-8.275,0.882-11.433c1.409-2.652,17.867-3.951,23.101-4.298
	c6.99-23.496,21.263-42.311,37.748-42.311c9.65,0,18.542,6.456,25.662,16.516c3.898-2.129,8.007-3.325,12.258-3.325
	c0.221,0,0.442,0.011,0.662,0.017l0,0c7.732-15.058,18.794-25.521,31.084-25.521c9.65,0,18.542,6.457,25.662,16.517
	c3.898-2.129,8.006-3.325,12.258-3.325c12.76,0,24.269,10.566,32.455,25.9l0,0c3.179-1.385,6.48-2.155,9.875-2.155
	c21.196,0,38.964,29.121,43.721,60.902l19.773,8.573C275.329,148.778,279.393,155.242,278.856,160.21z M119.239,172.522
	c7.227,3.621,13.463,3.58,22.929,1.759c3.467-0.667,19.663-4.032,38.791-8.028c0.002-0.226,0.011-0.443,0.011-0.671
	c0-32.345-17.372-66.933-38.802-66.933c-20.883,0-37.905,32.845-38.761,64.453C111.621,168.119,117.589,171.695,119.239,172.522z
	 M83.011,74.192c-5.959-7.875-13.232-12.858-21.092-12.858c-18.062,0-33.053,26.241-35.989,53.698
	c5.55,3.47,16.769,10.477,29.585,18.454C58.169,108.915,68.782,85.156,83.011,74.192L83.011,74.192z M99.839,74.905
	c-20.365,0-37.054,31.237-38.663,62.101c12.397,7.708,25.672,15.937,36.443,22.551c2.316-26.556,14.06-52.606,29.774-63.095l0,0
	C120.361,83.654,110.615,74.905,99.839,74.905z M152.678,61.88c-5.958-7.876-13.232-12.858-21.092-12.858
	c-9.944,0-18.955,7.961-25.54,19.691c10.261,2.781,19.413,12.254,26.248,25.057c-0.142-0.267-0.288-0.528-0.432-0.791
	C136.861,79.72,144.112,68.48,152.678,61.88L152.678,61.88z M197.06,84.15c-7.032-12.808-16.778-21.557-27.554-21.557
	c-12.85,0-24.236,12.441-31.297,29.373c1.305-0.229,2.625-0.352,3.959-0.352c12.537,0,23.87,10.194,32.026,25.093
	C179.588,102.409,187.604,90.461,197.06,84.15L197.06,84.15z M211.834,86.338c-14.8,0-27.661,16.499-34.205,37.361
	c5.447,12.314,8.879,26.872,9.426,41.28c24.607-5.145,52.203-10.94,63.553-13.325C250.045,119.783,232.908,86.338,211.834,86.338z"
	/>
</svg>
