<?xml version="1.0" encoding="utf-8"?>
<!-- Generator: Adobe Illustrator 17.0.0, SVG Export Plug-In . SVG Version: 6.00 Build 0)  -->
<!DOCTYPE svg PUBLIC "-//W3C//DTD SVG 1.1//EN" "http://www.w3.org/Graphics/SVG/1.1/DTD/svg11.dtd">
<svg version="1.1" id="Layer_1" xmlns="http://www.w3.org/2000/svg" xmlns:xlink="http://www.w3.org/1999/xlink" x="0px" y="0px"
	 width="280px" height="280px" viewBox="0 0 280 280" enable-background="new 0 0 280 280" xml:space="preserve">
<path fill="#A6A6A6" d="M137.211,182.636c-32.688-22.062-53.451-64.147-53.451-64.147l6.873-2.212c0,0,18.376,40.916,83.23,75.943
	c62.356,33.679,105.373,44.976,105.373,44.976l0.765,8.848C280,246.045,169.866,204.676,137.211,182.636z M237.14,215.36
	c0,0-14.542-15.242-15.634-34.777c-1.09-19.537,16.74-36.154,16.74-36.154s10.502,8.106,14.087,22.983
	c3.586,14.876-12.143,45.731-12.143,45.731L237.14,215.36z M189.573,192l-3.787-2.261c0,0-22.176-22.527-8.553-51.335
	c13.622-28.809,15.402-22.619,15.402-22.619s26.051,39.865,19.124,50.211C204.832,176.343,189.573,192,189.573,192z
	 M150.064,163.547c0,0-17.129-11.932-15.807-33.589c1.322-21.659,16.609-41.923,16.609-41.923s23.34,33.709,21.302,44.126
	C170.13,142.578,150.064,163.547,150.064,163.547z M94.451,87.522c-5.676-11.46,12.981-42.026,12.981-42.026
	s4.441,0.043,21.38,23.594c16.938,23.551-13.745,61.197-13.745,61.197S100.126,98.983,94.451,87.522z M37.417,148.844
	C18.688,144.644,0,131.137,0,131.137s13.793-18.227,44.589-13.987s38.84,21.78,38.84,21.78S56.147,153.044,37.417,148.844z
	 M35.655,87.522c-4.552-19.706,4.581-65.621,4.581-65.621s20.116,27.586,28.253,45.714c8.137,18.127,12.98,42.764,12.98,42.764
	S40.207,107.228,35.655,87.522z M109.886,170.023c5.944,1.469,3.035,9.807-2.227,10.873s-16.646,12.934-31.691,11.647
	s-40.407-19.614-40.407-19.614s14.844-5.353,31.888-12.359C84.495,153.563,103.941,168.553,109.886,170.023z M145.875,200.798
	l5.645,8.255c0,0-6.065,3.45-13.867,8.446s-20.304,13.101-33.276,6.99c-12.971-6.11-16.885-14.522-16.885-14.522
	s20.528-16.355,34.933-17.134C136.828,192.054,145.875,200.798,145.875,200.798z M197.038,222.163l3.44,4.704
	c0,0-15.26,28.966-30.707,31s-44.657-9.994-44.657-9.994s24.407-12.148,40.985-25.296
	C182.676,209.428,197.038,222.163,197.038,222.163z"/>
</svg>
