<?xml version="1.0" encoding="utf-8"?>
<!-- Generator: Adobe Illustrator 17.0.0, SVG Export Plug-In . SVG Version: 6.00 Build 0)  -->
<!DOCTYPE svg PUBLIC "-//W3C//DTD SVG 1.1//EN" "http://www.w3.org/Graphics/SVG/1.1/DTD/svg11.dtd">
<svg version="1.1" id="Layer_1" xmlns="http://www.w3.org/2000/svg" xmlns:xlink="http://www.w3.org/1999/xlink" x="0px" y="0px"
	 width="280px" height="280px" viewBox="0 0 280 280" enable-background="new 0 0 280 280" xml:space="preserve">
<path fill="#A6A6A6" d="M200.023,273.047c-0.157,2.473-1.672,6.184-4.531,6.497c-1.584,0.173-2.206,0.154-2.447,0.103l-0.008,0.039
	H87.124c0,0,0.271,0.313-2.599,0c-2.869-0.314-4.391-4.029-4.548-6.505c-0.158-2.476-0.478-148.049,0.65-166.511
	s21.95-55.168,27.94-66.995c5.293-10.45,5.798-18.679,5.844-20.454c-3.447-1.601-5.844-5.087-5.844-9.141
	c0-5.566,9.182-10.08,10.072-10.08h43.535c0.576,0.325,10.071,4.514,10.071,10.082c0,4.314-2.712,7.985-6.52,9.424
	c0.067,2.004,0.659,10.093,5.818,20.306c5.968,11.812,26.709,48.478,27.833,66.917C200.5,125.169,200.18,270.575,200.023,273.047z
	 M176.074,67.099c-4.655-7.638-16.441-33.912-16.829-42.879c-0.075-1.723-0.168-3.041-0.271-4.057H121.17
	c-0.098,0.995-0.186,2.266-0.257,3.903c-0.39,8.978-12.221,35.282-16.894,42.929c-4.673,7.647-14.404,34.108-15.595,44.229
	c-0.007,0.061-0.014,0.154-0.021,0.226c3.599-0.698,10.169-0.7,19.514,4.327c26.627,14.322,36.343,2.814,47.433-0.651
	c10.427-3.258,29.418-5.909,35.945-5.89C189.25,97.991,180.443,74.268,176.074,67.099z"/>
</svg>
