<?xml version="1.0" encoding="utf-8"?>
<!-- Generator: Adobe Illustrator 17.0.0, SVG Export Plug-In . SVG Version: 6.00 Build 0)  -->
<!DOCTYPE svg PUBLIC "-//W3C//DTD SVG 1.1//EN" "http://www.w3.org/Graphics/SVG/1.1/DTD/svg11.dtd">
<svg version="1.1" id="Layer_1" xmlns="http://www.w3.org/2000/svg" xmlns:xlink="http://www.w3.org/1999/xlink" x="0px" y="0px"
	 width="278px" height="278px" viewBox="0 0 278 278" enable-background="new 0 0 278 278" xml:space="preserve">
<path fill="#A6A6A6" d="M261.152,251.347l1.055,0.886c1.636,1.375,1.844,3.809,0.463,5.438c-1.38,1.628-3.827,1.834-5.464,0.46
	l-1.81-1.52c-14.712,5.106-63.615,20.489-105.665,15.375c-35.465-4.315-70.384-41.868-87.809-63.502
	c-0.726-0.634-1.441-1.284-2.125-1.974c-3.145-3.174-5.671-6.797-7.604-10.785c-1.104-1.543-1.72-2.448-1.72-2.448l0.449-0.441
	c-11.146-27.995,4.43-71.721,40.244-106.341c34.782-33.624,77.83-48.189,106.01-38.357l0.356-0.785c0,0,1.112,0.746,3.057,2.133
	c4.772,2.103,9.062,4.957,12.709,8.64c1.077,1.086,2.054,2.243,2.987,3.431c22.062,18.105,56.231,51.091,60.343,84.567
	C281.776,188.022,266.263,236.775,261.152,251.347z M269.771,148.095c-3.823-31.061-35.582-61.666-56.089-78.465
	c-0.867-1.102-1.775-2.175-2.776-3.184c-3.391-3.417-7.377-6.064-11.814-8.016c-1.808-1.287-2.842-1.979-2.842-1.979l-0.33,0.728
	c-26.194-9.122-66.206,4.392-98.537,35.589c-33.289,32.122-47.767,72.693-37.407,98.667l-0.417,0.41c0,0,0.572,0.838,1.598,2.271
	c1.798,3.7,4.147,7.061,7.069,10.006c0.635,0.641,1.3,1.243,1.975,1.832c16.196,20.074,48.654,54.917,81.618,58.92
	c39.084,4.746,84.541-9.527,98.215-14.265l5.35-4.884C260.136,232.205,274.555,186.969,269.771,148.095z M135.773,248.836
	c-30.811-14.698-63.647-54.022-68.239-63.275c-4.592-9.254,3.101-32.409,3.101-32.409s1.42,25.472,3.102,30.865
	c1.683,5.394,30.423,33.935,55.833,52.472c25.409,18.538,69.789,18.52,69.789,18.52S166.584,263.533,135.773,248.836z
	 M192.88,42.722l-0.356,0.786c-28.181-9.832-71.229,4.733-106.011,38.357c-35.814,34.62-51.391,78.346-40.244,106.341l-0.449,0.441
	c0,0,0.558,0.817,1.533,2.186c-9.802-0.963-18.175-4.436-24.32-10.693C-0.388,156.288-2.415,84.376,42.719,40.491
	c3.451-3.356,7.095-6.419,10.862-9.263l-3.108,1.546c0,0-1.403-5.785-4.653-9.259c-3.249-3.475-16.737-0.374-24.814,6.173
	c-8.078,6.547-16.093-7.159-20.162-13.889S18.33,6.489,28.76,8.082s27.916,16.976,27.916,16.976l2.322,2.311
	C104.14-2.9,165.693,0.052,186.477,21.22c6.047,6.159,9.339,14.399,10.148,23.976c-0.233-0.107-0.453-0.236-0.688-0.34
	C193.992,43.469,192.88,42.722,192.88,42.722z"/>
</svg>
