<?xml version="1.0" encoding="utf-8"?>
<!-- Generator: Adobe Illustrator 17.0.0, SVG Export Plug-In . SVG Version: 6.00 Build 0)  -->
<!DOCTYPE svg PUBLIC "-//W3C//DTD SVG 1.1//EN" "http://www.w3.org/Graphics/SVG/1.1/DTD/svg11.dtd">
<svg version="1.1" id="Layer_1" xmlns="http://www.w3.org/2000/svg" xmlns:xlink="http://www.w3.org/1999/xlink" x="0px" y="0px"
	 width="276px" height="276px" viewBox="0 0 276 276" enable-background="new 0 0 276 276" xml:space="preserve">
<path fill="#A6A6A6" d="M254.376,192.174l-45.639,13.856c1.389,9.836,1.489,19.287-15.148,19.247
	c-15.188-0.037-25.958-1.725-35.92,3.996c-9.961,5.721-35.421,8.195-43.902,0s-38.289,0.203-45.897-9.989
	c-3.014-4.038-3.938-9.26-3.974-14.102l-42.845-13.008c-13.464-4.088-24.837-16.956-19.858-27.792l2.194-4.775
	c4.667-10.156,19.893-10.262,31.44-3.757c-0.569-1.519-1.065-3.055-1.466-4.612l-1.381-1.129
	c-12.65-10.354-19.178-29.168-9.048-38.547l4.463-4.132c5.324-4.93,12.816-4.971,20.053-1.952c2.809-2.905,5.969-5.658,9.423-8.248
	c-2.611-13.376,0.837-26.982,11.718-31.069l6.395-2.402c10.14-3.808,20.567,2.973,27.172,13.565
	c1.875-0.423,3.776-0.808,5.698-1.165c0.895-17.923,10.603-34.691,25.864-34.691h8.032c15.263,0,24.969,16.772,25.859,34.696
	c1.909,0.355,3.799,0.738,5.662,1.158c6.605-10.593,17.033-17.373,27.172-13.565l6.396,2.402
	c10.881,4.086,14.329,17.692,11.718,31.069c3.455,2.59,6.614,5.343,9.423,8.248c7.236-3.02,14.729-2.978,20.053,1.952l4.462,4.132
	c10.13,9.379,3.603,28.193-9.047,38.547l-1.381,1.129c-0.401,1.557-0.897,3.093-1.466,4.612c11.547-6.505,26.773-6.398,31.439,3.757
	l2.194,4.775C279.214,175.218,267.84,188.086,254.376,192.174z"/>
</svg>
