<?xml version="1.0" encoding="iso-8859-1"?>
<!-- Generator: Adobe Illustrator 18.0.0, SVG Export Plug-In . SVG Version: 6.00 Build 0)  -->
<!DOCTYPE svg PUBLIC "-//W3C//DTD SVG 1.1//EN" "http://www.w3.org/Graphics/SVG/1.1/DTD/svg11.dtd">
<svg version="1.1" id="&#x421;&#x43B;&#x43E;&#x439;_1"
	 xmlns="http://www.w3.org/2000/svg" xmlns:xlink="http://www.w3.org/1999/xlink" x="0px" y="0px" viewBox="0 0 228 280"
	 style="enable-background:new 0 0 228 280;" xml:space="preserve">
<path style="fill-rule:evenodd;clip-rule:evenodd;fill:#A6A6A6;" d="M210.461,245v21.875c0,7.249-5.889,13.125-13.154,13.125h-8.769
	c-7.265,0-13.154-5.877-13.154-13.125V245H52.615v21.875c0,7.249-5.889,13.125-13.154,13.125h-8.769
	c-7.265,0-13.154-5.877-13.154-13.125V245C7.852,245,0,237.165,0,227.5V17.5C0,7.835,7.852,0,17.538,0h192.923
	C220.148,0,228,7.835,228,17.5V227.5C228,237.165,220.148,245,210.461,245z M175.385,218.75c14.529,0,26.308-11.753,26.308-26.25
	c0-14.497-11.778-26.25-26.308-26.25s-26.308,11.753-26.308,26.25C149.077,206.997,160.855,218.75,175.385,218.75z M52.615,218.75
	c14.529,0,26.308-11.753,26.308-26.25c0-14.497-11.778-26.25-26.308-26.25s-26.308,11.753-26.308,26.25
	C26.308,206.997,38.086,218.75,52.615,218.75z M192.923,17.5H35.077v8.75h157.846V17.5z M201.692,61.25
	c0-9.665-7.852-17.5-17.538-17.5H43.846c-9.686,0-17.538,7.835-17.538,17.5v61.25c0,9.665,7.852,17.5,17.538,17.5h140.308
	c9.687,0,17.538-7.835,17.538-17.5V61.25z"/>
</svg>
