<?xml version="1.0" encoding="iso-8859-1"?>
<!-- Generator: Adobe Illustrator 18.0.0, SVG Export Plug-In . SVG Version: 6.00 Build 0)  -->
<!DOCTYPE svg PUBLIC "-//W3C//DTD SVG 1.1//EN" "http://www.w3.org/Graphics/SVG/1.1/DTD/svg11.dtd">
<svg version="1.1" id="&#x421;&#x43B;&#x43E;&#x439;_1"
	 xmlns="http://www.w3.org/2000/svg" xmlns:xlink="http://www.w3.org/1999/xlink" x="0px" y="0px" viewBox="0 0 247.131 278.94"
	 style="enable-background:new 0 0 247.131 278.94;" xml:space="preserve">
<path style="fill-rule:evenodd;clip-rule:evenodd;fill:#A6A6A6;" d="M221.025,234.216c-14.417,0-26.105-11.651-26.105-26.024
	c0-14.373,11.688-26.024,26.105-26.024c14.418,0,26.105,11.651,26.105,26.024C247.131,222.565,235.443,234.216,221.025,234.216z
	 M186.55,240.001c3.823,3.811,3.823,9.99,0,13.801l-4.615,4.6c-3.823,3.811-10.021,3.811-13.844,0l-69.222-69.007
	c-2.308-2.301-8.611-0.709-12.435,0.085l-22.101,82.224c-1.399,5.206-6.767,8.296-11.99,6.901l-6.304-1.684
	c-5.222-1.395-8.322-6.746-6.922-11.952l18.75-95.813v-54.828l-38.468,38.349c-3.478,3.467-9.116,3.467-12.593,0l-4.198-4.185
	c-3.477-3.467-3.477-9.087,0-12.554l54.57-54.4c0.204-0.203,0.472-0.277,0.689-0.456v-3.01h71.789v3.01
	c0.217,0.179,0.486,0.254,0.689,0.456l54.57,54.4c3.477,3.467,3.477,9.087,0,12.554l-4.198,4.185c-3.477,3.467-9.116,3.467-12.593,0
	l-38.469-38.349v54.828L186.55,240.001z M97.025,65.06c-18.022,0-32.632-14.564-32.632-32.53C64.394,14.564,79.003,0,97.025,0
	c18.022,0,32.632,14.564,32.632,32.53C129.657,50.496,115.047,65.06,97.025,65.06z"/>
</svg>
