<?xml version="1.0" encoding="iso-8859-1"?>
<!-- Generator: Adobe Illustrator 18.0.0, SVG Export Plug-In . SVG Version: 6.00 Build 0)  -->
<!DOCTYPE svg PUBLIC "-//W3C//DTD SVG 1.1//EN" "http://www.w3.org/Graphics/SVG/1.1/DTD/svg11.dtd">
<svg version="1.1" id="&#x421;&#x43B;&#x43E;&#x439;_1"
	 xmlns="http://www.w3.org/2000/svg" xmlns:xlink="http://www.w3.org/1999/xlink" x="0px" y="0px" viewBox="0 0 240.378 280"
	 style="enable-background:new 0 0 240.378 280;" xml:space="preserve">
<path style="fill-rule:evenodd;clip-rule:evenodd;fill:#A6A6A6;" d="M235.587,247.855l-1.078,0.903
	c-5.655,4.739-14.067,3.979-18.788-1.697l-42.92-51.173h-43.246H90.24c-4.653,0-8.425-3.786-8.425-8.456v-11.274V96.534
	c0-15.177,12.258-27.481,27.38-27.481h1.404c15.122,0,27.38,12.304,27.38,27.481v71.168h42.123c1.396,0,2.709,0.346,3.868,0.949
	c2.345,0.744,4.521,2.12,6.213,4.155l47.094,56.191C242,234.674,241.243,243.117,235.587,247.855z M109.898,62.007
	c-17.06,0-30.89-13.881-30.89-31.004S92.838,0,109.898,0c17.06,0,30.89,13.881,30.89,31.004S126.958,62.007,109.898,62.007z
	 M49.16,139.119c-0.598,0-1.181-0.057-1.756-0.14v1.951c-14.971,11.937-24.58,30.347-24.58,51.02
	c0,35.985,29.084,65.157,64.962,65.157c23.679,0,44.392-12.712,55.745-31.698h0.578c-0.083-0.577-0.14-1.161-0.14-1.761
	c0-6.808,5.502-12.327,12.29-12.327c6.788,0,12.29,5.519,12.29,12.327c0,0.6-0.057,1.184-0.14,1.761h0.584
	C155.861,257.44,124.457,280,87.786,280C39.303,280,0,240.578,0,191.95c0-31.511,16.531-59.113,41.342-74.669
	c0.98-0.811,2.092-1.464,3.292-1.941c0.922-0.524,1.828-1.073,2.77-1.564v0.83c0.575-0.083,1.158-0.14,1.756-0.14
	c6.788,0,12.29,5.519,12.29,12.327C61.45,133.6,55.948,139.119,49.16,139.119z"/>
</svg>
