<?xml version="1.0" encoding="iso-8859-1"?>
<!-- Generator: Adobe Illustrator 18.0.0, SVG Export Plug-In . SVG Version: 6.00 Build 0)  -->
<!DOCTYPE svg PUBLIC "-//W3C//DTD SVG 1.1//EN" "http://www.w3.org/Graphics/SVG/1.1/DTD/svg11.dtd">
<svg version="1.1" id="&#x421;&#x43B;&#x43E;&#x439;_1"
	 xmlns="http://www.w3.org/2000/svg" xmlns:xlink="http://www.w3.org/1999/xlink" x="0px" y="0px" viewBox="0 0 279.063 213.132"
	 style="enable-background:new 0 0 279.063 213.132;" xml:space="preserve">
<path style="fill-rule:evenodd;clip-rule:evenodd;fill:#A6A6A6;" d="M267.545,158.731c6.642,6.767,22.209,23.719,0,38.095
	c-22.209,14.377-31.657,12.699-31.657,12.699h-44.319c0,0-8.186-4.942-12.663-6.349s-12.663,0-12.663,0s-1.381-6.637,0-12.699
	c1.381-6.062,7.898-18.546,6.331-25.397c-1.566-6.852-16.521-18.471-6.331-31.746l31.656-12.698c0,0,24.509,18.605,31.657,25.397
	c7.147,6.792,16.62,43.355,18.994,44.445c2.374,1.089,9.357,6.639,12.663,0c3.306-6.639,11.189-12.868,0-25.397
	c-11.189-12.529-19.934-31.124-6.331-38.095c13.602-6.971,18.994-6.349,18.994-6.349s-10.56,10.942-12.663,19.048
	C259.111,147.789,260.902,151.964,267.545,158.731z M166.244,126.985l-6.331-6.349c0,0-11.867-3.946-12.663-6.349
	c-0.796-2.404,0-19.048,0-19.048s10.453-3.392,12.663-6.349s14.206-11.572,18.994-12.699c4.788-1.126,0-19.048,0-19.048
	s19.742,13.521,18.994,19.048c-0.748,5.527,0.387,34.479-6.331,38.095C184.85,117.903,166.244,126.985,166.244,126.985z
	 M134.587,69.842c-9.272,2.044-18.994,0-18.994,0l-6.331,12.698L64.943,69.842c0,0,4.363-19.349,6.331-25.397
	c1.968-6.047,12.663-19.048,12.663-19.048V6.349L96.599,0v25.397c0,0,16.978,3.383,18.994,6.349
	c2.016,2.966,6.331,12.698,6.331,12.698h25.325C147.25,44.445,143.86,67.798,134.587,69.842z M109.262,95.238
	c-0.919,3.941,0,57.143,0,57.143s8.448,19.775,12.663,31.746c4.215,11.971-6.331,19.048-6.331,19.048s-27.893,3.545-37.988,6.349
	c-10.095,2.805-28.112,6.475-56.982,0C-8.246,203.049,1.63,165.08,1.63,165.08h12.663c0,0-0.219,12.878,0,19.048
	c0.218,6.169,18.994,12.698,18.994,12.698s2.615-22.892,6.331-50.794c3.716-27.902,25.325-63.492,25.325-63.492L109.262,95.238z"/>
</svg>
