<?xml version="1.0" encoding="iso-8859-1"?>
<!-- Generator: Adobe Illustrator 18.0.0, SVG Export Plug-In . SVG Version: 6.00 Build 0)  -->
<!DOCTYPE svg PUBLIC "-//W3C//DTD SVG 1.1//EN" "http://www.w3.org/Graphics/SVG/1.1/DTD/svg11.dtd">
<svg version="1.1" id="&#x421;&#x43B;&#x43E;&#x439;_1"
	 xmlns="http://www.w3.org/2000/svg" xmlns:xlink="http://www.w3.org/1999/xlink" x="0px" y="0px" viewBox="0 0 239 280"
	 style="enable-background:new 0 0 239 280;" xml:space="preserve">
<path style="fill-rule:evenodd;clip-rule:evenodd;fill:#A6A6A6;" d="M128.316,268.252l0.979,0.979L118.521,280l-10.775-10.769
	l0.979-0.979H0v-19.58h239v19.58H128.316z M181.1,88.473c0-11.013,9.09-19.941,20.303-19.941s20.303,8.928,20.303,19.941
	c0,11.013-9.09,19.941-20.303,19.941S181.1,99.486,181.1,88.473z M173.581,180.792h-4.512c-2.492,0-4.512-1.984-4.512-4.431v-56.131
	c0-2.447,5.028-8.124,7.519-8.124h1.504h3.008h50.38h2.256h2.256c2.492,0,7.52,5.677,7.52,8.124v56.131
	c0,2.447-2.02,4.431-4.512,4.431h-4.512c-2.492,0-4.512-1.984-4.512-4.431v-44.314h-3.008v35.451v14.033v50.961
	c0,2.447-2.02,4.431-4.512,4.431h-9.023c-2.492,0-4.512-1.984-4.512-4.431v-50.961h-5.264v50.961c0,2.447-2.02,4.431-4.512,4.431
	h-9.023c-2.492,0-4.512-1.984-4.512-4.431v-50.961v-14.033v-35.451h-3.008v44.314C178.092,178.809,176.072,180.792,173.581,180.792z
	 M98.821,88.473c0-11.013,9.09-19.941,20.302-19.941c11.213,0,20.303,8.928,20.303,19.941c0,11.013-9.09,19.941-20.303,19.941
	C107.911,108.414,98.821,99.486,98.821,88.473z M91.302,180.792H86.79c-2.492,0-4.512-1.984-4.512-4.431v-56.131
	c0-2.447,5.028-8.124,7.519-8.124h1.504h3.008h50.38h2.256h2.256c2.492,0,7.519,5.677,7.519,8.124v56.131
	c0,2.447-2.02,4.431-4.512,4.431h-4.512c-2.492,0-4.512-1.984-4.512-4.431v-44.314h-3.008v35.451v14.033v50.961
	c0,2.447-2.02,4.431-4.512,4.431h-9.023c-2.492,0-4.512-1.984-4.512-4.431v-50.961h-5.264v50.961c0,2.447-2.02,4.431-4.512,4.431
	h-9.023c-2.492,0-4.512-1.984-4.512-4.431v-50.961v-14.033v-35.451h-3.008v44.314C95.814,178.809,93.794,180.792,91.302,180.792z
	 M16.543,88.473c0-11.013,9.09-19.941,20.302-19.941c11.213,0,20.303,8.928,20.303,19.941c0,11.013-9.09,19.941-20.303,19.941
	C25.633,108.414,16.543,99.486,16.543,88.473z M9.023,180.792H4.512c-2.492,0-4.512-1.984-4.512-4.431v-56.131
	c0-2.447,5.028-8.124,7.519-8.124h1.504h3.008h50.38h2.256h2.256c2.492,0,7.519,5.677,7.519,8.124v56.131
	c0,2.447-2.02,4.431-4.512,4.431h-4.512c-2.492,0-4.512-1.984-4.512-4.431v-44.314H57.9v35.451v14.033v50.961
	c0,2.447-2.02,4.431-4.512,4.431h-9.023c-2.492,0-4.512-1.984-4.512-4.431v-50.961H34.59v50.961c0,2.447-2.02,4.431-4.512,4.431
	h-9.023c-2.492,0-4.512-1.984-4.512-4.431v-50.961v-14.033v-35.451h-3.008v44.314C13.535,178.809,11.515,180.792,9.023,180.792z
	 M0,11.748h108.725l-0.979-0.979L118.521,0l10.775,10.769l-0.979,0.979H239v19.58H0V11.748z"/>
</svg>
