<?xml version="1.0" encoding="iso-8859-1"?>
<!-- Generator: Adobe Illustrator 18.0.0, SVG Export Plug-In . SVG Version: 6.00 Build 0)  -->
<!DOCTYPE svg PUBLIC "-//W3C//DTD SVG 1.1//EN" "http://www.w3.org/Graphics/SVG/1.1/DTD/svg11.dtd">
<svg version="1.1" id="&#x421;&#x43B;&#x43E;&#x439;_1"
	 xmlns="http://www.w3.org/2000/svg" xmlns:xlink="http://www.w3.org/1999/xlink" x="0px" y="0px" viewBox="0 0 257.261 279.752"
	 style="enable-background:new 0 0 257.261 279.752;" xml:space="preserve">
<path style="fill-rule:evenodd;clip-rule:evenodd;fill:#A6A6A6;" d="M168.068,111.443c-9.116-10.989-22.849-17.991-38.217-17.991
	c-10.839,0-20.836,3.519-29.004,9.425C91.453,95.56,69.565,75.479,73.94,49.841c5.535-32.44,36.854-49.648,62.124-49.841
	c25.27-0.193,112.096,51.932,111.823,80.991C247.678,103.122,193.779,109.606,168.068,111.443z M80.152,143.293
	c0,21.981,14.207,40.601,33.901,47.226c-2.018,12.763-8.952,39.521-32.09,48.1c-30.782,11.413-61.301-7.183-74.103-29.034
	C-4.941,187.735-3.342,86.264,21.89,71.972C39.871,61.786,69.538,99.3,85.108,121.706C81.965,128.245,80.152,135.548,80.152,143.293
	z M98.789,143.293c0-17.204,13.907-31.151,31.062-31.151s31.062,13.947,31.062,31.151c0,17.204-13.907,31.15-31.062,31.15
	S98.789,160.497,98.789,143.293z M179.55,143.293c0-1.884-0.125-3.737-0.328-5.567c12.027-4.629,38.608-11.992,57.59,3.817
	c25.247,21.027,24.447,56.831,11.979,78.875c-12.469,22.043-100.894,71.389-125.852,56.622c-18.98-11.23,2.264-61.111,13.546-84.402
	C160.788,189.38,179.55,168.558,179.55,143.293z"/>
</svg>
