<?xml version="1.0" encoding="iso-8859-1"?>
<!-- Generator: Adobe Illustrator 18.0.0, SVG Export Plug-In . SVG Version: 6.00 Build 0)  -->
<!DOCTYPE svg PUBLIC "-//W3C//DTD SVG 1.1//EN" "http://www.w3.org/Graphics/SVG/1.1/DTD/svg11.dtd">
<svg version="1.1" id="&#x421;&#x43B;&#x43E;&#x439;_1"
	 xmlns="http://www.w3.org/2000/svg" xmlns:xlink="http://www.w3.org/1999/xlink" x="0px" y="0px" viewBox="0 0 280 268"
	 style="enable-background:new 0 0 280 268;" xml:space="preserve">
<path style="fill-rule:evenodd;clip-rule:evenodd;fill:#A6A6A6;" d="M250.9,122.861V64.552L280,93.706L250.9,122.861z
	 M241.547,110.573v26.478v102.837c0,15.526-12.562,28.112-28.059,28.112c-15.497,0-28.059-12.586-28.059-28.112V137.051v-26.478
	c0-5.175-4.188-9.371-9.353-9.371c-5.166,0-9.353,4.195-9.353,9.371v26.478v102.837c0,15.526-12.562,28.112-28.059,28.112
	c-15.497,0-28.059-12.586-28.059-28.112V137.051v-26.478c0-5.175-4.188-9.371-9.353-9.371s-9.353,4.195-9.353,9.371v26.478v102.837
	C91.899,255.414,79.337,268,63.84,268s-28.059-12.586-28.059-28.112V137.051v-26.478c0-5.175-4.188-9.371-9.353-9.371H0.24H0
	c0.072-0.205,0.163-0.401,0.24-0.604V82.461h28.059v0.091c13.997,0.928,25.168,12.121,26.094,26.147h0.095V213.41v26.478
	c0,5.175,4.188,9.371,9.353,9.371s9.353-4.195,9.353-9.371V213.41V108.699h0.094c0.967-14.648,13.1-26.238,27.965-26.238
	c14.865,0,26.998,11.59,27.965,26.238h0.094V213.41v26.478c0,5.175,4.188,9.371,9.353,9.371c5.166,0,9.353-4.195,9.353-9.371V213.41
	V108.699h0.094c0.967-14.648,13.1-26.238,27.965-26.238c14.865,0,26.998,11.59,27.965,26.238h0.094V213.41v26.478
	c0,5.175,4.187,9.371,9.353,9.371c5.165,0,9.353-4.195,9.353-9.371V213.41V108.699h0.094c0.967-14.648,13.099-26.238,27.965-26.238
	v18.741C245.735,101.203,241.547,105.398,241.547,110.573z M207.876,48.727c-1.416,7.171-18.706,14.993-18.706,14.993
	s17.358-10.382,7.482-22.489c-9.876-12.107-16.666-12.805-14.965-26.238C182.699,7.009,194.782,0,194.782,0
	s-9.806,12.852-5.612,20.615C193.365,28.378,209.686,39.563,207.876,48.727z M162.982,48.727
	c-1.416,7.171-18.706,14.993-18.706,14.993s17.359-10.382,7.482-22.489c-9.876-12.107-16.666-12.805-14.965-26.238
	C137.805,7.009,149.888,0,149.888,0s-9.806,12.852-5.612,20.615C148.47,28.378,164.791,39.563,162.982,48.727z M121.829,48.727
	c-1.416,7.171-18.706,14.993-18.706,14.993s17.359-10.382,7.482-22.489c-9.876-12.107-16.666-12.805-14.965-26.238
	C96.652,7.009,108.735,0,108.735,0s-9.806,12.852-5.612,20.615C107.317,28.378,123.638,39.563,121.829,48.727z M76.934,48.727
	C75.519,55.898,58.228,63.72,58.228,63.72s17.359-10.382,7.482-22.489c-9.876-12.107-16.666-12.805-14.965-26.238
	C51.757,7.009,63.84,0,63.84,0s-9.806,12.852-5.612,20.615S78.744,39.563,76.934,48.727z"/>
</svg>
