<?xml version="1.0" encoding="iso-8859-1"?>
<!-- Generator: Adobe Illustrator 18.0.0, SVG Export Plug-In . SVG Version: 6.00 Build 0)  -->
<!DOCTYPE svg PUBLIC "-//W3C//DTD SVG 1.1//EN" "http://www.w3.org/Graphics/SVG/1.1/DTD/svg11.dtd">
<svg version="1.1" id="&#x421;&#x43B;&#x43E;&#x439;_1"
	 xmlns="http://www.w3.org/2000/svg" xmlns:xlink="http://www.w3.org/1999/xlink" x="0px" y="0px" viewBox="0 0 280 224"
	 style="enable-background:new 0 0 280 224;" xml:space="preserve">
<path style="fill-rule:evenodd;clip-rule:evenodd;fill:#A6A6A6;" d="M271.895,94.725h-32.42v128.556h-10.807V94.725h-35.121
	c-4.476,0-8.105-3.635-8.105-8.119V8.119c0-4.484,3.629-8.119,8.105-8.119h78.348C276.371,0,280,3.635,280,8.119v78.487
	C280,91.09,276.371,94.725,271.895,94.725z M259,30.087h-0.163C257.454,24.414,246.867,20,234,20
	c-12.867,0-23.454,4.414-24.837,10.087H209l0.092,0.433c-0.044,0.274-0.092,0.548-0.092,0.827c0,1.033,0.331,2.03,0.901,2.981
	l6.599,31.062H229V78h10V65.391h12.5l6.599-31.062c0.57-0.951,0.901-1.948,0.901-2.981c0-0.279-0.048-0.553-0.092-0.827L259,30.087z
	 M219,35.13c0-2.785,6.716-5.043,15-5.043c8.284,0,15,2.258,15,5.043v5.044h-30V35.13z M208.598,138.877l1.053,51.074
	c0,3.965-2.688,7.287-6.321,8.233v19.432c0,3.526-2.83,6.384-6.321,6.384h-20.017c-3.491,0-6.321-2.858-6.321-6.384v-19.153H52.676
	v19.153c0,3.526-2.83,6.384-6.321,6.384H26.338c-3.491,0-6.321-2.858-6.321-6.384V198.39c-4.156-0.525-7.375-4.099-7.375-8.439
	l1.054-51.074c0-2.572,1.134-4.871,2.919-6.432l24.473-30.809C48.9,89.488,61.056,80.355,72.693,80.355h77.961
	c11.637,0,24.439,9.528,31.606,21.281l21.882,29.734C206.793,132.805,208.598,135.627,208.598,138.877z M192.795,188.887
	c0,2.351,1.887,4.256,4.214,4.256h4.214c2.327,0,4.214-1.906,4.214-4.256v-1.064c0-2.351-1.887-4.256-4.214-4.256h-4.214
	c-2.327,0-4.214,1.906-4.214,4.256V188.887z M60.051,191.015h102.192c3.491,0,6.321-2.858,6.321-6.384l-7.375-17.025
	c-1.699-3.526-2.83-6.384-6.321-6.384H67.426c-3.491,0-3.842,2.858-6.321,6.384l-7.375,17.025
	C53.73,188.157,56.56,191.015,60.051,191.015z M17.91,188.887c0,2.351,1.887,4.256,4.214,4.256h4.214
	c2.327,0,4.214-1.906,4.214-4.256v-1.064c0-2.351-1.887-4.256-4.214-4.256h-4.214c-2.327,0-4.214,1.906-4.214,4.256V188.887z
	 M23.177,149.518c-3.448,0.551-4.877,9.127-2.107,12.768c2.77,3.641,23.358,21.244,28.445,17.025c0,0,11.155-19.153,9.482-19.153
	C57.325,160.158,26.625,148.967,23.177,149.518z M178.368,103.929c-6.795-12.971-19.205-20.382-30.397-20.382H74.282
	c-11.192,0-20.477,7.666-29.343,20.382l-18.601,19.842c0,4.669,11.986,3.402,23.178,3.402h122.209
	c11.192,0,24.896,2.361,25.285-1.364L178.368,103.929z M200.17,149.518c-3.448-0.551-34.147,10.64-35.82,10.64
	c-1.673,0,9.482,19.153,9.482,19.153c5.088,4.22,25.676-13.384,28.445-17.025C205.046,158.645,203.617,150.068,200.17,149.518z
	 M14.749,131.429l-8.428-3.192C4.404,127.882,0,126.442,0,122.917s2.83-6.384,6.321-6.384h9.482c3.491,0,5.268,2.858,5.268,6.384
	S16.224,131.601,14.749,131.429z M201.223,122.917c0-3.526,1.777-6.384,5.268-6.384h9.482c3.491,0,6.321,2.858,6.321,6.384
	s-4.404,4.965-6.321,5.32l-8.428,3.192C206.07,131.601,201.223,126.442,201.223,122.917z"/>
</svg>
