<?xml version="1.0" encoding="iso-8859-1"?>
<!-- Generator: Adobe Illustrator 18.0.0, SVG Export Plug-In . SVG Version: 6.00 Build 0)  -->
<!DOCTYPE svg PUBLIC "-//W3C//DTD SVG 1.1//EN" "http://www.w3.org/Graphics/SVG/1.1/DTD/svg11.dtd">
<svg version="1.1" id="&#x421;&#x43B;&#x43E;&#x439;_1"
	 xmlns="http://www.w3.org/2000/svg" xmlns:xlink="http://www.w3.org/1999/xlink" x="0px" y="0px" viewBox="0 0 280 158"
	 style="enable-background:new 0 0 280 158;" xml:space="preserve">
<path style="fill-rule:evenodd;clip-rule:evenodd;fill:#A6A6A6;" d="M277.458,46.921l-33.072-8.848V158h-9.825V35.444
	l-94.577-25.302L45.439,35.436V158h-9.825V38.064L2.542,46.912L0,37.439L139.944,0l0.057,0.214l0.055-0.205L280,37.448
	L277.458,46.921z M62.399,76.115h7.019c2.584,0,3.899,2.112,3.899,4.718c0,2.606-3.588,6.417-4.679,6.29l-6.239-2.359
	c-1.42-0.262-4.68-1.326-4.68-3.932C57.719,78.227,59.814,76.115,62.399,76.115z M70.019,87.874l18.117-22.767
	c5.784-8.977,14.783-15.726,23.397-15.726h57.713c8.615,0,18.092,7.041,23.397,15.726l16.199,21.973
	c1.963,1.06,3.298,3.146,3.298,5.547l0.78,37.743c0,2.93-1.99,5.385-4.68,6.084v14.36c0,2.605-2.095,4.718-4.68,4.718h-14.818
	c-2.584,0-4.679-2.112-4.679-4.718V136.66h-87.35v14.153c0,2.605-2.095,4.718-4.679,4.718H77.217c-2.584,0-4.68-2.112-4.68-4.718
	v-14.208c-3.077-0.388-5.459-3.029-5.459-6.236l0.78-37.743C67.858,90.727,68.698,89.027,70.019,87.874z M189.763,66.801
	c-5.03-9.585-14.217-15.062-22.502-15.062h-54.551c-8.285,0-15.159,5.665-21.722,15.062l-13.77,14.663
	c0,3.45,8.873,2.514,17.158,2.514h90.47c8.285,0,18.43,1.745,18.718-1.008L189.763,66.801z M200.443,129.583
	c0,1.737,1.397,3.145,3.12,3.145h3.12c1.723,0,3.12-1.408,3.12-3.145v-0.786c0-1.737-1.397-3.145-3.12-3.145h-3.12
	c-1.723,0-3.12,1.408-3.12,3.145V129.583z M186.405,122.507c3.766,3.118,19.007-9.89,21.058-12.581
	c2.05-2.691,0.992-9.029-1.56-9.436c-2.552-0.407-25.279,7.863-26.517,7.863C178.147,108.353,186.405,122.507,186.405,122.507z
	 M102.174,131.156h75.651c2.584,0,4.679-2.112,4.679-4.718l-5.459-12.581c-1.257-2.605-2.095-4.718-4.679-4.718h-64.733
	c-2.584,0-2.844,2.112-4.679,4.718l-5.459,12.581C97.495,129.044,99.59,131.156,102.174,131.156z M94.375,122.507
	c0,0,8.258-14.154,7.019-14.154c-1.238,0-23.965-8.27-26.517-7.863c-2.552,0.407-3.61,6.745-1.56,9.436
	C75.368,112.617,90.609,125.625,94.375,122.507z M70.978,129.583c0,1.737,1.397,3.145,3.12,3.145h3.12
	c1.723,0,3.12-1.408,3.12-3.145v-0.786c0-1.737-1.397-3.145-3.12-3.145h-3.12c-1.723,0-3.12,1.408-3.12,3.145V129.583z
	 M206.682,80.833c0-2.606,1.315-4.718,3.9-4.718h7.019c2.584,0,4.68,2.112,4.68,4.718c0,2.606-3.26,3.669-4.68,3.932l-6.239,2.359
	C210.27,87.25,206.682,83.438,206.682,80.833z"/>
</svg>
