<?xml version="1.0" encoding="iso-8859-1"?>
<!-- Generator: Adobe Illustrator 18.0.0, SVG Export Plug-In . SVG Version: 6.00 Build 0)  -->
<!DOCTYPE svg PUBLIC "-//W3C//DTD SVG 1.1//EN" "http://www.w3.org/Graphics/SVG/1.1/DTD/svg11.dtd">
<svg version="1.1" id="&#x421;&#x43B;&#x43E;&#x439;_1"
	 xmlns="http://www.w3.org/2000/svg" xmlns:xlink="http://www.w3.org/1999/xlink" x="0px" y="0px" viewBox="0 0 280 230"
	 style="enable-background:new 0 0 280 230;" xml:space="preserve">
<path style="fill-rule:evenodd;clip-rule:evenodd;fill:#A6A6A6;" d="M253.653,83.056c0.554-3.116,0.892-6.308,0.892-9.583
	c0-29.992-24.217-54.305-54.091-54.305c-28.799,0-52.274,22.614-53.93,51.111h-0.161v89.444h-19.091v-19.167H44.546v19.167H25.455
	V63.889h0.748C30.886,27.854,61.466,0,98.636,0c15.791,0,30.375,5.072,42.332,13.611l-11.442,15.317
	c-8.762-6.136-19.397-9.761-30.89-9.761c-28.799,0-52.274,22.614-53.93,51.111h-0.161v6.389h82.727V63.889h0.748
	C132.704,27.854,163.284,0,200.454,0c40.417,0,73.182,32.895,73.182,73.472c0,3.256-0.284,6.439-0.693,9.583H253.653z
	 M127.273,95.833H44.546v25.556h82.727V95.833z M53.846,198.636h0.484C56.899,183.808,70.15,172.5,86.154,172.5
	c16.004,0,29.255,11.308,31.823,26.136h0.484c0,11.548,9.643,20.909,21.539,20.909s21.538-9.361,21.538-20.909h0.484
	c2.568-14.828,15.819-26.136,31.823-26.136c16.004,0,29.255,11.308,31.823,26.136h0.484c0,11.548,9.643,20.909,21.538,20.909
	c11.895,0,21.539-9.361,21.539-20.909H280C280,215.958,265.535,230,247.692,230c-16.004,0-29.255-11.309-31.823-26.136h-0.484
	c0-11.548-9.643-20.909-21.538-20.909c-11.895,0-21.538,9.361-21.538,20.909h-0.484C169.255,218.691,156.004,230,140,230
	s-29.255-11.309-31.823-26.136h-0.484c0-11.548-9.643-20.909-21.538-20.909c-11.895,0-21.538,9.361-21.538,20.909h-0.485
	C61.562,218.691,48.312,230,32.308,230C14.465,230,0,215.958,0,198.636h10.769c0,11.548,9.643,20.909,21.539,20.909
	S53.846,210.184,53.846,198.636z"/>
</svg>
