<?xml version="1.0" encoding="iso-8859-1"?>
<!-- Generator: Adobe Illustrator 18.0.0, SVG Export Plug-In . SVG Version: 6.00 Build 0)  -->
<!DOCTYPE svg PUBLIC "-//W3C//DTD SVG 1.1//EN" "http://www.w3.org/Graphics/SVG/1.1/DTD/svg11.dtd">
<svg version="1.1" id="&#x421;&#x43B;&#x43E;&#x439;_1"
	 xmlns="http://www.w3.org/2000/svg" xmlns:xlink="http://www.w3.org/1999/xlink" x="0px" y="0px" viewBox="0 0 280 201"
	 style="enable-background:new 0 0 280 201;" xml:space="preserve">
<path style="fill-rule:evenodd;clip-rule:evenodd;fill:#A6A6A6;" d="M264.478,201v-23.083H280V201H264.478z M248.956,127.903
	c-12.867-14.08-19.403-15.389-19.403-15.389l3.88-3.847c0,0,25.229,17.835,31.044,30.778c5.815,12.943,7.761,23.083,7.761,23.083
	h-3.88C268.358,162.528,261.823,141.982,248.956,127.903z M217.912,85.584c-16.246-1.294-23.283,0-23.283,0l-3.88-3.847
	c0,0,26.542-4.817,34.925,0c8.383,4.817,19.403,26.93,19.403,26.93h-3.88C241.195,108.667,234.158,86.878,217.912,85.584z
	 M171.346,74.042c-9.504,2.453-17.692,5.461-15.522,19.236c2.17,13.775,12.008,14.997,19.402,15.389c7.395,0.392,15.522,0,15.522,0
	c0.457-16.917,15.522-11.542,15.522-11.542v3.847c0,0-3.249-0.745-7.761,0c-4.512,0.745-7.655,14.254-3.881,23.083
	c3.774,8.829,1.657,7.587,27.164,11.542s38.805,30.778,38.805,30.778h-3.88c0,0-15.574-24.078-34.925-26.93
	c-19.351-2.853-25.307-5.872-27.164-7.694c-1.706-1.674-3.932-5.506-3.929-19.232c-0.532,0.049-32.898,2.991-38.756-11.546
	c-5.907-14.658,1.354-23.584,3.88-26.93c2.526-3.346,18.436-6.011,27.164-3.847c8.727,2.164,11.641,7.694,11.641,7.694h-7.761
	C186.868,77.889,180.85,71.589,171.346,74.042z M248.956,201H124.779v-23.083h124.176V201z M51.05,177.917h69.849V201H51.05V177.917
	z M102.662,12.38l-96.263,95.13L0,101.185L102.39,0l0.272,0.269V0h10.266v168.531h-10.266V12.38z M260.597,201h-7.761v-23.083h7.761
	V201z"/>
</svg>
