<?xml version="1.0" encoding="iso-8859-1"?>
<!-- Generator: Adobe Illustrator 18.0.0, SVG Export Plug-In . SVG Version: 6.00 Build 0)  -->
<!DOCTYPE svg PUBLIC "-//W3C//DTD SVG 1.1//EN" "http://www.w3.org/Graphics/SVG/1.1/DTD/svg11.dtd">
<svg version="1.1" id="&#x421;&#x43B;&#x43E;&#x439;_1"
	 xmlns="http://www.w3.org/2000/svg" xmlns:xlink="http://www.w3.org/1999/xlink" x="0px" y="0px" viewBox="0 0 280 199"
	 style="enable-background:new 0 0 280 199;" xml:space="preserve">
<path style="fill-rule:evenodd;clip-rule:evenodd;fill:#A6A6A6;" d="M280,90.361l-8.334,5.648L146.301,11.055L140,5.845l-6.301,5.21
	L8.334,96.008L0,90.361L133.117,0.154L132.931,0h0.768h12.601h0.769l-0.187,0.154L280,90.361z M94.899,199H25.05v-23.083h69.849V199
	z M222.956,199H98.78v-23.083h124.176V199z M234.597,199h-7.761v-23.083h7.761V199z M246.239,160.528h-3.881
	c0,0-6.535-20.545-19.403-34.625c-12.867-14.08-19.403-15.389-19.403-15.389l3.88-3.847c0,0,25.229,17.835,31.044,30.778
	C244.293,150.388,246.239,160.528,246.239,160.528z M199.673,79.736c8.383,4.817,19.403,26.93,19.403,26.93h-3.88
	c0,0-7.037-21.789-23.283-23.083c-16.246-1.294-23.283,0-23.283,0l-3.88-3.847C164.748,79.736,191.29,74.92,199.673,79.736z
	 M195.792,133.597c25.506,3.955,38.805,30.778,38.805,30.778h-3.881c0,0-15.574-24.078-34.925-26.93
	c-19.351-2.853-25.307-5.872-27.164-7.694c-1.706-1.674-3.932-5.506-3.929-19.232c-0.532,0.049-32.898,2.991-38.756-11.546
	c-5.907-14.658,1.354-23.584,3.88-26.93c2.526-3.346,18.436-6.011,27.164-3.847c8.727,2.164,11.641,7.694,11.641,7.694h-7.761
	c0,0-6.018-6.3-15.522-3.847c-9.504,2.453-17.692,5.461-15.522,19.236c2.17,13.775,12.008,14.997,19.402,15.389
	c7.395,0.392,15.522,0,15.522,0c0.457-16.917,15.522-11.542,15.522-11.542v3.847c0,0-3.249-0.745-7.761,0
	c-4.512,0.745-7.655,14.254-3.881,23.083C172.403,130.885,170.286,129.643,195.792,133.597z M254,199h-15.522v-23.083H254V199z"/>
</svg>
