<?xml version="1.0" encoding="utf-8"?>
<!-- Generator: Adobe Illustrator 18.0.0, SVG Export Plug-In . SVG Version: 6.00 Build 0)  -->
<!DOCTYPE svg PUBLIC "-//W3C//DTD SVG 1.1//EN" "http://www.w3.org/Graphics/SVG/1.1/DTD/svg11.dtd">
<svg version="1.1" id="Layer_1" xmlns="http://www.w3.org/2000/svg" xmlns:xlink="http://www.w3.org/1999/xlink" x="0px" y="0px"
	 viewBox="0 0 280 280" style="enable-background:new 0 0 280 280;" xml:space="preserve">
<style type="text/css">
	.st0{fill:#A6A6A6;}
</style>
<g>
	<path class="st0" d="M126.9,38.6c54.7-3.9,110.6,16.5,149.5,55c5.1,5.3,4.5,14.5-1,19.3c-5,5.8-14.9,6-20,0.2
		C222.2,81,175,63.6,128.8,67.1c-38.4,2.5-75.7,19-103.6,45.6c-2.5,2.5-5.6,4.6-9.3,4.8c-9.1,1.1-17.6-8.5-15.6-17.4
		c0.6-3.2,2.6-5.9,5-8C37.9,60.8,81.8,41.6,126.9,38.6z"/>
	<path class="st0" d="M125.5,92.2c41.9-4.6,85.4,10.9,115,40.8c4.6,5.3,4.1,13.9-1.1,18.7c-4.7,5.7-14.2,6.4-19.5,1.2
		c-19-18.7-44.6-30.6-71.2-32.5c-32.3-2.7-65.3,9.6-88.3,32.3c-5.3,5.6-15.2,5-20-1c-5.1-4.9-5.6-13.7-0.6-18.9
		C62.6,110,93.5,95.5,125.5,92.2L125.5,92.2z"/>
	<path class="st0" d="M131.7,145c26.4-2.6,53.8,7.5,72.1,26.6c5,5.3,4.5,14.3-0.8,19.1c-4.8,5.8-14.5,6.2-19.7,0.7
		c-10.4-10.5-24.7-17.2-39.6-18.1c-16.9-1.2-34,5.5-45.9,17.3c-2.9,3.3-7.3,5.3-11.8,4.8c-10.4-0.7-17.6-14.6-10.5-23
		C90,156.8,110.6,147.1,131.7,145L131.7,145z"/>
	<path class="st0" d="M135.8,194.4c17-2.9,34.3,11.2,34.9,28.5c1.6,16.9-13.4,33-30.4,32.6c-15.3,0.5-29.4-12.2-30.8-27.3
		C107.3,212.2,119.8,196.3,135.8,194.4L135.8,194.4z"/>
</g>
</svg>
