<?xml version="1.0" encoding="UTF-8" standalone="no"?>
<svg width="27px" height="27px" viewBox="0 0 27 27" version="1.1" xmlns="http://www.w3.org/2000/svg" xmlns:xlink="http://www.w3.org/1999/xlink" xmlns:sketch="http://www.bohemiancoding.com/sketch/ns">
    <!-- Generator: Sketch 3.3.1 (12002) - http://www.bohemiancoding.com/sketch -->
    <title>verif_user</title>
    <desc>Created with Sketch.</desc>
    <defs></defs>
    <g id="give/-get-food" stroke="none" stroke-width="1" fill="none" fill-rule="evenodd" sketch:type="MSPage">
        <g id="menu(logged)" sketch:type="MSArtboardGroup" transform="translate(-319.000000, -85.000000)">
            <g id="user" sketch:type="MSLayerGroup" transform="translate(0.000000, -0.500000)">
                <g id="verif_user" transform="translate(319.500000, 86.000000)" sketch:type="MSShapeGroup">
                    <path d="M26.0086667,12.9956667 C26.0086667,11.5598889 24.8444444,10.2902222 23.4072222,10.3927778 C22.8698889,10.4288889 21.2766667,10.8044444 19.4956667,11.2565556 C21.2651111,10.7582222 22.8323333,10.2873333 23.3162222,10.0518889 C24.6118889,9.42211111 24.9845556,7.74077778 24.2666667,6.49711111 C23.5487778,5.25344444 21.905,4.73633333 20.7118889,5.54233333 C20.2655556,5.84422222 19.0724444,6.96366667 17.7565556,8.24633333 C19.0406667,6.93044444 20.1615556,5.73877778 20.462,5.29388889 C21.2694444,4.10077778 20.7508889,2.45844444 19.5057778,1.74055556 C18.2621111,1.02266667 16.5793333,1.39533333 15.9495556,2.68955556 C15.7141111,3.17344444 15.2417778,4.73777778 14.7434444,6.50577778 C15.197,4.72622222 15.5711111,3.13444444 15.6086667,2.59855556 C15.7112222,1.16277778 14.4401111,0 13.0043333,0 C11.5671111,0 10.2974444,1.16277778 10.3985556,2.59855556 C10.4361111,3.13588889 10.8102222,4.72622222 11.2637778,6.50577778 C10.7668889,4.73777778 10.2945556,3.17344444 10.0576667,2.68955556 C9.42788889,1.39533333 7.74655556,1.02266667 6.50144444,1.74055556 C5.25777778,2.45844444 4.73922222,4.10077778 5.54522222,5.29388889 C5.84711111,5.74022222 6.96655556,6.93044444 8.25066667,8.24633333 C6.93477778,6.96222222 5.74455556,5.84422222 5.29677778,5.54233333 C4.10366667,4.73633333 2.45988889,5.25488889 1.742,6.49711111 C1.02411111,7.73933333 1.39677778,9.42066667 2.69244444,10.0518889 C3.17777778,10.2873333 4.74211111,10.7596667 6.513,11.2565556 C4.73055556,10.803 3.13877778,10.4288889 2.6,10.3913333 C1.16277778,10.2902222 0,11.5598889 0,12.9956667 C0,14.4314444 1.16277778,15.7011111 2.6,15.6 C3.13733333,15.5624444 4.72911111,15.1883333 6.51011111,14.7347778 C4.74066667,15.2316667 3.17488889,15.704 2.691,15.9394444 C1.39677778,16.5692222 1.02411111,18.2505556 1.742,19.4942222 C2.45988889,20.7364444 4.10366667,21.255 5.29677778,20.449 C5.74311111,20.1471111 6.93477778,19.0276667 8.25066667,17.745 C6.96655556,19.0608889 5.84711111,20.2511111 5.54522222,20.6974444 C4.73922222,21.8905556 5.25777778,23.5328889 6.50144444,24.2507778 C7.74511111,24.9686667 9.42788889,24.596 10.0576667,23.3017778 C10.2945556,22.8178889 10.7654444,21.2535556 11.2637778,19.4841111 C10.8102222,21.2651111 10.4361111,22.8554444 10.3971111,23.3927778 C10.296,24.8285556 11.5656667,25.9927778 13.0028889,25.9927778 C14.4386667,25.9927778 15.7097778,24.83 15.6086667,23.3927778 C15.5711111,22.8554444 15.1955556,21.2636667 14.742,19.4841111 C15.2403333,21.2521111 15.7126667,22.8178889 15.9481111,23.3017778 C16.5793333,24.596 18.2606667,24.9686667 19.5043333,24.2507778 C20.748,23.5328889 21.2665556,21.8905556 20.4605556,20.6974444 C20.1586667,20.2511111 19.0392222,19.0594444 17.7551111,17.7435556 C19.071,19.0276667 20.2641111,20.1471111 20.7104444,20.449 C21.9035556,21.255 23.5473333,20.7364444 24.2652222,19.4942222 C24.9831111,18.2505556 24.6104444,16.5692222 23.3147778,15.9394444 C22.8294444,15.704 21.2636667,15.2316667 19.4942222,14.7347778 C21.2766667,15.1883333 22.8684444,15.5624444 23.4057778,15.6 C24.8444444,15.6996667 26.0086667,14.4314444 26.0086667,12.9956667 L26.0086667,12.9956667 Z" id="Shape" fill="#A9CD59"></path>
                    <path d="M18.8551606,9.80073879 L11.5169488,17.0779935 C11.4799732,17.1400743 11.4352131,17.2036333 11.3748844,17.264236 L11.0309133,17.6125785 C10.8411697,17.8047335 10.6173696,17.8904642 10.5312552,17.8032554 L7.03608093,14.099591 C6.95045305,14.0128749 7.03462136,13.7862305 7.22485148,13.5935828 L7.56882255,13.2452403 C7.75905267,13.0525926 7.98236628,12.9673546 8.06848068,13.0540707 L10.6879153,15.8304641 L17.8227609,8.75472582 C18.0125045,8.56257082 18.3209594,8.56257082 18.510703,8.75472582 L18.8546741,9.10306834 C19.0449042,9.29620875 19.0449042,9.60809109 18.8551606,9.80073879 L18.8551606,9.80073879 Z" id="active-2" fill="#FFFFFF"></path>
                </g>
            </g>
        </g>
    </g>
</svg>