<?xml version="1.0" encoding="UTF-8" standalone="no"?>
<svg width="417px" height="329px" viewBox="0 0 417 329" version="1.1" xmlns="http://www.w3.org/2000/svg" xmlns:xlink="http://www.w3.org/1999/xlink" xmlns:sketch="http://www.bohemiancoding.com/sketch/ns">
    <!-- Generator: Sketch 3.3.1 (12002) - http://www.bohemiancoding.com/sketch -->
    <title>text</title>
    <desc>Created with Sketch.</desc>
    <defs></defs>
    <g id="sign-in+-sign-up" stroke="none" stroke-width="1" fill="none" fill-rule="evenodd" sketch:type="MSPage">
        <g id="intro" sketch:type="MSArtboardGroup" transform="translate(-90.000000, -92.000000)">
            <g id="text" sketch:type="MSLayerGroup" transform="translate(90.000000, 92.000000)">
                <path d="M179.975713,212.386442 L0,212.386442 L0,210.951613 L179.975713,210.951613 L179.975713,212.386442 L179.975713,212.386442 Z M240.626869,212.386442 L408.736052,212.386442 L408.736052,210.951613 L240.626869,210.951613 L240.626869,212.386442 L240.626869,212.386442 Z M225.784318,204.435321 L220.384716,209.880237 C219.949143,209.902768 219.491041,209.910278 219.040448,209.895258 L225.401314,203.534093 L224.199734,201.806741 L216.682347,209.32448 C216.48709,209.211827 216.306853,209.076643 216.141636,208.918928 C215.998948,208.783744 215.87879,208.633539 215.773652,208.475824 L223.328588,200.920534 L221.541237,199.778979 L215.187882,206.132633 C215.172862,205.599406 215.210411,205.05116 215.25547,204.540464 L220.602503,199.238242 C220.602503,199.238242 219.340843,199.148119 218.221872,199.313344 C217.290647,199.448529 214.744799,201.754169 213.896183,202.535233 C211.04243,205.07369 211.072469,208.65607 212.949938,211.081874 L209.998557,213.89821 L206.949547,210.984241 C208.819506,208.558437 208.699348,205.118752 205.943223,202.362498 C202.939273,199.358406 198.530975,198.892772 196.105285,201.326086 C193.679595,203.7594 194.137697,208.160395 197.141648,211.164486 C199.897773,213.92074 203.337296,214.040904 205.762986,212.170857 L208.646779,215.189969 L200.566152,222.902975 L202.323463,224.660368 L209.983537,216.631933 L217.530963,224.547715 L219.288274,222.790321 L211.342825,215.20499 L214.128989,212.291021 C216.457051,214.108496 219.656258,214.131027 222.134517,211.585059 C222.134517,211.585059 222.142027,211.577549 222.149537,211.570039 C222.232146,211.479916 222.322264,211.389793 222.404873,211.29967 C222.412383,211.29216 222.412383,211.28465 222.419893,211.28465 C223.238469,210.383422 225.574041,207.762352 225.709219,206.838594 C225.874436,205.697039 225.784318,204.435321 225.784318,204.435321 Z" id="Rectangle-89" fill="#C8C8C8" sketch:type="MSShapeGroup"></path>
                <path d="M1.3372361,151.788878 L6.4230688,151.788878 L6.4230688,185.122666 L14.7915753,185.122666 L14.7915753,190.678298 L1.3372361,190.678298 L1.3372361,151.788878 Z M30.9275662,161.122339 C30.9275662,157.974132 31.5902589,155.557456 32.9156644,153.87224 C34.2410698,152.187023 36.1520909,151.344427 38.6487849,151.344427 C41.1454789,151.344427 43.0564999,152.187023 44.3819054,153.87224 C45.7073108,155.557456 46.3700036,157.974132 46.3700036,161.122339 L46.3700036,181.344837 C46.3700036,184.493044 45.7073108,186.909719 44.3819054,188.594936 C43.0564999,190.280153 41.1454789,191.122748 38.6487849,191.122748 C36.1520909,191.122748 34.2410698,190.280153 32.9156644,188.594936 C31.5902589,186.909719 30.9275662,184.493044 30.9275662,181.344837 L30.9275662,161.122339 Z M36.0133988,181.733731 C36.0133988,183.141165 36.2522765,184.131909 36.7300389,184.705994 C37.2078013,185.280079 37.8473769,185.567117 38.6487849,185.567117 C39.4501928,185.567117 40.0897684,185.280079 40.5675308,184.705994 C41.0452933,184.131909 41.2841709,183.141165 41.2841709,181.733731 L41.2841709,160.733444 C41.2841709,159.326011 41.0452933,158.335266 40.5675308,157.761182 C40.0897684,157.187097 39.4501928,156.900059 38.6487849,156.900059 C37.8473769,156.900059 37.2078013,157.187097 36.7300389,157.761182 C36.2522765,158.335266 36.0133988,159.326011 36.0133988,160.733444 L36.0133988,181.733731 Z M71.6142584,183.511533 L75.4979852,151.788878 L80.1677043,151.788878 L75.1743413,190.678298 L67.5918271,190.678298 L62.5984641,151.788878 L67.7305317,151.788878 L71.6142584,183.511533 Z M101.944346,168.17799 L108.925807,168.17799 L108.925807,173.733622 L101.944346,173.733622 L101.944346,185.122666 L110.728966,185.122666 L110.728966,190.678298 L96.8585133,190.678298 L96.8585133,151.788878 L110.728966,151.788878 L110.728966,157.344509 L101.944346,157.344509 L101.944346,168.17799 Z M154.790833,168.17799 L161.772294,168.17799 L161.772294,173.733622 L154.790833,173.733622 L154.790833,185.122666 L163.575453,185.122666 L163.575453,190.678298 L149.705,190.678298 L149.705,151.788878 L163.575453,151.788878 L163.575453,157.344509 L154.790833,157.344509 L154.790833,168.17799 Z M197.511858,190.678298 L192.37979,190.678298 L191.501328,183.622646 L185.259625,183.622646 L184.381163,190.678298 L179.711444,190.678298 L184.889746,151.788878 L192.333556,151.788878 L197.511858,190.678298 Z M185.906912,178.344796 L190.807806,178.344796 L188.357359,158.677861 L185.906912,178.344796 Z M210.966228,151.788878 L226.686074,151.788878 L226.686074,157.344509 L221.369068,157.344509 L221.369068,190.678298 L216.283235,190.678298 L216.283235,157.344509 L210.966228,157.344509 L210.966228,151.788878 Z M264.090124,161.122339 C264.090124,157.974132 264.714288,155.557456 265.962635,153.87224 C267.210982,152.187023 269.083474,151.344427 271.580168,151.344427 C274.076862,151.344427 275.949355,152.187023 277.197702,153.87224 C278.446049,155.557456 279.070213,157.974132 279.070213,161.122339 L279.070213,162.344577 L274.261789,162.344577 L274.261789,160.733444 C274.261789,159.326011 274.038323,158.335266 273.591384,157.761182 C273.144445,157.187097 272.520281,156.900059 271.718873,156.900059 C270.917465,156.900059 270.293301,157.187097 269.846362,157.761182 C269.399423,158.335266 269.175956,159.326011 269.175956,160.733444 C269.175956,162.066803 269.42254,163.242733 269.915714,164.26127 C270.408888,165.279808 271.025346,166.242774 271.765108,167.150199 C272.504869,168.057623 273.298559,168.965034 274.146202,169.872458 C274.993845,170.779882 275.787535,171.770627 276.527296,172.844721 C277.267058,173.918815 277.883516,175.141042 278.37669,176.511438 C278.869864,177.881834 279.116448,179.492951 279.116448,181.344837 C279.116448,184.493044 278.476872,186.909719 277.197702,188.594936 C275.918531,190.280153 274.030627,191.122748 271.533933,191.122748 C269.037239,191.122748 267.149335,190.280153 265.870165,188.594936 C264.590995,186.909719 263.951419,184.493044 263.951419,181.344837 L263.951419,178.955915 L268.759843,178.955915 L268.759843,181.733731 C268.759843,183.141165 268.99872,184.12265 269.476483,184.678216 C269.954245,185.233782 270.593821,185.51156 271.395229,185.51156 C272.196637,185.51156 272.836212,185.233782 273.313975,184.678216 C273.791737,184.12265 274.030615,183.141165 274.030615,181.733731 C274.030615,180.400373 273.784031,179.224443 273.290857,178.205905 C272.797683,177.187368 272.181225,176.224401 271.441464,175.316977 C270.701702,174.409552 269.908012,173.502142 269.060369,172.594717 C268.212726,171.687293 267.419036,170.696549 266.679275,169.622455 C265.939514,168.548361 265.323055,167.326134 264.829881,165.955738 C264.336707,164.585342 264.090124,162.974225 264.090124,161.122339 Z M301.447907,190.678298 L296.362075,190.678298 L296.362075,151.788878 L301.447907,151.788878 L301.447907,168.455772 L307.227263,168.455772 L307.227263,151.788878 L312.405565,151.788878 L312.405565,190.678298 L307.227263,190.678298 L307.227263,174.011403 L301.447907,174.011403 L301.447907,190.678298 Z M346.896788,190.678298 L341.764721,190.678298 L340.886259,183.622646 L334.644555,183.622646 L333.766093,190.678298 L329.096374,190.678298 L334.274676,151.788878 L341.718486,151.788878 L346.896788,190.678298 Z M335.291843,178.344796 L340.192736,178.344796 L337.74229,158.677861 L335.291843,178.344796 Z M374.221611,190.678298 C374.159964,190.419034 374.098319,190.178292 374.036672,189.956066 C373.975025,189.733839 373.921085,189.45606 373.87485,189.122721 C373.828615,188.789381 373.797792,188.363454 373.78238,187.844926 C373.766968,187.326397 373.759263,186.678247 373.759263,185.900455 L373.759263,179.78926 C373.759263,177.974411 373.497268,176.696629 372.97327,175.955874 C372.449273,175.21512 371.601643,174.844748 370.430354,174.844748 L368.67343,174.844748 L368.67343,190.678298 L363.587597,190.678298 L363.587597,151.788878 L371.262581,151.788878 C373.913392,151.788878 375.832119,152.529621 377.018819,154.01113 C378.205519,155.492639 378.798861,157.733388 378.798861,160.733444 L378.798861,163.789042 C378.798861,167.789116 377.689235,170.418755 375.469952,171.678038 C376.764534,172.30768 377.650693,173.335461 378.128455,174.761414 C378.606218,176.187366 378.845095,177.918854 378.845095,179.955929 L378.845095,185.956011 C378.845095,186.918992 378.875918,187.761588 378.937565,188.483823 C378.999212,189.206059 379.153326,189.937543 379.399914,190.678298 L374.221611,190.678298 Z M368.67343,157.344509 L368.67343,169.289117 L370.661528,169.289117 C371.617053,169.289117 372.364509,168.992819 372.903918,168.400216 C373.443327,167.807612 373.713028,166.733534 373.713028,165.177949 L373.713028,161.344564 C373.713028,159.93713 373.504973,158.918608 373.088857,158.288967 C372.672742,157.659325 372.017755,157.344509 371.123877,157.344509 L368.67343,157.344509 Z M401.592669,168.17799 L408.57413,168.17799 L408.57413,173.733622 L401.592669,173.733622 L401.592669,185.122666 L410.377289,185.122666 L410.377289,190.678298 L396.506836,190.678298 L396.506836,151.788878 L410.377289,151.788878 L410.377289,157.344509 L401.592669,157.344509 L401.592669,168.17799 Z" id="Love-Eat-Share" fill="#747474" sketch:type="MSShapeGroup"></path>
                <path d="M0.584070558,4.25576487 L58.0255131,4.25576487 L58.0255131,28.6747496 L43.8642946,28.6747496 L43.8642946,114.540779 L73.0718078,114.540779 C73.8388777,114.540779 74.5911849,114.318791 75.328752,113.874807 C76.0663192,113.430823 76.7153685,112.853653 77.2759196,112.143279 C77.8364706,111.432905 78.2937554,110.663345 78.6477876,109.834575 C79.0018198,109.005805 79.1788333,108.206647 79.1788333,107.437075 L79.1788333,89.4114242 L107.855301,89.4114242 L107.855301,138.870968 L0.584070558,138.870968 L0.584070558,114.540779 L14.4797662,114.540779 L14.4797662,28.6747496 L0.584070558,28.6747496 L0.584070558,4.25576487 Z M111.954654,124.485966 C111.954654,122.118052 112.382436,119.898167 113.238014,117.826243 C114.093592,115.754319 115.303184,113.919213 116.866827,112.320872 C118.430469,110.72253 120.274359,109.464595 122.398553,108.547029 C124.522746,107.629462 126.794419,107.170686 129.213639,107.170686 C131.514848,107.170686 133.712766,107.629462 135.807456,108.547029 C137.902147,109.464595 139.731286,110.707731 141.294928,112.276474 C142.858571,113.845216 144.082914,115.695121 144.967995,117.826243 C145.853075,119.957365 146.295609,122.17725 146.295609,124.485966 C146.295609,126.853879 145.838324,129.103363 144.923741,131.234485 C144.009157,133.365607 142.784814,135.200713 141.250675,136.739856 C139.716535,138.279 137.916898,139.507337 135.85171,140.424903 C133.786522,141.34247 131.573854,141.801246 129.213639,141.801246 C126.735413,141.801246 124.448989,141.34247 122.354299,140.424903 C120.259608,139.507337 118.430469,138.279 116.866827,136.739856 C115.303184,135.200713 114.093592,133.380407 113.238014,131.278883 C112.382436,129.17736 111.954654,126.913077 111.954654,124.485966 Z M158.62617,4.25576487 L265.366355,4.25576487 L265.366355,50.1634561 L236.512872,50.1634561 L236.512872,31.0722499 L202.083409,31.0722499 L202.083409,57.622346 L228.724202,57.622346 L228.724202,83.3732753 L202.083409,83.3732753 L202.083409,114.540779 L236.512872,114.540779 L236.512872,90.6545725 L265.366355,90.6545725 L265.366355,138.870968 L158.62617,138.870968 L158.62617,114.540779 L172.698881,114.540779 L172.698881,31.0722499 L158.62617,31.0722499 L158.62617,4.25576487 Z M273.006012,124.485966 C273.006012,122.118052 273.433795,119.898167 274.289373,117.826243 C275.144951,115.754319 276.354543,113.919213 277.918185,112.320872 C279.481827,110.72253 281.325718,109.464595 283.449911,108.547029 C285.574104,107.629462 287.845777,107.170686 290.264997,107.170686 C292.566207,107.170686 294.764124,107.629462 296.858815,108.547029 C298.953506,109.464595 300.782645,110.707731 302.346287,112.276474 C303.909929,113.845216 305.134273,115.695121 306.019353,117.826243 C306.904434,119.957365 307.346967,122.17725 307.346967,124.485966 C307.346967,126.853879 306.889683,129.103363 305.975099,131.234485 C305.060516,133.365607 303.836173,135.200713 302.302033,136.739856 C300.767894,138.279 298.968257,139.507337 296.903069,140.424903 C294.837881,141.34247 292.625212,141.801246 290.264997,141.801246 C287.786772,141.801246 285.500348,141.34247 283.405657,140.424903 C281.310967,139.507337 279.481827,138.279 277.918185,136.739856 C276.354543,135.200713 275.144951,133.380407 274.289373,131.278883 C273.433795,129.17736 273.006012,126.913077 273.006012,124.485966 Z M384.199581,42.1717884 C383.904554,40.0998642 383.181749,38.1463649 382.031144,36.311232 C380.880539,34.4760992 379.405427,32.8925808 377.605763,31.5606296 C375.806099,30.2286783 373.770445,29.1779325 371.498738,28.4083606 C369.227031,27.6387888 366.8521,27.2540086 364.373875,27.2540086 C362.13167,27.2540086 360.037011,27.4907964 358.089834,27.9643791 C356.142657,28.4379618 354.446278,29.1631244 353.000646,30.1398886 C351.555014,31.1166529 350.404427,32.374588 349.548849,33.9137317 C348.693271,35.4528754 348.265489,37.2879808 348.265489,39.4191028 C348.265489,42.0830054 348.840782,44.1992962 349.991387,45.7680388 C351.141992,47.3367815 352.617104,48.624315 354.416768,49.6306782 C356.216432,50.6370414 358.207833,51.4362002 360.391032,52.0281786 C362.574231,52.6201569 364.698392,53.2713233 366.76358,53.9816973 L391.103175,62.1509577 C394.466481,63.3349144 397.623221,64.9628304 400.573489,67.0347546 C403.523758,69.1066788 406.075702,71.622549 408.229398,74.5824408 C410.383094,77.5423325 412.079473,80.9461569 413.318586,84.7940162 C414.557699,88.6418754 415.177246,92.9632525 415.177246,97.7582772 C415.177246,104.270039 413.982405,110.219332 411.592688,115.606335 C409.20297,120.993338 405.854465,125.6107 401.547073,129.458559 C397.239681,133.306418 392.076788,136.295864 386.05824,138.426986 C380.039693,140.558108 373.372185,141.623653 366.055519,141.623653 C360.922052,141.623653 356.068933,141.046483 351.496017,139.892125 C346.9231,138.737768 342.748533,137.065454 338.972189,134.875134 C335.195845,132.684814 331.891594,130.065349 329.059336,127.016661 C326.227078,123.967972 324.01441,120.51975 322.421265,116.671891 L313.30498,116.671891 L313.30498,89.9442021 L345.344737,89.9442021 L345.344737,95.4495731 C345.344737,98.1134757 345.77252,100.570149 346.628098,102.819667 C347.483676,105.069184 348.767023,107.022684 350.478179,108.680223 C352.189335,110.337762 354.342999,111.625296 356.939235,112.542862 C359.535471,113.460429 362.574202,113.919205 366.055519,113.919205 C371.366003,113.919205 375.40781,112.690869 378.181063,110.234158 C380.954315,107.777448 382.340921,104.358825 382.340921,99.9781849 C382.340921,97.7286671 381.854134,95.8491641 380.880545,94.3396193 C379.906956,92.8300745 378.653111,91.5573402 377.118971,90.5213781 C375.584832,89.4854159 373.873701,88.612261 371.98553,87.901887 C370.097358,87.191513 368.238716,86.5403465 366.40955,85.9483682 L346.141306,79.3774414 C342.305957,78.1934847 338.603425,76.5359702 335.0336,74.4048482 C331.463775,72.2737261 328.307035,69.6098635 325.563285,66.4131804 C322.819535,63.2164974 320.636369,59.4722905 319.013722,55.1804475 C317.391074,50.8886045 316.579762,45.9900571 316.579762,40.4846585 C316.579762,34.0912924 317.759852,28.3935863 320.120067,23.3913692 C322.480282,18.3891522 325.784533,14.1713698 330.03292,10.7378954 C334.281307,7.30442094 339.32619,4.69975529 345.167722,2.92382025 C351.009254,1.14788521 357.411241,0.259931011 364.373875,0.259931011 C369.861374,0.259931011 374.93576,0.896298187 379.597185,2.16905163 C384.258609,3.44180508 388.433176,5.14371729 392.121012,7.27483934 C395.808848,9.40596139 398.936086,11.8478354 401.502819,14.6005347 C404.069553,17.3532341 406.031452,20.2094867 407.388576,23.1693785 L416.239337,23.1693785 L416.239337,49.9858635 L384.199581,49.9858635 L384.199581,42.1717884 Z" id="L.E.S" fill="#D34B4B" sketch:type="MSShapeGroup"></path>
                <path d="M9.12288029,256.270752 L12.5415628,233.098844 L16.6521215,233.098844 L12.2566726,261.505736 L5.58210198,261.505736 L1.18665305,233.098844 L5.70419779,233.098844 L9.12288029,256.270752 Z M18.7277502,233.098844 L23.2045963,233.098844 L23.2045963,261.505736 L18.7277502,261.505736 L18.7277502,233.098844 Z M25.890704,239.916498 C25.890704,237.616881 26.4401296,235.851613 27.5389973,234.620642 C28.6378651,233.38967 30.2861419,232.774194 32.4838774,232.774194 C34.6816128,232.774194 36.3298897,233.38967 37.4287574,234.620642 C38.5276252,235.851613 39.0770508,237.616881 39.0770508,239.916498 L39.0770508,240.809286 L34.8443963,240.809286 L34.8443963,239.632429 C34.8443963,238.604365 34.6476883,237.880673 34.2542665,237.461331 C33.8608448,237.041989 33.3114191,236.832321 32.6059732,236.832321 C31.9005272,236.832321 31.3511016,237.041989 30.9576798,237.461331 C30.5642581,237.880673 30.3675501,238.604365 30.3675501,239.632429 C30.3675501,240.606384 30.5846072,241.465346 31.0187277,242.20934 C31.4528483,242.953334 31.9954909,243.656735 32.6466718,244.319566 C33.2978527,244.982397 33.996505,245.645218 34.7426498,246.308049 C35.4887945,246.97088 36.1874468,247.694572 36.8386277,248.479147 C37.4898086,249.263722 38.0324512,250.156501 38.4665718,251.157511 C38.9006923,252.158521 39.1177494,253.335366 39.1177494,254.688082 C39.1177494,256.987699 38.5547577,258.752967 37.4287574,259.983938 C36.3027572,261.21491 34.6409142,261.830386 32.4431788,261.830386 C30.2454433,261.830386 28.5836004,261.21491 27.4576001,259.983938 C26.3315999,258.752967 25.7686082,256.987699 25.7686082,254.688082 L25.7686082,252.943087 L30.0012627,252.943087 L30.0012627,254.972151 C30.0012627,256.000215 30.2115367,256.717144 30.632091,257.122959 C31.0526453,257.528773 31.615637,257.731678 32.321083,257.731678 C33.0265289,257.731678 33.5895206,257.528773 34.0100749,257.122959 C34.4306292,256.717144 34.6409032,256.000215 34.6409032,254.972151 C34.6409032,253.998196 34.4238462,253.139234 33.9897256,252.39524 C33.555605,251.651246 33.0129625,250.947845 32.3617816,250.285014 C31.7106007,249.622183 31.0119484,248.959362 30.2658036,248.296531 C29.5196589,247.6337 28.8210065,246.910008 28.1698257,246.125433 C27.5186448,245.340858 26.9760022,244.448079 26.5418816,243.447069 C26.107761,242.446059 25.890704,241.269214 25.890704,239.916498 L25.890704,239.916498 Z M41.6817613,233.098844 L46.1586074,233.098844 L46.1586074,261.505736 L41.6817613,261.505736 L41.6817613,233.098844 Z M48.1121402,233.098844 L61.9496647,233.098844 L61.9496647,237.156971 L57.2693255,237.156971 L57.2693255,261.505736 L52.7924794,261.505736 L52.7924794,237.156971 L48.1121402,237.156971 L48.1121402,233.098844 Z M76.8046541,233.098844 C79.0566546,233.098844 80.7320636,233.69403 81.8309314,234.88442 C82.9297991,236.07481 83.4792247,237.819787 83.4792247,240.119404 L83.4792247,243.8123 C83.4792247,246.111917 82.9297991,247.856895 81.8309314,249.047285 C80.7320636,250.237675 79.0566546,250.832861 76.8046541,250.832861 L74.6883268,250.832861 L74.6883268,261.505736 L70.2114807,261.505736 L70.2114807,233.098844 L76.8046541,233.098844 Z M74.6883268,237.156971 L74.6883268,246.774733 L76.8046541,246.774733 C77.5101001,246.774733 78.0527426,246.585356 78.4325982,246.206596 C78.8124537,245.827835 79.0023786,245.124433 79.0023786,244.096369 L79.0023786,239.835335 C79.0023786,238.807271 78.8124537,238.10387 78.4325982,237.725109 C78.0527426,237.346349 77.5101001,237.156971 76.8046541,237.156971 L74.6883268,237.156971 Z M90.0316995,245.07032 L96.1771883,245.07032 L96.1771883,249.128447 L90.0316995,249.128447 L90.0316995,257.447609 L97.7644337,257.447609 L97.7644337,261.505736 L85.5548534,261.505736 L85.5548534,233.098844 L97.7644337,233.098844 L97.7644337,237.156971 L90.0316995,237.156971 L90.0316995,245.07032 Z M104.642497,254.972151 C104.642497,256.000215 104.852771,256.723907 105.273326,257.143249 C105.69388,257.562591 106.256872,257.772259 106.962318,257.772259 C107.667764,257.772259 108.230755,257.562591 108.65131,257.143249 C109.071864,256.723907 109.282138,256.000215 109.282138,254.972151 L109.282138,239.632429 C109.282138,238.604365 109.071864,237.880673 108.65131,237.461331 C108.230755,237.041989 107.667764,236.832321 106.962318,236.832321 C106.256872,236.832321 105.69388,237.041989 105.273326,237.461331 C104.852771,237.880673 104.642497,238.604365 104.642497,239.632429 L104.642497,254.972151 Z M100.165651,239.916498 C100.165651,237.616881 100.748992,235.851613 101.915691,234.620642 C103.08239,233.38967 104.764582,232.774194 106.962318,232.774194 C109.160053,232.774194 110.842245,233.38967 112.008944,234.620642 C113.175643,235.851613 113.758984,237.616881 113.758984,239.916498 L113.758984,254.688082 C113.758984,256.987699 113.175643,258.752967 112.008944,259.983938 C110.842245,261.21491 109.160053,261.830386 106.962318,261.830386 C104.764582,261.830386 103.08239,261.21491 101.915691,259.983938 C100.748992,258.752967 100.165651,256.987699 100.165651,254.688082 L100.165651,239.916498 Z M123.241758,233.098844 C125.493759,233.098844 127.169168,233.69403 128.268035,234.88442 C129.366903,236.07481 129.916329,237.819787 129.916329,240.119404 L129.916329,243.8123 C129.916329,246.111917 129.366903,247.856895 128.268035,249.047285 C127.169168,250.237675 125.493759,250.832861 123.241758,250.832861 L121.125431,250.832861 L121.125431,261.505736 L116.648585,261.505736 L116.648585,233.098844 L123.241758,233.098844 Z M121.125431,237.156971 L121.125431,246.774733 L123.241758,246.774733 C123.947204,246.774733 124.489847,246.585356 124.869702,246.206596 C125.249558,245.827835 125.439483,245.124433 125.439483,244.096369 L125.439483,239.835335 C125.439483,238.807271 125.249558,238.10387 124.869702,237.725109 C124.489847,237.346349 123.947204,237.156971 123.241758,237.156971 L121.125431,237.156971 Z M131.991957,233.098844 L136.468803,233.098844 L136.468803,257.447609 L143.83525,257.447609 L143.83525,261.505736 L131.991957,261.505736 L131.991957,233.098844 Z M150.265629,245.07032 L156.411118,245.07032 L156.411118,249.128447 L150.265629,249.128447 L150.265629,257.447609 L157.998364,257.447609 L157.998364,261.505736 L145.788783,261.505736 L145.788783,233.098844 L157.998364,233.098844 L157.998364,237.156971 L150.265629,237.156971 L150.265629,245.07032 Z M181.562854,261.505736 L177.045309,261.505736 L176.272035,256.351914 L170.777724,256.351914 L170.004451,261.505736 L165.893892,261.505736 L170.452135,233.098844 L177.00461,233.098844 L181.562854,261.505736 Z M171.347505,252.496693 L175.661556,252.496693 L173.504531,238.130922 L171.347505,252.496693 Z M192.999161,261.505736 C192.944895,261.316356 192.890631,261.140506 192.836366,260.97818 C192.782101,260.815854 192.73462,260.612949 192.693921,260.369461 C192.653222,260.125972 192.62609,259.814852 192.612524,259.436091 C192.598958,259.057331 192.592175,258.583887 192.592175,258.015747 L192.592175,253.551806 C192.592175,252.226145 192.361551,251.292785 191.900298,250.751698 C191.439045,250.210612 190.692912,249.940073 189.661875,249.940073 L188.115328,249.940073 L188.115328,261.505736 L183.638482,261.505736 L183.638482,233.098844 L190.39445,233.098844 C192.727848,233.098844 194.416823,233.639922 195.461426,234.722095 C196.506029,235.804267 197.028322,237.441029 197.028322,239.632429 L197.028322,241.864399 C197.028322,244.786266 196.051565,246.707093 194.098023,247.62694 C195.237589,248.086864 196.017638,248.83761 196.438192,249.879201 C196.858747,250.920792 197.069021,252.185563 197.069021,253.67355 L197.069021,258.056328 C197.069021,258.75974 197.096153,259.375217 197.150418,259.902776 C197.204683,260.430335 197.340344,260.96465 197.557404,261.505736 L192.999161,261.505736 Z M188.115328,237.156971 L188.115328,245.881945 L189.865368,245.881945 C190.706477,245.881945 191.364431,245.665514 191.83925,245.232645 C192.31407,244.799776 192.551476,244.015212 192.551476,242.878931 L192.551476,240.078823 C192.551476,239.050759 192.368334,238.306776 192.002045,237.846853 C191.635756,237.38693 191.059198,237.156971 190.272354,237.156971 L188.115328,237.156971 Z M204.109879,254.972151 C204.109879,256.000215 204.320153,256.723907 204.740707,257.143249 C205.161261,257.562591 205.724253,257.772259 206.429699,257.772259 C207.135145,257.772259 207.698137,257.562591 208.118691,257.143249 C208.539245,256.723907 208.749519,256.000215 208.749519,254.972151 L208.749519,239.632429 C208.749519,238.604365 208.539245,237.880673 208.118691,237.461331 C207.698137,237.041989 207.135145,236.832321 206.429699,236.832321 C205.724253,236.832321 205.161261,237.041989 204.740707,237.461331 C204.320153,237.880673 204.109879,238.604365 204.109879,239.632429 L204.109879,254.972151 Z M199.633033,239.916498 C199.633033,237.616881 200.216373,235.851613 201.383072,234.620642 C202.549771,233.38967 204.231964,232.774194 206.429699,232.774194 C208.627434,232.774194 210.309626,233.38967 211.476326,234.620642 C212.643025,235.851613 213.226365,237.616881 213.226365,239.916498 L213.226365,254.688082 C213.226365,256.987699 212.643025,258.752967 211.476326,259.983938 C210.309626,261.21491 208.627434,261.830386 206.429699,261.830386 C204.231964,261.830386 202.549771,261.21491 201.383072,259.983938 C200.216373,258.752967 199.633033,256.987699 199.633033,254.688082 L199.633033,239.916498 Z M220.389319,233.098844 L220.389319,255.012732 C220.389319,256.040796 220.599593,256.757725 221.020147,257.16354 C221.440702,257.569355 222.003693,257.772259 222.709139,257.772259 C223.414585,257.772259 223.977577,257.569355 224.398131,257.16354 C224.818686,256.757725 225.02896,256.040796 225.02896,255.012732 L225.02896,233.098844 L229.261614,233.098844 L229.261614,254.728663 C229.261614,257.02828 228.698623,258.793548 227.572622,260.02452 C226.446622,261.255491 224.784779,261.870968 222.587044,261.870968 C220.389308,261.870968 218.727465,261.255491 217.601465,260.02452 C216.475465,258.793548 215.912473,257.02828 215.912473,254.728663 L215.912473,233.098844 L220.389319,233.098844 Z M236.302472,240.93103 L236.302472,261.505736 L232.273311,261.505736 L232.273311,233.098844 L237.889718,233.098844 L242.48866,250.102398 L242.48866,233.098844 L246.477123,233.098844 L246.477123,261.505736 L241.878181,261.505736 L236.302472,240.93103 Z M249.692312,233.098844 L256.773869,233.098844 C259.025869,233.098844 260.701278,233.69403 261.800146,234.88442 C262.899014,236.07481 263.448439,237.819787 263.448439,240.119404 L263.448439,254.485176 C263.448439,256.784793 262.899014,258.52977 261.800146,259.72016 C260.701278,260.91055 259.025869,261.505736 256.773869,261.505736 L249.692312,261.505736 L249.692312,233.098844 Z M254.169158,237.156971 L254.169158,257.447609 L256.692471,257.447609 C257.397917,257.447609 257.954126,257.244704 258.361114,256.83889 C258.768102,256.433075 258.971593,255.716146 258.971593,254.688082 L258.971593,239.916498 C258.971593,238.888434 258.768102,238.171505 258.361114,237.76569 C257.954126,237.359876 257.397917,237.156971 256.692471,237.156971 L254.169158,237.156971 Z M271.303269,233.098844 L285.140794,233.098844 L285.140794,237.156971 L280.460455,237.156971 L280.460455,261.505736 L275.983608,261.505736 L275.983608,237.156971 L271.303269,237.156971 L271.303269,233.098844 Z M291.571173,261.505736 L287.094327,261.505736 L287.094327,233.098844 L291.571173,233.098844 L291.571173,245.273226 L296.658498,245.273226 L296.658498,233.098844 L301.216741,233.098844 L301.216741,261.505736 L296.658498,261.505736 L296.658498,249.331354 L291.571173,249.331354 L291.571173,261.505736 Z M308.949475,245.07032 L315.094964,245.07032 L315.094964,249.128447 L308.949475,249.128447 L308.949475,257.447609 L316.68221,257.447609 L316.68221,261.505736 L304.472629,261.505736 L304.472629,233.098844 L316.68221,233.098844 L316.68221,237.156971 L308.949475,237.156971 L308.949475,245.07032 Z M335.688456,246.368921 L334.060512,261.505736 L327.915024,261.505736 L324.740533,233.098844 L329.095283,233.098844 L331.4965,255.499708 L333.653526,233.098844 L337.967578,233.098844 L340.206001,255.662033 L342.525821,233.098844 L346.432887,233.098844 L343.258396,261.505736 L337.3164,261.505736 L335.688456,246.368921 Z M352.781869,254.972151 C352.781869,256.000215 352.992143,256.723907 353.412697,257.143249 C353.833252,257.562591 354.396243,257.772259 355.101689,257.772259 C355.807135,257.772259 356.370127,257.562591 356.790681,257.143249 C357.211235,256.723907 357.421509,256.000215 357.421509,254.972151 L357.421509,239.632429 C357.421509,238.604365 357.211235,237.880673 356.790681,237.461331 C356.370127,237.041989 355.807135,236.832321 355.101689,236.832321 C354.396243,236.832321 353.833252,237.041989 353.412697,237.461331 C352.992143,237.880673 352.781869,238.604365 352.781869,239.632429 L352.781869,254.972151 Z M348.305023,239.916498 C348.305023,237.616881 348.888364,235.851613 350.055063,234.620642 C351.221762,233.38967 352.903954,232.774194 355.101689,232.774194 C357.299425,232.774194 358.981617,233.38967 360.148316,234.620642 C361.315015,235.851613 361.898356,237.616881 361.898356,239.916498 L361.898356,254.688082 C361.898356,256.987699 361.315015,258.752967 360.148316,259.983938 C358.981617,261.21491 357.299425,261.830386 355.101689,261.830386 C352.903954,261.830386 351.221762,261.21491 350.055063,259.983938 C348.888364,258.752967 348.305023,256.987699 348.305023,254.688082 L348.305023,239.916498 Z M374.148635,261.505736 C374.094369,261.316356 374.040105,261.140506 373.98584,260.97818 C373.931575,260.815854 373.884094,260.612949 373.843395,260.369461 C373.802696,260.125972 373.775564,259.814852 373.761998,259.436091 C373.748432,259.057331 373.741649,258.583887 373.741649,258.015747 L373.741649,253.551806 C373.741649,252.226145 373.511025,251.292785 373.049772,250.751698 C372.588519,250.210612 371.842386,249.940073 370.811349,249.940073 L369.264802,249.940073 L369.264802,261.505736 L364.787956,261.505736 L364.787956,233.098844 L371.543924,233.098844 C373.877322,233.098844 375.566297,233.639922 376.6109,234.722095 C377.655503,235.804267 378.177796,237.441029 378.177796,239.632429 L378.177796,241.864399 C378.177796,244.786266 377.201039,246.707093 375.247497,247.62694 C376.387063,248.086864 377.167112,248.83761 377.587666,249.879201 C378.008221,250.920792 378.218495,252.185563 378.218495,253.67355 L378.218495,258.056328 C378.218495,258.75974 378.245627,259.375217 378.299892,259.902776 C378.354157,260.430335 378.489818,260.96465 378.706878,261.505736 L374.148635,261.505736 Z M369.264802,237.156971 L369.264802,245.881945 L371.014842,245.881945 C371.855951,245.881945 372.513905,245.665514 372.988724,245.232645 C373.463544,244.799776 373.70095,244.015212 373.70095,242.878931 L373.70095,240.078823 C373.70095,239.050759 373.517808,238.306776 373.151519,237.846853 C372.78523,237.38693 372.208672,237.156971 371.421828,237.156971 L369.264802,237.156971 Z M381.148794,233.098844 L385.62564,233.098844 L385.62564,257.447609 L392.992087,257.447609 L392.992087,261.505736 L381.148794,261.505736 L381.148794,233.098844 Z M394.94562,233.098844 L402.027176,233.098844 C404.279177,233.098844 405.954586,233.69403 407.053454,234.88442 C408.152321,236.07481 408.701747,237.819787 408.701747,240.119404 L408.701747,254.485176 C408.701747,256.784793 408.152321,258.52977 407.053454,259.72016 C405.954586,260.91055 404.279177,261.505736 402.027176,261.505736 L394.94562,261.505736 L394.94562,233.098844 Z M399.422466,237.156971 L399.422466,257.447609 L401.945779,257.447609 C402.651225,257.447609 403.207434,257.244704 403.614422,256.83889 C404.02141,256.433075 404.224901,255.716146 404.224901,254.688082 L404.224901,239.916498 C404.224901,238.888434 404.02141,238.171505 403.614422,237.76569 C403.207434,237.359876 402.651225,237.156971 401.945779,237.156971 L399.422466,237.156971 Z" id="Visit-people-around-" fill="#747474" sketch:type="MSShapeGroup"></path>
                <path d="M9.52520728,294.07806 L21.8767409,294.07806 L21.8767409,302.29801 L9.52520728,302.29801 L9.52520728,319.148906 L25.0668721,319.148906 L25.0668721,327.368856 L0.527401357,327.368856 L0.527401357,269.829209 L25.0668721,269.829209 L25.0668721,278.049158 L9.52520728,278.049158 L9.52520728,294.07806 Z M38.6453792,285.693711 L38.6453792,327.368856 L30.5473538,327.368856 L30.5473538,269.829209 L41.8355104,269.829209 L51.078711,304.270797 L51.078711,269.829209 L59.0949381,269.829209 L59.0949381,327.368856 L49.8517375,327.368856 L38.6453792,285.693711 Z M63.1030516,319.148906 C63.5938435,319.203706 64.1118938,319.231106 64.6572181,319.231106 L66.2113846,319.231106 C67.6292278,319.231106 68.8425561,318.874911 69.8514061,318.162512 C70.860256,317.450113 71.3646734,315.970537 71.3646734,313.723739 L71.3646734,269.829209 L80.3624794,269.829209 L80.3624794,313.066143 C80.3624794,315.97054 80.0080239,318.354302 79.2991023,320.2175 C78.5901807,322.080697 77.6358775,323.546574 76.436164,324.615173 C75.2364506,325.683771 73.8595274,326.437259 72.3053531,326.875659 C70.7511789,327.314058 69.1288634,327.533255 67.4383581,327.533255 L65.2298058,327.533255 C64.5754166,327.533255 63.8665057,327.478456 63.1030516,327.368856 L63.1030516,319.148906 Z M85.7611629,283.638724 C85.7611629,278.980729 86.9335926,275.405087 89.278487,272.91169 C91.6233815,270.418293 95.0043415,269.171613 99.4214683,269.171613 C103.838595,269.171613 107.219555,270.418293 109.564449,272.91169 C111.909344,275.405087 113.081774,278.980729 113.081774,283.638724 L113.081774,313.55934 C113.081774,318.217335 111.909344,321.792977 109.564449,324.286375 C107.219555,326.779772 103.838595,328.026452 99.4214683,328.026452 C95.0043415,328.026452 91.6233815,326.779772 89.278487,324.286375 C86.9335926,321.792977 85.7611629,318.217335 85.7611629,313.55934 L85.7611629,283.638724 Z M94.7589688,314.134737 C94.7589688,316.217135 95.1815888,317.683011 96.0268415,318.53241 C96.8720941,319.381809 98.0036251,319.806502 99.4214683,319.806502 C100.839311,319.806502 101.970842,319.381809 102.816095,318.53241 C103.661348,317.683011 104.083968,316.217135 104.083968,314.134737 L104.083968,283.063328 C104.083968,280.98093 103.661348,279.515054 102.816095,278.665655 C101.970842,277.816256 100.839311,277.391562 99.4214683,277.391562 C98.0036251,277.391562 96.8720941,277.816256 96.0268415,278.665655 C95.1815888,279.515054 94.7589688,280.98093 94.7589688,283.063328 L94.7589688,314.134737 Z M126.087693,308.298573 L114.717738,269.829209 L124.124535,269.829209 L130.995587,296.050848 L137.866639,269.829209 L146.455454,269.829209 L135.085499,308.298573 L135.085499,327.368856 L126.087693,327.368856 L126.087693,308.298573 Z M170.74953,285.693711 L170.74953,327.368856 L162.651504,327.368856 L162.651504,269.829209 L173.939661,269.829209 L183.182862,304.270797 L183.182862,269.829209 L191.199089,269.829209 L191.199089,327.368856 L181.955888,327.368856 L170.74953,285.693711 Z M197.661149,269.829209 L206.658955,269.829209 L206.658955,327.368856 L197.661149,327.368856 L197.661149,269.829209 Z M239.296451,305.914787 L239.296451,313.55934 C239.296451,318.217335 238.16492,321.792977 235.901824,324.286375 C233.638729,326.779772 230.298667,328.026452 225.881541,328.026452 C221.464414,328.026452 218.124353,326.779772 215.861257,324.286375 C213.598161,321.792977 212.46663,318.217335 212.46663,313.55934 L212.46663,283.638724 C212.46663,278.980729 213.598161,275.405087 215.861257,272.91169 C218.124353,270.418293 221.464414,269.171613 225.881541,269.171613 C230.298667,269.171613 233.638729,270.418293 235.901824,272.91169 C238.16492,275.405087 239.296451,278.980729 239.296451,283.638724 L239.296451,289.22829 L230.789435,289.22829 L230.789435,283.063328 C230.789435,280.98093 230.366815,279.515054 229.521562,278.665655 C228.676309,277.816256 227.544778,277.391562 226.126935,277.391562 C224.709092,277.391562 223.577561,277.816256 222.732309,278.665655 C221.887056,279.515054 221.464436,280.98093 221.464436,283.063328 L221.464436,314.134737 C221.464436,316.217135 221.887056,317.669311 222.732309,318.49131 C223.577561,319.313309 224.709092,319.724303 226.126935,319.724303 C227.544778,319.724303 228.676309,319.313309 229.521562,318.49131 C230.366815,317.669311 230.789435,316.217135 230.789435,314.134737 L230.789435,305.914787 L239.296451,305.914787 Z M253.774739,294.07806 L266.126273,294.07806 L266.126273,302.29801 L253.774739,302.29801 L253.774739,319.148906 L269.316404,319.148906 L269.316404,327.368856 L244.776933,327.368856 L244.776933,269.829209 L269.316404,269.829209 L269.316404,278.049158 L253.774739,278.049158 L253.774739,294.07806 Z M296.555216,295.393252 L308.170566,295.393252 L308.170566,303.613201 L296.555216,303.613201 L296.555216,327.368856 L287.55741,327.368856 L287.55741,269.829209 L311.360697,269.829209 L311.360697,278.049158 L296.555216,278.049158 L296.555216,295.393252 Z M314.959819,283.638724 C314.959819,278.980729 316.132249,275.405087 318.477143,272.91169 C320.822038,270.418293 324.202998,269.171613 328.620125,269.171613 C333.037251,269.171613 336.418211,270.418293 338.763106,272.91169 C341.108,275.405087 342.28043,278.980729 342.28043,283.638724 L342.28043,313.55934 C342.28043,318.217335 341.108,321.792977 338.763106,324.286375 C336.418211,326.779772 333.037251,328.026452 328.620125,328.026452 C324.202998,328.026452 320.822038,326.779772 318.477143,324.286375 C316.132249,321.792977 314.959819,318.217335 314.959819,313.55934 L314.959819,283.638724 Z M323.957625,314.134737 C323.957625,316.217135 324.380245,317.683011 325.225498,318.53241 C326.07075,319.381809 327.202281,319.806502 328.620125,319.806502 C330.037968,319.806502 331.169499,319.381809 332.014751,318.53241 C332.860004,317.683011 333.282624,316.217135 333.282624,314.134737 L333.282624,283.063328 C333.282624,280.98093 332.860004,279.515054 332.014751,278.665655 C331.169499,277.816256 330.037968,277.391562 328.620125,277.391562 C327.202281,277.391562 326.07075,277.816256 325.225498,278.665655 C324.380245,279.515054 323.957625,280.98093 323.957625,283.063328 L323.957625,314.134737 Z M347.351921,283.638724 C347.351921,278.980729 348.52435,275.405087 350.869245,272.91169 C353.214139,270.418293 356.595099,269.171613 361.012226,269.171613 C365.429353,269.171613 368.810313,270.418293 371.155207,272.91169 C373.500102,275.405087 374.672531,278.980729 374.672531,283.638724 L374.672531,313.55934 C374.672531,318.217335 373.500102,321.792977 371.155207,324.286375 C368.810313,326.779772 365.429353,328.026452 361.012226,328.026452 C356.595099,328.026452 353.214139,326.779772 350.869245,324.286375 C348.52435,321.792977 347.351921,318.217335 347.351921,313.55934 L347.351921,283.638724 Z M356.349726,314.134737 C356.349726,316.217135 356.772346,317.683011 357.617599,318.53241 C358.462852,319.381809 359.594383,319.806502 361.012226,319.806502 C362.430069,319.806502 363.5616,319.381809 364.406853,318.53241 C365.252105,317.683011 365.674725,316.217135 365.674725,314.134737 L365.674725,283.063328 C365.674725,280.98093 365.252105,279.515054 364.406853,278.665655 C363.5616,277.816256 362.430069,277.391562 361.012226,277.391562 C359.594383,277.391562 358.462852,277.816256 357.617599,278.665655 C356.772346,279.515054 356.349726,280.98093 356.349726,283.063328 L356.349726,314.134737 Z M380.480206,269.829209 L394.713099,269.829209 C399.239291,269.829209 402.606618,271.034789 404.815181,273.445987 C407.023744,275.857184 408.12801,279.391727 408.12801,284.049722 L408.12801,313.148343 C408.12801,317.806338 407.023744,321.340881 404.815181,323.752078 C402.606618,326.163275 399.239291,327.368856 394.713099,327.368856 L380.480206,327.368856 L380.480206,269.829209 Z M389.478012,278.049158 L389.478012,319.148906 L394.549503,319.148906 C395.967346,319.148906 397.085244,318.737913 397.90323,317.915914 C398.721217,317.093915 399.130204,315.641738 399.130204,313.55934 L399.130204,283.638724 C399.130204,281.556326 398.721217,280.10415 397.90323,279.282151 C397.085244,278.460152 395.967346,278.049158 394.549503,278.049158 L389.478012,278.049158 Z" id="Enjoy-nice-food" fill="#747474" sketch:type="MSShapeGroup"></path>
            </g>
        </g>
    </g>
</svg>